<svg width="1024" height="1024" viewBox="0 0 1024 1024" fill="none" xmlns="http://www.w3.org/2000/svg">
<g clip-path="url(#clip0_115_526)">
<path d="M1023 1025C682.378 1025 341.757 1025 1.06738 1025C1.06738 683.757 1.06738 342.514 1.06738 1C341.364 1 681.728 1 1022.54 1.45363C1023 342.938 1023 683.969 1023 1025ZM715.041 528.915C716.941 529.875 718.796 531.539 720.751 531.667C727.147 532.085 733.58 531.944 739.643 532.839C735.527 532.999 731.411 533.281 727.294 533.3C688.269 533.482 649.243 533.619 610.093 532.979C607.575 523.748 605.609 514.318 602.366 505.348C599.696 497.962 595.514 491.123 592.94 484.017C617.265 484.067 641.59 484.133 665.915 484.161C674.453 484.171 676.938 481.715 676.937 473.162C676.931 414.015 676.907 354.868 676.855 295.722C676.846 285.852 673.088 282.07 663.312 282.069C560.181 282.052 457.049 282.052 353.917 282.074C343.471 282.077 340.014 285.506 340.004 295.789C339.968 332.61 339.993 369.431 339.958 406.251C339.948 417.077 339.815 427.903 338.998 438.829C333.707 439.102 332.451 443.314 330.997 447.191C322.719 469.261 314.525 491.364 306.218 513.423C305.486 515.367 304.145 517.082 302.714 518.23C292.765 502.46 282.403 486.933 272.981 470.855C262.888 453.633 249.499 442.529 228.566 443.01C228.407 443.014 228.246 442.924 228.073 441.98C227.531 434.436 228.762 427.268 232.319 420.374C233.23 420.867 233.816 421.163 234.383 421.494C244.396 427.343 252.619 423.964 254.837 412.767C255.727 408.274 256.239 403.945 260.631 403.107C259.253 397.313 258.02 392.133 257.18 386.393C266.141 376.935 265.844 367.352 255.837 358.918C252.468 356.079 248.426 353.754 244.323 352.122C228.74 345.924 212.735 346.205 196.768 350.394C188.193 352.643 180.102 356.152 173.132 363.01C172.394 362.988 171.657 362.966 171.001 362.065C170.959 360.071 171.17 358.032 170.83 356.09C169.667 349.436 164.884 346.503 158.378 348.263C149.328 350.711 140.917 361.745 141.107 371.18C141.234 377.476 143.934 382.536 149.601 385.469C153.096 387.277 156.936 388.419 160.768 389.918C160.768 390.528 160.818 391.346 160.761 392.157C159.657 407.731 167.653 418.37 183.116 420.518C189.269 421.373 195.691 420.288 202.046 421.008C201.971 428.269 201.897 435.53 201.008 442.992C185.729 443.525 174.562 450.717 166.818 463.762C154.867 483.894 149.748 505.837 148.149 529.171C127.691 529.204 107.232 529.183 86.7745 529.289C73.5756 529.357 66.8914 537.894 69.9881 550.596C73.9221 566.733 77.9195 582.854 81.5985 599.339C81.7696 599.885 81.9406 600.432 82.0483 601.632C82.1004 602.064 82.1525 602.496 81.9734 603.852C82.3067 627.51 82.6963 651.168 82.9615 674.827C83.4956 722.484 83.9599 770.142 84.4648 817.799C84.4836 819.574 84.6252 821.347 84.7286 823.519C87.308 823.384 89.3612 823.275 91.4757 823.164C91.5776 821.433 91.6941 820.28 91.7064 819.126C91.9964 791.967 92.2434 764.807 92.5648 737.648C92.894 709.822 93.2734 681.997 93.7133 654.172C93.7398 652.494 94.4942 650.828 94.9604 649.933C97.3757 659.263 99.7909 668.593 102.149 678.712C102.374 679.685 102.598 680.658 102.823 681.631C105.708 694.127 109.02 696.8 121.667 696.805C142.486 696.813 163.305 696.806 184.124 696.827C185.882 696.829 187.639 696.992 189.318 697.076C189.547 698.07 189.751 698.544 189.751 699.018C189.775 733.328 189.784 767.637 189.776 801.947C189.776 802.601 189.562 803.255 188.609 803.957C174.708 805.817 160.742 807.302 146.931 809.684C139.166 811.024 131.498 813.433 124.127 816.25C121.863 817.114 119.194 821.14 119.501 823.326C119.81 825.518 123.357 828.398 125.909 828.926C134.776 830.762 143.79 832.225 152.817 832.866C165.044 833.733 177.335 833.71 189.792 834.976C189.833 839.115 189.568 843.291 190.068 847.374C190.264 848.972 192.175 850.361 193.304 851.845C194.302 850.389 195.994 849.011 196.167 847.464C196.659 843.047 196.534 838.562 197.392 834.052C200.501 834.501 203.636 834.812 206.712 835.422C228.531 839.745 250.526 842.502 272.944 843.825C274.019 844.669 275.065 846.201 276.175 846.248C284.722 846.61 293.282 846.765 301.838 846.761C303.125 846.761 304.412 845.601 306.674 844.992C315.285 845.107 323.897 845.195 332.507 845.348C338.044 845.446 343.58 845.791 349.113 845.74C352.801 845.705 356.483 845.166 360.869 844.947C366.529 844.771 372.189 844.596 378.305 845.197C381.868 845.45 385.432 845.703 389.933 845.978C428.226 845.995 466.519 846.011 504.957 846.944C504.974 850.251 504.685 853.601 505.144 856.846C505.36 858.369 507.017 859.689 508.021 861.101C509.042 859.707 510.756 858.402 510.947 856.902C511.446 852.991 511.277 848.996 512.265 845.024C530.506 845.348 548.748 845.971 566.989 845.925C595.203 845.855 623.416 845.37 651.627 844.915C653.807 844.88 655.969 843.694 658.757 843.159C660.39 843.144 662.023 843.128 664.119 843.926C664.853 844.257 665.591 844.887 666.321 844.878C688.237 844.603 710.152 844.276 732.066 843.886C732.755 843.874 733.431 843.111 735.032 842.736C746.191 842.723 757.351 842.71 769.498 842.855C784.727 842.568 799.957 842.329 815.184 841.958C818.963 841.866 822.732 841.347 826.682 841.906C826.712 843.727 826.344 845.676 826.883 847.331C827.413 848.956 828.863 850.28 829.909 851.737C831.185 850.306 832.993 849.067 833.597 847.393C834.293 845.464 833.927 843.151 834.948 841.003C840.066 840.672 845.183 840.336 850.301 840.012C866.317 838.999 882.344 838.129 898.345 836.907C904.223 836.459 910.037 835.18 916.792 834.289C918.905 834.289 921.017 834.289 924.024 834.289C924.024 827.39 923.974 821.108 924.032 814.828C924.383 776.588 924.74 738.348 925.187 700.109C925.207 698.407 925.607 695.767 926.702 695.174C933.648 691.413 934.091 684.658 935.608 677.504C947.007 634.728 958.428 591.959 969.789 549.173C972.516 538.903 966.018 530.022 955.391 529.314C953.567 529.193 951.728 529.291 949.896 529.281C930.583 529.18 911.271 529.078 891.958 528.078C891.394 508.217 887.29 489.219 878.667 471.203C870.979 455.138 859.96 443.797 840.981 441.972C840.911 434.635 840.841 427.298 841.632 419.813C855.533 419.668 863.232 411.54 868.156 399.11C869.255 403.346 869.635 407.373 869.925 411.406C870.894 424.881 878.592 433.843 890.133 434.885C901.595 435.918 911.954 429.514 916.702 417.712C921.99 404.566 924.484 390.759 922.948 376.629C921.425 362.627 915.732 350.607 902.866 343.325C886.741 334.197 869.764 342.626 867.03 360.929C866.83 362.264 866.593 363.595 866.164 366.204C857.438 354.927 846.526 349.678 834.043 347.48C818.654 344.771 803.72 345.876 790.37 354.809C779.565 362.039 777.267 373.851 783.815 384.916C784.48 386.038 784.829 387.346 784.943 389.349C783.552 393.804 782.16 398.258 780.711 402.897C785.309 406.534 785.309 406.534 787.021 413.938C789.147 423.129 796.005 426.539 804.698 422.7C806.312 421.986 807.872 421.149 810.972 419.623C811.741 428.003 812.429 435.489 812.292 443.197C794.22 443.53 781.214 452.23 772.072 467.427C769.774 471.245 767.208 474.903 764.308 477.98C761.25 467.949 758.16 457.927 755.143 447.883C752.664 439.633 751.318 438.549 742.927 438.551C727.097 438.557 711.267 438.575 695.438 438.599C685.819 438.614 683.544 441.29 686.278 450.416C693.204 473.537 700.441 496.565 707.419 519.671C708.635 523.695 710.845 525.572 715.117 525.762C715.132 526.55 715.148 527.338 715.041 528.915ZM40.7711 491.215C35.5574 490.413 30.6936 491.544 28.194 496.298C25.9344 500.595 24.4768 505.49 23.6658 510.29C23.3178 512.35 24.9432 515.785 26.7127 516.826C28.077 517.628 31.7066 516.31 33.2044 514.811C36.797 511.215 39.7275 506.958 43.486 503.449C44.4942 505.261 45.3824 508.546 46.5305 508.639C52.8356 509.152 59.2043 508.884 66.1293 508.884C63.4926 505.085 64.9188 495.943 68.5852 491.712C70.7435 490.065 72.9018 488.419 76.0673 486.003C70.6816 482.923 66.3656 480.454 62.9362 478.493C68.0002 474.172 73.0718 470.024 77.8802 465.59C78.8488 464.697 78.8191 462.721 79.2497 461.245C77.7232 460.924 76.1454 460.197 74.6828 460.382C72.7527 460.626 70.913 461.585 68.9962 461.554C68.9743 461.328 68.9523 461.101 69.2589 460.303C73.2267 455.203 77.808 450.46 81.0188 444.922C85.8395 436.607 84.9935 427.917 79.8011 419.868C76.4418 414.66 71.8527 414.405 67.9712 419.16C65.9922 421.585 64.3467 424.349 62.9301 427.151C59.8269 433.29 56.9658 439.552 53.4261 446.98C53.9578 442.609 55.2682 439.332 54.5273 436.613C51.5441 425.666 45.265 416.749 35.6638 410.555C31.5199 407.881 27.6918 409.613 26.62 414.467C26.0322 417.129 26.5149 420.027 26.5157 422.819C21.2214 426.643 20.1467 431.006 24.8838 435.566C28.9367 439.468 34.2354 442.265 39.347 444.824C44.457 447.382 50.8877 456.937 50.3439 462.078C47.0294 460.567 43.7286 458.509 40.1349 457.561C35.3284 456.293 29.9015 459.724 28.5844 464.093C27.4965 467.7 29.7739 471.412 34.8754 473.522C37.7429 474.708 40.8727 475.259 43.8571 476.088C43.5956 477.819 43.3608 479.372 42.5485 481.417C42.2231 484.72 41.8977 488.023 40.7711 491.215Z" fill="#EDF0F8"/>
<path d="M1023.5 1025C1023 683.969 1023 342.938 1023 1.45362C1023.67 1.33332 1024.78 1.54802 1024.91 2.02393C1025.2 3.11488 1025 4.33332 1025 5.49998C1025 343.833 1025 682.167 1024.96 1020.5C1024.96 1022 1024.33 1023.5 1023.5 1025Z" fill="#FEFEFF"/>
<path d="M81.8895 598.982C77.9195 582.854 73.9221 566.733 69.9881 550.596C66.8914 537.894 73.5756 529.357 86.7745 529.289C107.232 529.182 127.691 529.203 149.08 529.087C170.953 529.004 191.895 528.98 212.836 529.014C226.347 529.035 234.602 535.99 237.07 549.221C237.827 553.278 238.827 557.29 239.61 561.343C242.146 574.465 244.566 587.61 247.187 600.714C247.821 603.883 249.056 606.93 250.024 610.44C253.355 627.696 256.904 644.507 259.84 661.425C260.587 665.73 259.386 670.374 258.767 675.041C255.523 676.464 252.59 678.796 249.662 678.789C200.51 678.673 151.358 678.265 102.206 677.923C99.7909 668.593 97.3757 659.263 94.993 649.142C92.2829 637.258 89.6732 626.128 86.729 615.088C85.6198 610.928 83.7355 606.976 82.2045 602.928C82.1525 602.496 82.1004 602.064 82.286 601.145C82.3123 600.099 82.1009 599.541 81.8895 598.982Z" fill="#46495F"/>
<path d="M891.958 528.976C911.271 529.078 930.584 529.18 949.897 529.281C951.729 529.291 953.568 529.193 955.392 529.314C966.018 530.022 972.517 538.903 969.79 549.173C958.429 591.958 947.008 634.728 934.98 677.819C927.734 678.415 921.117 678.921 914.499 678.936C876.107 679.029 837.714 679.017 799.321 679.009C792.918 679.008 786.155 680.461 780.979 674.487C781.097 671.219 780.789 668.312 781.366 665.595C785.46 646.322 789.734 627.089 793.96 607.447C798.534 586.517 803.072 565.977 807.677 545.452C809.616 536.81 817.907 530.108 826.866 529.949C833.461 529.832 840.061 530 846.657 529.889C861.758 529.634 876.858 529.286 891.958 528.976Z" fill="#47495F"/>
<path d="M592.003 484.041C595.515 491.123 599.697 497.962 602.367 505.348C605.609 514.318 607.576 523.748 610.155 533.795C611.128 545.212 612.039 555.812 612.685 566.176C602.305 554.441 589.673 549.588 574.304 549.744C535.815 550.135 497.319 550.061 458.829 549.755C446.307 549.655 434.222 550.541 422.982 556.076C424.033 548.373 425.081 541.158 426.384 533.696C428.792 526.499 430.393 519.311 433.234 512.653C437.377 502.943 442.411 493.614 447.334 483.927C452.161 479.465 456.719 475.197 461.561 470.766C464.711 468.973 467.488 467.154 470.461 465.751C480.92 460.816 492.193 459.033 503.907 457.559C510.408 457.347 516.523 456.827 522.632 456.887C529.068 456.95 535.497 457.568 542.15 458.236C547.828 460.374 553.304 462.166 558.737 464.078C564.158 465.985 569.538 468.012 575.147 470.25C580.908 475.024 586.455 479.532 592.003 484.041Z" fill="#856CFD"/>
<path d="M250.016 610.034C249.057 606.93 247.821 603.883 247.187 600.715C244.566 587.61 242.146 574.465 239.61 561.343C238.827 557.29 237.828 553.278 237.071 549.221C234.603 535.991 226.348 529.035 212.837 529.014C191.895 528.98 170.954 529.004 149.55 529.009C149.748 505.837 154.868 483.894 166.819 463.762C174.563 450.717 185.73 443.525 201.891 442.961C211.211 442.913 219.649 442.895 228.086 442.878C228.246 442.924 228.407 443.014 228.566 443.01C249.5 442.529 262.889 453.633 272.982 470.855C282.404 486.933 292.766 502.46 303.007 518.859C304.203 521.295 305.721 523.047 305.888 524.919C306.278 529.297 306.02 533.732 305.89 538.441C298.299 551.777 284.031 552.223 274.796 543.174C271.856 540.294 269.242 537.081 266.346 533.679C261.868 527.712 257.521 522.087 253.174 516.461C252.784 516.623 252.394 516.784 252.004 516.946C252.346 522.612 252.689 528.277 252.996 534.414C253.013 545.971 253.066 557.058 253.128 568.603C253.397 582.386 253.658 595.71 253.614 609.189C252.212 609.573 251.114 609.803 250.016 610.034Z" fill="#3B3B72"/>
<path d="M891.959 528.527C876.858 529.286 861.758 529.634 846.657 529.889C840.061 530 833.461 529.832 826.866 529.949C817.907 530.108 809.616 536.81 807.677 545.452C803.072 565.977 798.534 586.517 793.556 607.456C792.339 607.789 791.534 607.716 790.782 607.202C790.918 593.77 791.002 580.778 791.078 567.361C791.312 555.851 791.555 544.767 791.849 533.242C791.9 527.494 791.9 522.186 791.9 515.453C787.447 522.275 783.625 528.13 779.479 534.047C777.249 536.372 775.347 538.639 773.437 540.899C768.527 546.71 762.255 549.436 754.844 547.615C748.519 546.06 741.844 540.014 740.831 531.549C740.52 530.746 740.199 530.244 739.91 529.338C739.949 527.309 739.955 525.686 740.233 523.828C740.996 521.74 741.487 519.887 742.156 517.739C744.12 514.453 746.008 511.517 747.67 508.459C751.935 500.616 756.099 492.719 760.625 484.815C762.22 482.735 763.493 480.685 764.766 478.634C767.209 474.903 769.775 471.245 772.073 467.427C781.215 452.23 794.221 443.53 813.163 443.117C823.018 442.987 832.003 442.937 840.989 442.888C859.961 443.797 870.979 455.138 878.668 471.203C887.29 489.219 891.394 508.217 891.959 528.527Z" fill="#5856BB"/>
<path d="M592.472 484.029C586.455 479.532 580.907 475.024 575.623 470.245C604.866 469.954 633.846 469.887 662.825 469.965C666.412 469.975 668.133 469.44 668.12 465.129C667.968 413.166 667.989 361.202 668.096 309.238C668.104 305.283 666.784 304.065 662.905 304.068C559.977 304.137 457.048 304.141 354.12 304.024C349.596 304.019 348.981 305.967 348.989 309.748C349.073 348.221 349.026 386.694 349.036 425.167C349.038 429.661 349.162 434.155 348.762 438.731C345.443 438.785 342.591 438.757 339.738 438.729C339.815 427.903 339.948 417.077 339.959 406.251C339.994 369.431 339.969 332.61 340.005 295.789C340.015 285.505 343.471 282.077 353.918 282.074C457.049 282.052 560.181 282.052 663.313 282.068C673.088 282.07 676.847 285.852 676.855 295.722C676.908 354.868 676.932 414.015 676.938 473.162C676.939 481.715 674.453 484.171 665.916 484.161C641.591 484.133 617.266 484.067 592.472 484.029Z" fill="#6F7188"/>
<path d="M658.14 843.043C655.97 843.694 653.808 844.88 651.627 844.915C623.416 845.37 595.203 845.855 566.99 845.925C548.749 845.971 530.507 845.348 511.716 844.568C511.236 824.059 511.305 804.007 511.815 783.963C540.023 784.317 567.796 784.477 595.557 785.117C603.952 785.31 612.419 786.291 620.672 787.863C636.666 790.91 652.699 793.109 669.002 793.424C669.247 795.189 669.492 796.556 669.715 797.799C672.267 796.637 674.061 795.819 675.932 795.443C675.163 809.593 674.317 823.302 673.223 837.051C672.504 837.098 672.034 837.104 671.276 837.145C670.678 837.388 670.367 837.597 669.639 837.919C666.019 838.504 662.825 839.058 659.61 839.423C656.72 839.75 657.053 841.198 658.14 843.043Z" fill="#DADEED"/>
<path d="M785.325 388.568C784.829 387.346 784.48 386.038 783.816 384.916C777.268 373.851 779.566 362.039 790.37 354.809C803.721 345.876 818.654 344.771 834.043 347.48C846.527 349.678 857.438 354.927 866.164 366.204C866.594 363.595 866.831 362.264 867.03 360.929C869.764 342.626 886.741 334.197 902.867 343.325C915.732 350.607 921.425 362.627 922.948 376.629C924.485 390.759 921.99 404.566 916.702 417.712C911.955 429.514 901.596 435.918 890.134 434.884C878.592 433.843 870.894 424.881 869.925 411.406C869.635 407.373 869.255 403.346 868.156 399.11C863.232 411.54 855.533 419.668 840.86 419.758C833.402 416.907 826.59 414.371 820.087 411.202C816.993 409.694 815.534 407.151 817.275 402.953C819.813 396.834 816.047 391.872 809.955 393.265C800.861 395.346 792.885 393.539 785.325 388.568Z" fill="#282A49"/>
<path d="M504.812 846.028C466.519 846.011 428.226 845.995 389.455 845.56C388.932 844.599 388.887 844.055 388.647 843.241C384.553 842.009 380.653 841.048 376.748 839.674C374.148 823.509 371.552 807.758 369.373 791.947C372.081 791.592 374.365 791.119 376.664 791.032C388.287 790.594 400.099 791.438 411.5 789.643C436.666 785.681 461.94 784.452 487.316 784.013C493.147 783.913 498.982 783.98 504.895 784.434C504.92 805.275 504.866 825.652 504.812 846.028Z" fill="#DADEED"/>
<path d="M201.992 420.086C195.692 420.287 189.269 421.373 183.116 420.518C167.654 418.369 159.657 407.731 160.761 392.157C160.819 391.346 160.769 390.527 160.769 389.918C156.936 388.419 153.096 387.277 149.602 385.469C143.935 382.536 141.234 377.476 141.108 371.18C140.918 361.745 149.328 350.711 158.378 348.263C164.885 346.503 169.668 349.436 170.831 356.089C171.17 358.032 170.96 360.07 170.683 362.693C167.137 367.138 164.147 371.041 165.564 376.563C168.333 372.001 171.101 367.439 173.869 362.877C180.102 356.152 188.194 352.643 196.769 350.393C212.736 346.205 228.741 345.924 244.324 352.122C248.427 353.754 252.469 356.079 255.837 358.917C265.845 367.352 266.142 376.935 256.647 386.74C245.332 393.359 233.756 394.546 221.608 392.79C219.288 392.455 216.793 393.331 214.379 393.649C214.859 396.598 214.387 400.327 216.025 402.327C219.004 405.962 218.535 409.126 215.677 411.433C211.506 414.8 206.59 417.247 201.992 420.086Z" fill="#3E405A"/>
<path d="M791.797 533.682C791.554 544.767 791.311 555.851 790.602 567.343C738.545 567.744 686.955 567.726 635.365 567.741C628.221 567.743 621.078 567.908 613.705 567.885C613.3 567.32 613.125 566.866 612.95 566.413C612.038 555.812 611.127 545.212 610.217 534.19C649.243 533.619 688.269 533.482 727.294 533.3C731.411 533.281 735.527 532.999 740.023 532.37C740.403 531.901 740.82 531.852 740.82 531.852C741.844 540.015 748.518 546.06 754.844 547.615C762.254 549.437 768.527 546.71 773.436 540.899C775.346 538.639 777.249 536.372 779.955 533.988C784.437 533.806 788.117 533.744 791.797 533.682Z" fill="#72748B"/>
<path d="M102.178 678.317C151.358 678.266 200.51 678.673 249.662 678.789C252.59 678.796 255.523 676.464 259.227 675.072C283.49 674.941 306.98 675 330.47 674.936C334.342 674.925 337.987 675.915 338.895 679.666C339.63 682.699 339.264 686.586 337.931 689.407C335.333 694.905 329.74 695.736 324.258 695.803C314.763 695.92 305.265 695.795 295.771 695.919C293.853 695.944 291.943 696.622 289.563 696.928C258.37 696.858 227.644 696.858 196.245 696.858C196.245 699.135 196.246 700.91 196.245 702.685C196.232 728.795 196.198 754.905 196.221 781.015C196.228 787.991 196.413 794.967 196.413 802.404C196.424 813.277 196.538 823.691 196.652 834.104C196.534 838.562 196.659 843.047 196.167 847.463C195.994 849.011 194.302 850.389 193.304 851.845C192.175 850.361 190.264 848.972 190.068 847.374C189.568 843.291 189.833 839.115 189.791 834.057C189.676 823.395 189.562 813.652 189.448 803.909C189.562 803.255 189.776 802.601 189.776 801.947C189.784 767.637 189.775 733.328 189.751 699.018C189.751 698.544 189.547 698.07 189.318 697.076C187.639 696.992 185.882 696.829 184.124 696.827C163.305 696.806 142.486 696.813 121.667 696.805C109.02 696.8 105.708 694.127 102.823 681.631C102.598 680.658 102.374 679.685 102.178 678.317Z" fill="#73758B"/>
<path d="M780.962 674.937C786.155 680.462 792.917 679.008 799.32 679.009C837.713 679.018 876.106 679.029 914.499 678.937C921.117 678.921 927.734 678.415 934.794 678.144C934.091 684.658 933.648 691.413 926.703 695.174C925.608 695.767 925.207 698.408 925.187 700.109C924.74 738.348 924.383 776.588 924.032 814.828C923.975 821.108 924.024 827.39 924.024 834.289C921.018 834.289 918.905 834.289 916.316 833.832C915.578 825.255 915.317 817.134 915.122 808.547C914.512 771.169 913.836 734.258 913.166 697.696C912.052 697.232 911.755 697.001 911.458 697C886.637 696.923 861.817 696.821 836.997 696.938C835.862 696.944 834.736 698.938 833.199 700.005C830.869 700.004 828.945 700.003 826.943 699.581C825.395 698.378 823.938 696.943 822.455 696.917C811.517 696.722 800.573 696.782 789.631 696.811C774.719 696.85 759.807 696.932 744.679 696.889C744.238 696.54 744.098 696.255 744.288 695.68C745.879 695.087 747.225 694.743 748.572 694.399C748.696 693.975 748.821 693.55 748.946 693.126C746.54 692.104 744.044 691.25 741.761 690.004C740.142 689.12 737.923 687.948 737.527 686.484C736.542 682.846 736.447 678.968 736.394 675.125C737.863 675.103 738.934 675.141 740.004 675.603C739.273 680.234 740.822 682.558 745.309 682.615C749.256 682.666 753.353 683.55 757.108 682.759C761.255 681.886 765.327 679.827 767.393 675.133C769.859 675.289 771.926 675.505 774.001 676.121C775.352 677.602 776.695 678.683 778.038 679.764C778.69 678.24 779.342 676.716 780.235 675.123C780.637 675.014 780.8 674.975 780.962 674.937ZM757.972 693.639C759.437 693.639 760.902 693.639 762.368 693.639C762.311 693.079 762.254 692.519 762.197 691.959C759.607 692.271 757.018 692.583 754.428 692.895C754.531 693.473 754.634 694.051 754.737 694.629C755.597 694.38 756.458 694.131 757.972 693.639Z" fill="#73758B"/>
<path d="M197.022 834.078C196.538 823.691 196.424 813.277 196.827 802.421C206.406 801.28 215.468 800.592 224.529 799.885C241.163 798.586 257.797 797.275 274.525 796.378C274.15 811.917 273.681 827.049 273.102 842.397C272.993 842.615 272.779 843.052 272.779 843.052C250.527 842.502 228.532 839.745 206.713 835.422C203.636 834.812 200.501 834.501 197.022 834.078Z" fill="#D9DDEB"/>
<path d="M915.055 809.013C915.317 817.134 915.578 825.255 915.86 833.828C910.037 835.18 904.223 836.459 898.345 836.908C882.344 838.13 866.317 838.999 850.301 840.012C845.183 840.336 840.066 840.672 834.416 840.631C833.776 839.51 833.669 838.761 833.664 837.617C833.696 836.144 833.627 835.066 833.657 833.537C833.688 829.391 833.619 825.696 833.651 821.541C833.851 814.052 833.949 807.022 834.479 799.997C861.625 803.005 888.34 806.009 915.055 809.013Z" fill="#DADEED"/>
<path d="M826.506 841.024C822.732 841.347 818.963 841.866 815.184 841.958C799.957 842.329 784.727 842.568 769.063 842.391C768.299 839.885 767.971 837.845 767.666 835.412C766.122 822.346 764.555 809.674 763.457 797C772.55 797.333 781.172 797.696 789.797 797.992C800.585 798.362 811.375 798.646 822.162 799.052C823.624 799.107 825.067 799.655 826.621 800.435C826.801 808.264 826.879 815.633 826.888 823.465C826.715 829.628 826.61 835.326 826.506 841.024Z" fill="#D9DDEB"/>
<path d="M43.1262 480.926C43.361 479.372 43.5958 477.818 43.8572 476.088C40.8728 475.259 37.743 474.707 34.8756 473.522C29.7741 471.412 27.4966 467.7 28.5845 464.092C29.9017 459.724 35.3286 456.293 40.135 457.561C43.7288 458.509 47.0295 460.567 50.3441 462.078C50.8878 456.936 44.4572 447.382 39.3472 444.824C34.2355 442.265 28.9369 439.468 24.884 435.566C20.1469 431.006 21.2215 426.643 26.5155 422.819C26.5151 420.027 26.0324 417.129 26.6202 414.467C27.6919 409.613 31.52 407.881 35.6639 410.555C45.2651 416.749 51.5443 425.666 54.5275 436.613C55.2683 439.332 53.958 442.609 53.4262 446.979C56.966 439.551 59.827 433.29 62.9303 427.151C64.3469 424.348 65.9923 421.584 67.9714 419.16C71.8528 414.405 76.4419 414.66 79.8013 419.868C84.9936 427.917 85.8397 436.607 81.019 444.922C77.8081 450.46 73.2269 455.203 68.8135 460.704C67.9137 461.739 67.4594 462.372 66.7435 463.066C66.3309 463.431 66.1799 463.734 65.7294 464.049C64.9543 464.381 64.4788 464.701 63.5798 464.988C59.0921 464.445 56.2141 465.212 57.4755 471.511C59.9729 468.982 61.9605 466.969 64.2478 464.939C65.0192 464.606 65.4908 464.289 66.2256 463.918C66.6571 463.573 66.8256 463.283 67.2856 463.052C68.063 462.819 68.5487 462.528 69.0345 462.236C70.9131 461.584 72.7529 460.626 74.683 460.382C76.1456 460.197 77.7233 460.924 79.2499 461.245C78.8193 462.721 78.849 464.697 77.8804 465.59C73.072 470.023 68.0004 474.172 62.9364 478.493C66.3658 480.454 70.6818 482.923 76.0675 486.003C72.9019 488.418 70.7437 490.065 67.8983 491.787C66.839 490.393 66.1112 488.91 66.1722 487.46C66.2823 484.844 65.4437 483.41 62.746 483.123C56.2022 482.427 49.6657 481.663 43.1262 480.926ZM34.8986 422.734C34.8166 422.686 34.7346 422.639 34.6526 422.592C34.7689 422.727 34.8852 422.863 35.031 423.594C35.3463 424.068 35.6615 424.542 36.0756 425.647C36.7091 426.106 37.3426 426.565 38.0158 427.613C38.3377 428.08 38.6595 428.546 39.0799 429.642C39.7048 430.109 40.3297 430.577 40.9533 431.689C41.2913 432.337 41.6294 432.985 41.9674 433.633C42.2412 433.446 42.5151 433.259 42.7889 433.072C42.2044 432.369 41.62 431.666 40.9204 430.34C40.2877 429.886 39.655 429.432 38.9867 428.386C38.6643 427.919 38.3418 427.453 37.9231 426.354C37.2914 425.894 36.6597 425.433 35.9854 424.382C35.6564 423.921 35.3274 423.461 34.8986 422.734ZM71.4762 433.297C71.303 433.853 71.1297 434.409 70.6743 435.092C70.7937 435.075 70.913 435.058 71.5197 434.701C71.6953 434.146 71.8709 433.592 72.3256 432.907C72.2048 432.923 72.084 432.939 71.4762 433.297ZM66.3681 444.515C67.5683 442.307 68.7685 440.098 69.9687 437.89C69.412 437.65 68.8552 437.41 68.2985 437.17C67.4428 439.643 66.5872 442.115 66.3681 444.515ZM64.8475 447.159C63.6971 448.857 62.5467 450.556 61.3963 452.254C61.8254 452.529 62.2546 452.805 62.6837 453.08C63.4138 451.326 64.144 449.571 64.8475 447.159ZM73.7667 430.61C74.129 430.182 74.5091 429.765 74.8239 429.305C74.8527 429.262 74.4639 428.935 74.2691 428.74C73.9678 429.24 73.6665 429.741 73.7667 430.61ZM43.447 435.705C43.7109 435.984 43.9747 436.263 44.2386 436.542C44.3506 436.433 44.5671 436.237 44.5596 436.228C44.3139 435.933 44.0466 435.657 43.447 435.705Z" fill="#6B70AB"/>
<path d="M360.169 844.853C356.484 845.166 352.801 845.705 349.114 845.739C343.58 845.791 338.044 845.446 332.508 845.348C323.897 845.195 315.286 845.107 305.886 844.767C301.266 843.993 297.434 843.444 293.695 842.499C297.609 826.062 301.429 810.02 305.702 793.982C312.144 793.986 318.144 794.195 324.117 793.878C326.213 793.767 328.241 792.368 330.552 791.814C332.576 796.023 334.334 799.98 336.123 803.922C341.556 815.892 347.002 827.855 352.343 840.211C353.136 841.644 353.837 843.083 354.97 843.633C356.532 844.391 358.42 844.478 360.169 844.853Z" fill="#D9DDEB"/>
<path d="M339.368 438.779C342.591 438.757 345.443 438.785 349.21 438.792C362.261 438.808 374.397 438.85 386.533 438.881C394.567 438.901 396.039 441.406 393.137 448.989C390.499 455.881 388.382 462.972 385.746 470.194C383.949 474.899 382.442 479.386 380.657 484.107C375.844 496.281 371.31 508.223 366.774 520.163C365.462 523.617 363.861 526.672 358.872 525.34C347.242 524.751 336.006 524.137 324.775 524.227C322.75 524.243 320.75 527.156 318.738 528.732C329.534 529.924 339.609 530.021 349.681 529.864C352.602 529.818 355.512 529.043 358.304 529.008C356.357 530.16 354.539 531.537 352.709 531.552C341.164 531.644 329.618 531.377 318.072 531.397C316.645 531.399 315.219 532.392 313.49 533.06C310.8 534.843 308.412 536.493 306.025 538.144C306.02 533.732 306.278 529.297 305.887 524.919C305.72 523.047 304.203 521.295 303.193 519.196C304.146 517.082 305.486 515.367 306.218 513.423C314.526 491.364 322.72 469.262 330.998 447.191C332.452 443.314 333.708 439.102 339.368 438.779ZM380.578 461.005C382.392 456.243 384.207 451.482 386.155 446.369C384.456 446.098 383.354 445.772 382.251 445.769C368.442 445.739 354.632 445.843 340.824 445.695C337.569 445.66 336.635 447.42 335.701 449.962C328.012 470.873 320.221 491.747 312.507 512.649C312.033 513.932 311.939 515.355 311.425 517.935C326.182 517.935 340.122 517.828 354.058 518.004C357.87 518.053 359.684 516.541 360.961 513.072C367.277 495.909 373.8 478.821 380.578 461.005Z" fill="#302E51"/>
<path d="M504.885 846.486C504.867 825.652 504.921 805.275 504.977 783.974C504.98 769.3 504.98 755.55 504.98 741.22C480.292 741.22 456.233 741.22 431.453 741.22C432.18 736.669 432.799 732.798 433.77 728.997C441.097 730.368 448.058 732.714 455.045 732.795C489.04 733.187 523.042 732.875 557.041 733.033C566.731 733.078 576.305 732.8 585.749 730.329C586.46 734.082 587.062 737.43 587.784 741.451C561.848 741.451 536.624 741.451 511.375 741.451C511.375 756.007 511.375 769.98 511.375 783.954C511.305 804.007 511.236 824.059 511.271 844.573C511.278 848.996 511.446 852.991 510.948 856.902C510.757 858.402 509.042 859.707 508.022 861.101C507.018 859.689 505.361 858.369 505.145 856.846C504.686 853.601 504.975 850.251 504.885 846.486Z" fill="#73758B"/>
<path d="M82.0898 603.39C83.7364 606.976 85.6207 610.929 86.7299 615.088C89.6741 626.129 92.2838 637.258 94.9686 648.754C94.495 650.828 93.7407 652.494 93.7142 654.172C93.2743 681.997 92.8949 709.822 92.5657 737.648C92.2443 764.807 91.9973 791.967 91.7073 819.126C91.695 820.28 91.5785 821.433 91.4766 823.164C89.3621 823.275 87.3089 823.384 84.7295 823.519C84.6261 821.347 84.4845 819.574 84.4657 817.799C83.9608 770.142 83.4965 722.484 82.9623 674.827C82.6972 651.168 82.3076 627.51 82.0898 603.39Z" fill="#73758B"/>
<path d="M202.019 420.547C206.591 417.247 211.506 414.801 215.678 411.433C218.535 409.126 219.004 405.962 216.026 402.327C214.387 400.327 214.859 396.598 214.38 393.649C216.794 393.332 219.288 392.456 221.608 392.791C233.756 394.546 245.332 393.359 256.451 387.021C258.021 392.133 259.253 397.313 260.632 403.108C256.24 403.945 255.728 408.274 254.838 412.767C252.62 423.964 244.397 427.343 234.384 421.494C233.817 421.164 233.231 420.867 232.32 420.374C228.763 427.269 227.532 434.436 228.08 442.429C219.649 442.896 211.212 442.913 202.299 442.86C201.898 435.53 201.972 428.269 202.019 420.547Z" fill="#BA7754"/>
<path d="M734.114 842.698C733.432 843.111 732.756 843.874 732.067 843.886C710.152 844.276 688.237 844.603 666.321 844.878C665.592 844.887 664.854 844.257 664.104 843.202C673.587 842.31 683.092 841.873 692.583 842.087C697.33 842.194 699.477 840.976 698.6 835.714C704.684 822.218 710.548 809.049 716.86 795.872C722.537 795.909 727.767 795.955 733.253 796.249C735.756 802.184 737.895 807.916 740.276 813.547C743.486 821.14 746.882 828.654 750.039 836.551C745.617 837.929 741.316 838.826 737.119 840.07C735.96 840.414 735.107 841.793 734.114 842.698Z" fill="#D9DDEB"/>
<path d="M785.134 388.958C792.885 393.539 800.861 395.346 809.955 393.265C816.047 391.872 819.814 396.834 817.275 402.953C815.534 407.151 816.993 409.694 820.087 411.202C826.59 414.371 833.402 416.907 840.429 419.832C840.841 427.298 840.911 434.635 840.985 442.43C832.003 442.937 823.018 442.987 813.575 443.006C812.429 435.489 811.742 428.003 810.972 419.623C807.872 421.149 806.313 421.986 804.698 422.7C796.005 426.539 789.147 423.129 787.022 413.938C785.309 406.534 785.309 406.534 780.712 402.897C782.161 398.258 783.552 393.803 785.134 388.958Z" fill="#BA7754"/>
<path d="M189.029 803.933C189.562 813.652 189.677 823.395 189.695 833.604C177.335 833.71 165.045 833.733 152.817 832.866C143.79 832.225 134.776 830.762 125.909 828.926C123.357 828.397 119.81 825.518 119.502 823.326C119.195 821.14 121.863 817.114 124.127 816.249C131.498 813.433 139.166 811.024 146.931 809.684C160.742 807.302 174.708 805.817 189.029 803.933Z" fill="#D9DDEB"/>
<path d="M764.537 478.307C763.492 480.685 762.219 482.736 760.534 484.441C756.71 472.777 753.256 461.471 749.914 450.132C749.107 447.395 747.822 445.983 744.683 446.008C729.52 446.127 714.355 446.1 699.192 445.995C694.994 445.966 693.911 447.609 695.125 451.525C701.485 472.042 707.8 492.574 714.013 513.136C715.121 516.801 717.284 518.116 720.982 518.037C727.977 517.887 734.979 518.019 741.977 518.033C741.486 519.887 740.996 521.74 739.768 523.793C731.032 524.32 723.032 524.647 715.033 524.974C710.845 525.572 708.635 523.695 707.419 519.671C700.441 496.566 693.204 473.537 686.278 450.416C683.544 441.29 685.82 438.614 695.438 438.599C711.268 438.575 727.097 438.557 742.927 438.552C751.318 438.549 752.664 439.633 755.143 447.883C758.16 457.927 761.25 467.949 764.537 478.307Z" fill="#302E51"/>
<path d="M42.8373 481.172C49.6656 481.663 56.2021 482.427 62.7459 483.123C65.4436 483.41 66.2822 484.844 66.1721 487.46C66.1111 488.91 66.8389 490.394 67.6008 491.959C64.9188 495.943 63.4927 505.085 66.1294 508.884C59.2044 508.884 52.8356 509.152 46.5305 508.639C45.3825 508.546 44.4942 505.261 43.3771 502.846C44.632 498.305 44.3966 494.615 41.5723 491.326C41.8977 488.023 42.2231 484.72 42.8373 481.172Z" fill="#D4DDFD"/>
<path d="M41.1724 491.271C44.3973 494.614 44.6327 498.305 43.0974 502.605C39.7282 506.958 36.7977 511.215 33.2051 514.811C31.7073 516.31 28.0777 517.628 26.7134 516.825C24.944 515.784 23.3185 512.35 23.6665 510.29C24.4775 505.49 25.9351 500.595 28.1947 496.298C30.6943 491.544 35.5581 490.413 41.1724 491.271Z" fill="#6B70AB"/>
<path d="M698.38 836.041C699.476 840.976 697.329 842.194 692.583 842.087C683.092 841.873 673.586 842.31 663.871 842.795C662.023 843.128 660.39 843.144 658.448 843.101C657.052 841.198 656.719 839.75 659.609 839.423C662.825 839.058 666.018 838.504 669.934 837.924C670.952 837.582 671.257 837.346 671.562 837.111C672.033 837.104 672.504 837.098 673.718 837.163C682.434 836.837 690.407 836.439 698.38 836.041Z" fill="#BA7754"/>
<path d="M734.573 842.717C735.107 841.793 735.96 840.414 737.119 840.07C741.316 838.826 745.617 837.929 750.485 836.518C756.608 836.025 762.126 835.915 767.643 835.805C767.971 837.845 768.3 839.885 768.57 842.311C757.352 842.71 746.192 842.723 734.573 842.717Z" fill="#BA7754"/>
<path d="M826.595 841.465C826.611 835.326 826.716 829.628 827.271 823.458C829.665 822.658 831.608 822.329 833.551 822C833.62 825.696 833.688 829.391 833.321 833.562C832.283 834.805 831.682 835.572 831.08 836.34C831.908 836.898 832.736 837.455 833.563 838.013C833.67 838.761 833.777 839.51 833.953 840.632C833.928 843.151 834.294 845.464 833.597 847.393C832.993 849.067 831.186 850.306 829.91 851.737C828.864 850.28 827.414 848.956 826.884 847.331C826.345 845.676 826.712 843.727 826.595 841.465Z" fill="#71748A"/>
<path d="M360.519 844.9C358.42 844.478 356.532 844.391 354.97 843.633C353.838 843.083 353.137 841.644 352.781 840.218C361.13 839.918 368.942 840.003 376.753 840.087C380.653 841.048 384.553 842.009 388.221 843.362C384.609 843.977 381.229 844.199 377.85 844.421C372.19 844.596 366.53 844.771 360.519 844.9Z" fill="#BA7754"/>
<path d="M715.075 525.368C723.033 524.647 731.032 524.32 739.496 524.028C739.954 525.686 739.949 527.309 739.455 529.401C733.516 529.901 728.058 530.123 722.62 529.878C720.114 529.766 717.648 528.739 715.164 528.126C715.148 527.338 715.133 526.55 715.075 525.368Z" fill="#8D8AC9"/>
<path d="M293.602 842.895C297.434 843.444 301.266 843.993 305.399 844.76C304.413 845.601 303.126 846.761 301.838 846.761C293.282 846.765 284.723 846.61 276.175 846.248C275.066 846.201 274.02 844.669 272.862 843.439C272.779 843.052 272.993 842.615 273.496 842.438C280.532 842.473 287.067 842.684 293.602 842.895Z" fill="#BA7754"/>
<path d="M715.103 528.521C717.648 528.739 720.114 529.765 722.621 529.878C728.058 530.123 733.517 529.901 739.422 529.806C740.198 530.244 740.52 530.746 740.831 531.549C740.821 531.851 740.403 531.901 740.201 531.96C733.581 531.944 727.148 532.085 720.751 531.667C718.796 531.539 716.942 529.875 715.103 528.521Z" fill="#3B3B72"/>
<path d="M173.501 362.944C171.101 367.439 168.333 372.001 165.564 376.563C164.147 371.041 167.136 367.138 170.642 363.132C171.657 362.966 172.395 362.988 173.501 362.944Z" fill="#B16E52"/>
<path d="M378.077 844.809C381.229 844.199 384.608 843.977 388.415 843.633C388.887 844.055 388.932 844.599 388.986 845.549C385.432 845.703 381.869 845.45 378.077 844.809Z" fill="#D9DDEB"/>
<path d="M81.7441 599.161C82.101 599.541 82.3124 600.099 82.3178 600.818C81.9407 600.432 81.7697 599.885 81.7441 599.161Z" fill="#73758B"/>
<path d="M67.0059 463.004C67.4601 462.372 67.9144 461.739 68.6499 460.991C68.9532 461.101 68.9751 461.327 69.0161 461.895C68.5494 462.528 68.0636 462.819 67.2891 463.055C67.0003 463 67.0059 463.004 67.0059 463.004Z" fill="#D9DDEB"/>
<path d="M293.696 842.499C287.067 842.684 280.533 842.473 273.605 842.221C273.681 827.048 274.15 811.917 274.657 795.929C276.378 761.845 280.513 729.001 290.03 696.998C291.944 696.621 293.854 695.944 295.772 695.919C305.266 695.795 314.764 695.92 324.259 695.803C329.741 695.736 335.334 694.905 337.932 689.407C339.265 686.586 339.631 682.699 338.896 679.666C337.988 675.915 334.343 674.925 330.471 674.936C306.981 675 283.491 674.941 259.541 674.893C259.387 670.374 260.588 665.73 259.841 661.425C256.905 644.508 253.356 627.696 250.025 610.44C251.114 609.803 252.212 609.573 253.923 609.361C284.023 622.919 310.952 640.665 337.221 659.524C343.228 663.835 346.839 669.178 348.122 676.598C352.262 700.537 356.794 724.408 361.135 748.313C363.779 762.871 366.352 777.441 368.956 792.006C371.552 807.758 374.149 823.509 376.749 839.674C368.942 840.003 361.13 839.918 352.881 839.828C347.002 827.855 341.557 815.892 336.124 803.922C334.334 799.98 332.577 796.023 330.49 791.465C325.089 779.063 320.002 767.269 314.41 754.304C311.152 768.414 308.201 781.196 305.25 793.979C301.43 810.02 297.61 826.062 293.696 842.499Z" fill="#2C2B49"/>
<path d="M767.666 835.411C762.125 835.915 756.608 836.025 750.645 836.169C746.882 828.654 743.486 821.139 740.276 813.547C737.895 807.916 735.756 802.184 733.231 795.871C730.411 788.337 727.868 781.429 724.819 773.143C721.704 781.568 719.058 788.724 716.412 795.88C710.548 809.049 704.684 822.218 698.6 835.714C690.408 836.439 682.435 836.837 673.966 837.123C674.316 823.302 675.162 809.593 676.04 795.117C676.028 793.897 675.986 793.445 676.069 792.58C676.428 788.683 676.688 785.201 676.888 781.715C678.947 745.858 681.29 710.015 682.912 674.139C683.615 658.598 690.122 647.411 703.935 640.642C716.612 634.429 729.18 627.796 742.364 622.865C758.172 616.952 774.581 612.645 790.73 607.643C791.534 607.716 792.338 607.789 793.547 607.852C789.734 627.089 785.459 646.322 781.366 665.595C780.789 668.313 781.097 671.219 780.978 674.487C780.8 674.975 780.638 675.014 779.855 675.06C777.487 675.285 775.74 675.502 773.993 675.72C771.926 675.504 769.859 675.289 766.928 675.067C757.378 675.101 748.692 675.14 740.005 675.179C738.934 675.141 737.863 675.103 735.929 675.061C721.566 675.04 708.067 675.055 694.568 674.987C690.388 674.966 686.886 676.909 686.083 680.609C685.44 683.572 686.322 687.537 687.956 690.17C690.644 694.503 695.354 695.969 700.545 695.936C715.044 695.846 729.544 695.92 744.044 695.929C744.098 696.255 744.238 696.54 744.718 697.296C748.523 716.786 752.138 735.751 755.601 754.743C758.166 768.811 760.533 782.914 762.988 797.002C764.555 809.674 766.123 822.346 767.666 835.411Z" fill="#2C2B49"/>
<path d="M386.036 469.976C388.382 462.972 390.498 455.881 393.136 448.989C396.039 441.406 394.567 438.901 386.532 438.881C374.396 438.85 362.26 438.808 349.676 438.71C349.161 434.155 349.037 429.661 349.036 425.167C349.026 386.694 349.073 348.221 348.988 309.748C348.98 305.967 349.595 304.019 354.12 304.024C457.048 304.141 559.976 304.137 662.904 304.068C666.783 304.065 668.104 305.283 668.096 309.238C667.989 361.202 667.968 413.166 668.119 465.129C668.132 469.44 666.412 469.975 662.824 469.966C633.845 469.887 604.865 469.954 575.41 469.981C569.537 468.012 564.158 465.985 558.737 464.078C553.303 462.166 547.828 460.374 542.12 457.773C541.799 449.928 541.728 442.841 541.857 435.478C544.359 431.379 546.662 427.557 549.321 423.707C555.212 422.678 558.41 419.197 559.723 413.92C560.6 410.397 559.084 407.793 556.086 405.613C558.472 396.621 560.797 387.991 563.219 379.389C563.46 378.531 564.134 377.618 564.868 377.104C570.549 373.129 571.383 367.75 569.337 361.64C567.167 355.164 562.644 351.108 555.744 351.012C550.475 350.938 545.125 351.624 539.929 352.6C531.497 354.185 523.222 354.954 514.719 352.824C497.966 348.628 491.924 353.094 490.281 370.264C490.149 371.644 489.862 373.59 488.932 374.223C480.814 379.747 481.461 387.303 483.899 395.19C485.514 400.413 487.563 405.502 489.052 410.876C484.09 419.382 488.501 428.02 498.401 429.855C500.205 432.246 501.754 434.409 503.225 437.06C503.27 444.202 503.394 450.854 503.517 457.506C492.192 459.033 480.919 460.816 470.46 465.751C467.487 467.154 464.71 468.973 461.21 470.494C459.602 470.24 458.629 469.968 457.655 469.967C433.782 469.952 409.909 469.967 386.036 469.976ZM441.5 321.908C463.985 321.904 486.471 321.964 508.955 321.765C510.564 321.751 512.155 319.84 513.755 318.81C512.216 317.632 510.796 315.715 509.111 315.444C506.394 315.008 503.504 315.815 500.686 315.821C478.575 315.867 456.463 315.904 434.353 315.821C425.399 315.787 416.446 315.408 407.492 315.277C405.02 315.241 401.987 315.053 401.973 318.672C401.958 322.482 405.132 321.852 407.521 321.865C418.514 321.924 429.507 321.901 441.5 321.908ZM394.313 457.22C396.085 457.809 397.843 458.855 399.63 458.906C406.443 459.099 413.266 458.96 420.085 458.964C440.708 458.977 461.332 459.063 481.954 458.893C483.594 458.88 485.219 457.126 486.85 456.181C485.321 455.091 483.799 453.06 482.263 453.05C454.322 452.859 426.38 452.859 398.44 453.06C396.987 453.071 395.55 455.242 394.313 457.22ZM410.5 362.907C417.494 362.908 424.498 363.109 431.476 362.776C433.296 362.689 436.384 361.127 436.554 359.915C437.009 356.672 434.173 356.145 431.456 356.147C417.134 356.153 402.81 356.02 388.494 356.282C386.731 356.314 385.007 358.417 383.265 359.56C385.016 360.682 386.72 362.673 388.525 362.77C395.499 363.143 402.505 362.912 410.5 362.907ZM398.574 427.856C409.868 427.855 421.166 427.999 432.452 427.704C434.233 427.658 435.963 425.632 437.717 424.521C436.011 423.38 434.353 421.351 432.591 421.256C425.636 420.882 418.648 421.12 411.673 421.12C405.029 421.12 398.373 420.886 391.752 421.264C390.189 421.353 388.742 423.484 387.241 424.675C388.703 425.732 390.03 427.249 391.66 427.723C393.499 428.257 395.611 427.853 398.574 427.856ZM417.469 377.991C407.327 377.974 397.183 377.851 387.047 378.066C385.732 378.094 384.455 379.871 383.161 380.837C384.363 381.894 385.552 383.852 386.77 383.871C400.067 384.074 413.37 384.042 426.668 383.834C427.815 383.816 428.936 382.081 430.069 381.143C428.859 380.093 427.771 378.392 426.41 378.134C423.842 377.648 421.117 377.991 417.469 377.991ZM420.011 401.876C421.615 400.848 423.22 399.82 424.824 398.791C423.099 397.619 421.403 395.486 419.643 395.432C409.226 395.112 398.789 395.113 388.373 395.435C386.649 395.488 384.99 397.65 383.302 398.837C385.115 399.857 386.906 401.705 388.746 401.757C398.862 402.041 408.989 401.885 420.011 401.876ZM377.565 321.187C381.686 321.403 385.821 321.895 389.919 321.678C391.255 321.607 392.493 319.69 393.776 318.617C392.566 317.47 391.469 315.522 390.126 315.334C386.701 314.857 383.141 314.9 379.684 315.237C376.374 315.559 374.879 317.397 377.565 321.187ZM376.953 336.82C377.42 337.794 377.847 339.566 378.363 339.592C380.025 339.677 381.721 339.118 383.404 338.808C382.592 335.791 381.937 332.712 380.802 329.821C380.631 329.386 377.081 329.632 377.037 329.893C376.696 331.901 376.834 333.99 376.953 336.82ZM378.201 421.268C376.701 421.937 375.122 422.49 373.783 423.397C373.571 423.54 374.187 425.888 374.861 426.173C376.873 427.021 380.259 428.474 381.036 427.676C383.511 425.128 381.623 422.954 378.201 421.268Z" fill="#9C9BE2"/>
<path d="M585.639 729.924C576.305 732.799 566.731 733.078 557.041 733.033C523.042 732.875 489.04 733.187 455.045 732.795C448.058 732.714 441.097 730.368 433.489 728.771C415.825 719.24 406.421 705.112 405.713 685.607C404.65 656.366 403.879 627.114 402.703 597.878C402.266 587.007 404.436 577.09 411.028 567.92C415.144 563.942 419.062 560.252 422.981 556.563C434.222 550.541 446.308 549.655 458.829 549.754C497.319 550.06 535.816 550.135 574.304 549.744C589.673 549.588 602.305 554.441 612.685 566.176C613.125 566.866 613.301 567.32 613.854 568.198C622.604 580.409 624.199 593.628 622.807 607.616C620.355 632.248 617.646 656.869 615.945 681.557C614.44 703.392 605.865 720.14 585.639 729.924Z" fill="#4D4F64"/>
<path d="M422.982 556.076C419.062 560.253 415.144 563.942 410.588 567.786C409.289 567.883 408.627 567.776 407.965 567.775C357.667 567.755 307.368 567.74 257.07 567.749C255.753 567.749 254.435 568.007 253.118 568.144C253.066 557.058 253.013 545.972 253.46 534.402C258.132 533.953 262.305 533.987 266.478 534.02C269.242 537.081 271.856 540.294 274.796 543.174C284.031 552.224 298.299 551.778 305.89 538.441C308.412 536.493 310.8 534.843 313.793 533.324C327.521 533.534 340.644 533.633 353.767 533.687C377.888 533.786 402.009 533.859 426.13 533.942C425.081 541.158 424.033 548.373 422.982 556.076Z" fill="#71748A"/>
<path d="M426.384 533.696C402.009 533.859 377.888 533.786 353.767 533.687C340.644 533.633 327.522 533.534 314.096 533.191C315.219 532.392 316.645 531.399 318.072 531.397C329.618 531.377 341.165 531.644 352.709 531.552C354.539 531.537 356.358 530.16 358.478 528.808C358.938 527.321 359.102 526.438 359.267 525.555C363.862 526.672 365.462 523.617 366.774 520.163C371.31 508.223 375.845 496.281 381.127 484.17C403.604 484.041 425.335 484.081 447.066 484.122C442.412 493.614 437.377 502.943 433.235 512.653C430.394 519.311 428.793 526.499 426.384 533.696Z" fill="#EBEEF7"/>
<path d="M447.335 483.928C425.335 484.081 403.604 484.041 381.404 483.936C382.442 479.386 383.949 474.899 385.747 470.194C409.91 469.967 433.783 469.953 457.656 469.967C458.629 469.968 459.603 470.24 460.927 470.658C456.72 475.197 452.161 479.465 447.335 483.928Z" fill="#6F7188"/>
<path d="M503.906 457.559C503.394 450.854 503.271 444.202 503.558 437.217C516.719 442.754 529.292 442.714 541.657 435.754C541.728 442.841 541.799 449.928 541.899 457.479C535.497 457.568 529.067 456.951 522.632 456.887C516.523 456.827 510.408 457.347 503.906 457.559Z" fill="#B16E52"/>
<path d="M253.128 568.603C254.436 568.006 255.753 567.749 257.07 567.748C307.369 567.74 357.667 567.755 407.965 567.775C408.627 567.775 409.289 567.883 410.392 568.075C404.436 577.09 402.266 587.007 402.703 597.878C403.879 627.114 404.651 656.366 405.713 685.607C406.421 705.112 415.825 719.24 433.136 728.702C432.799 732.798 432.181 736.669 431.453 741.22C456.233 741.22 480.292 741.22 504.98 741.22C504.98 755.55 504.98 769.3 504.897 783.51C498.982 783.98 493.148 783.913 487.317 784.013C461.941 784.452 436.666 785.681 411.5 789.643C400.099 791.438 388.287 790.594 376.665 791.033C374.366 791.119 372.082 791.592 369.373 791.947C366.352 777.441 363.779 762.871 361.135 748.313C356.794 724.409 352.262 700.537 348.122 676.598C346.839 669.178 343.228 663.836 337.221 659.524C310.952 640.665 284.023 622.919 254.227 609.207C253.658 595.71 253.398 582.386 253.128 568.603Z" fill="#ECEFF7"/>
<path d="M266.346 533.679C262.305 533.987 258.132 533.953 253.495 533.931C252.689 528.277 252.346 522.612 252.004 516.946C252.394 516.785 252.784 516.623 253.174 516.461C257.521 522.087 261.868 527.713 266.346 533.679Z" fill="#DADEED"/>
<path d="M585.748 730.329C605.865 720.14 614.439 703.392 615.944 681.557C617.645 656.869 620.354 632.248 622.806 607.616C624.199 593.628 622.603 580.409 614.083 568.31C621.078 567.908 628.221 567.743 635.365 567.741C686.955 567.726 738.545 567.744 790.61 567.769C791.002 580.778 790.917 593.77 790.781 607.202C774.581 612.645 758.171 616.952 742.363 622.865C729.18 627.796 716.612 634.43 703.934 640.642C690.121 647.411 683.614 658.598 682.912 674.139C681.29 710.015 678.947 745.859 676.888 781.715C676.688 785.201 676.427 788.683 675.635 792.583C673.051 793.008 671.027 793.018 669.002 793.028C652.698 793.109 636.665 790.91 620.671 787.863C612.418 786.291 603.951 785.31 595.556 785.117C567.795 784.477 540.022 784.317 511.814 783.964C511.374 769.98 511.374 756.007 511.374 741.451C536.623 741.451 561.847 741.451 587.783 741.451C587.061 737.43 586.459 734.082 585.748 730.329Z" fill="#ECEFF7"/>
<path d="M742.156 517.739C734.979 518.019 727.978 517.887 720.982 518.036C717.284 518.116 715.121 516.8 714.013 513.136C707.8 492.574 701.486 472.042 695.125 451.525C693.911 447.609 694.994 445.966 699.192 445.995C714.356 446.1 729.521 446.127 744.684 446.008C747.822 445.983 749.107 447.395 749.914 450.132C753.256 461.471 756.71 472.777 760.213 484.469C756.099 492.719 751.934 500.616 747.67 508.459C746.007 511.517 744.12 514.453 742.156 517.739Z" fill="#9C9BE2"/>
<path d="M791.849 533.242C788.117 533.744 784.437 533.806 780.279 533.926C783.624 528.13 787.446 522.275 791.9 515.453C791.9 522.186 791.9 527.494 791.849 533.242Z" fill="#EBEEF7"/>
<path d="M669.002 793.425C671.027 793.018 673.052 793.008 675.51 792.996C675.986 793.445 676.028 793.897 675.963 794.675C674.061 795.819 672.266 796.637 669.715 797.799C669.492 796.557 669.247 795.189 669.002 793.425Z" fill="#D9DDEB"/>
<path d="M671.276 837.145C671.257 837.346 670.952 837.582 670.351 837.811C670.366 837.597 670.677 837.388 671.276 837.145Z" fill="#D9DDEB"/>
<path d="M289.563 696.928C280.512 729.001 276.378 761.845 274.563 795.521C257.798 797.275 241.164 798.586 224.529 799.885C215.468 800.592 206.406 801.28 196.93 801.96C196.413 794.967 196.228 787.991 196.222 781.015C196.198 754.905 196.233 728.795 196.246 702.685C196.246 700.91 196.246 699.135 196.246 696.858C227.645 696.858 258.371 696.858 289.563 696.928Z" fill="#ECF0F7"/>
<path d="M915.121 808.547C888.34 806.009 861.625 803.005 834.412 799.532C833.893 791.595 833.874 784.128 833.851 776.66C833.77 751.108 833.687 725.557 833.605 700.005C834.736 698.938 835.862 696.943 836.997 696.938C861.817 696.821 886.637 696.923 911.458 697C911.755 697.001 912.052 697.232 913.166 697.696C913.835 734.258 914.511 771.169 915.121 808.547Z" fill="#ECF0F7"/>
<path d="M763.457 797C760.532 782.914 758.165 768.811 755.601 754.743C752.138 735.751 748.522 716.786 744.934 697.402C759.807 696.931 774.719 696.85 789.631 696.811C800.573 696.782 811.516 696.722 822.455 696.917C823.937 696.943 825.394 698.378 826.86 700.043C826.833 722.666 826.835 744.405 826.776 766.145C826.745 777.422 826.608 788.698 826.518 799.975C825.067 799.655 823.624 799.107 822.162 799.052C811.375 798.646 800.584 798.362 789.797 797.992C781.172 797.696 772.549 797.332 763.457 797Z" fill="#ECF0F7"/>
<path d="M744.288 695.68C729.544 695.92 715.044 695.846 700.545 695.936C695.355 695.969 690.644 694.503 687.956 690.171C686.322 687.537 685.44 683.572 686.083 680.609C686.886 676.909 690.388 674.966 694.568 674.987C708.067 675.055 721.566 675.04 735.53 675.122C736.448 678.968 736.542 682.846 737.527 686.484C737.924 687.948 740.142 689.12 741.761 690.004C744.044 691.25 746.541 692.104 748.946 693.126C748.821 693.55 748.697 693.975 748.572 694.399C747.225 694.743 745.879 695.087 744.288 695.68Z" fill="#75778D"/>
<path d="M826.621 800.435C826.608 788.698 826.745 777.422 826.776 766.145C826.835 744.406 826.834 722.666 826.939 700.464C828.945 700.003 830.869 700.004 833.199 700.006C833.687 725.557 833.77 751.108 833.851 776.66C833.874 784.128 833.893 791.596 833.981 799.528C833.949 807.022 833.851 814.052 833.651 821.541C831.607 822.329 829.664 822.658 827.339 822.994C826.879 815.633 826.801 808.264 826.621 800.435Z" fill="#6F7188"/>
<path d="M740.004 675.602C748.692 675.14 757.379 675.101 766.53 675.127C765.328 679.827 761.255 681.886 757.109 682.759C753.353 683.55 749.257 682.665 745.309 682.615C740.823 682.558 739.274 680.234 740.004 675.602Z" fill="#75778D"/>
<path d="M774.001 676.121C775.74 675.502 777.487 675.285 779.615 675.13C779.342 676.716 778.69 678.24 778.038 679.764C776.695 678.683 775.352 677.602 774.001 676.121Z" fill="#75778D"/>
<path d="M757.645 693.76C756.458 694.131 755.597 694.38 754.737 694.629C754.634 694.051 754.531 693.473 754.429 692.895C757.018 692.583 759.608 692.271 762.197 691.959C762.254 692.519 762.311 693.079 762.368 693.639C760.903 693.639 759.437 693.639 757.645 693.76Z" fill="#75778D"/>
<path d="M833.664 837.617C832.735 837.455 831.908 836.898 831.08 836.34C831.682 835.573 832.283 834.805 833.221 834.012C833.627 835.066 833.696 836.144 833.664 837.617Z" fill="#73758B"/>
<path d="M63.9482 464.956C61.9607 466.969 59.9731 468.982 57.4757 471.511C56.2143 465.212 59.0923 464.445 63.5685 464.97C63.9805 464.985 63.9482 464.956 63.9482 464.956Z" fill="#D9DDEB"/>
<path d="M66.0498 444.551C66.5872 442.115 67.4428 439.643 68.2984 437.171C68.8551 437.41 69.4119 437.65 69.9687 437.89C68.7685 440.098 67.5683 442.307 66.0498 444.551Z" fill="#8D8AC9"/>
<path d="M64.861 447.488C64.1442 449.571 63.4141 451.326 62.6839 453.08C62.2548 452.805 61.8256 452.53 61.3965 452.254C62.5469 450.556 63.6973 448.857 64.861 447.488Z" fill="#8D8AC9"/>
<path d="M41.0354 430.963C41.6199 431.666 42.2043 432.369 42.7888 433.072C42.5149 433.259 42.2411 433.446 41.9673 433.633C41.6292 432.985 41.2912 432.337 40.9746 431.346C40.9961 431.003 41.0354 430.963 41.0354 430.963Z" fill="#8D8AC9"/>
<path d="M73.5664 430.426C73.667 429.741 73.9682 429.24 74.2695 428.74C74.4644 428.935 74.8532 429.262 74.8244 429.305C74.5096 429.766 74.1295 430.182 73.5664 430.426Z" fill="#8D8AC9"/>
<path d="M39.0225 428.978C39.6552 429.432 40.2879 429.886 40.9782 430.651C41.0357 430.963 40.9964 431.003 40.9756 431.024C40.3299 430.577 39.705 430.109 39.0416 429.319C39.003 428.997 39.0225 428.978 39.0225 428.978Z" fill="#8D8AC9"/>
<path d="M43.6152 435.542C44.0471 435.657 44.3143 435.934 44.56 436.228C44.5676 436.237 44.351 436.433 44.239 436.542C43.9751 436.263 43.7113 435.984 43.6152 435.542Z" fill="#8D8AC9"/>
<path d="M36.0286 424.972C36.6603 425.433 37.292 425.894 37.9605 426.679C37.9974 427.003 37.9767 427.023 37.9767 427.023C37.3432 426.565 36.7097 426.106 36.0402 425.321C36.0042 424.996 36.0286 424.972 36.0286 424.972Z" fill="#8D8AC9"/>
<path d="M72.047 433.038C71.8714 433.592 71.6959 434.147 71.2589 434.851C70.9975 435 70.957 434.965 70.957 434.965C71.1303 434.409 71.3035 433.853 71.7398 433.148C72.0028 432.999 72.047 433.038 72.047 433.038Z" fill="#8D8AC9"/>
<path d="M38.0087 426.995C38.3424 427.453 38.6649 427.919 39.0051 428.682C39.0229 428.978 39.0035 428.997 38.9927 429.005C38.6601 428.546 38.3382 428.08 37.9966 427.319C37.9767 427.024 37.9974 427.003 38.0087 426.995Z" fill="#8D8AC9"/>
<path d="M63.9923 465.003C64.4793 464.701 64.9549 464.381 65.7146 464.031C65.9989 464.002 65.9629 463.972 65.9629 463.972C65.4913 464.289 65.0197 464.606 64.2484 464.939C63.9486 464.956 63.9809 464.985 63.9923 465.003Z" fill="#D9DDEB"/>
<path d="M35.9908 425.006C35.6622 424.542 35.3469 424.068 35.016 423.297C35.0003 423 34.999 423.001 34.999 423.001C35.328 423.461 35.657 423.922 36.0073 424.677C36.0286 424.972 36.0042 424.996 35.9908 425.006Z" fill="#8D8AC9"/>
<path d="M71.9834 432.977C72.0847 432.939 72.2055 432.923 72.1867 432.972C72.0471 433.038 72.0029 432.999 71.9834 432.977Z" fill="#8D8AC9"/>
<path d="M66.9969 462.997C66.8256 463.284 66.6572 463.573 66.2256 463.918C65.9624 463.972 65.9983 464.002 66.0137 464.019C66.1799 463.734 66.3309 463.431 66.7436 463.066C67.0052 463.005 66.9997 463 66.9969 462.997Z" fill="#D9DDEB"/>
<path d="M71.0154 435.02C70.9137 435.058 70.7944 435.075 70.8161 435.029C70.9571 434.965 70.9976 435 71.0154 435.02Z" fill="#8D8AC9"/>
<path d="M35.0013 422.999C34.8859 422.863 34.7696 422.727 34.6533 422.592C34.7353 422.639 34.8173 422.687 34.9492 422.868C34.9991 423.001 35.0013 422.999 35.0013 422.999Z" fill="#8D8AC9"/>
<path d="M305.702 793.982C308.201 781.196 311.152 768.414 314.41 754.304C320.002 767.269 325.089 779.063 330.238 791.207C328.241 792.368 326.213 793.767 324.117 793.878C318.144 794.195 312.144 793.987 305.702 793.982Z" fill="#EBEEF7"/>
<path d="M380.414 461.356C373.8 478.821 367.277 495.909 360.961 513.072C359.684 516.541 357.87 518.052 354.058 518.004C340.122 517.828 326.182 517.934 311.425 517.934C311.939 515.355 312.033 513.932 312.507 512.648C320.221 491.747 328.011 470.873 335.7 449.961C336.635 447.42 337.568 445.659 340.824 445.694C354.632 445.842 368.442 445.739 382.251 445.769C383.354 445.772 384.455 446.098 386.155 446.369C384.207 451.482 382.392 456.243 380.414 461.356Z" fill="#9B9BE0"/>
<path d="M358.872 525.34C359.102 526.438 358.938 527.321 358.6 528.404C355.512 529.043 352.602 529.818 349.682 529.864C339.61 530.021 329.534 529.924 318.738 528.732C320.75 527.156 322.751 524.243 324.775 524.227C336.006 524.137 347.243 524.751 358.872 525.34Z" fill="#8D8AC9"/>
<path d="M716.859 795.872C719.058 788.724 721.704 781.568 724.819 773.144C727.868 781.429 730.41 788.337 732.974 795.623C727.766 795.955 722.537 795.909 716.859 795.872Z" fill="#EBEEF7"/>
<path d="M541.857 435.478C529.292 442.714 516.719 442.754 503.636 436.728C501.755 434.409 500.206 432.246 498.333 429.514C495.146 422.847 492.282 416.749 489.418 410.65C487.564 405.502 485.514 400.413 483.9 395.191C481.462 387.303 480.815 379.747 488.933 374.223C489.863 373.59 490.149 371.644 490.281 370.264C491.925 353.094 497.967 348.628 514.719 352.824C523.222 354.954 531.498 354.185 539.929 352.6C545.125 351.624 550.476 350.938 555.744 351.012C562.644 351.108 567.168 355.164 569.337 361.64C571.384 367.75 570.549 373.13 564.869 377.104C564.134 377.618 563.461 378.531 563.219 379.389C560.798 387.991 558.472 396.621 555.838 405.87C553.36 412.243 551.163 417.989 548.966 423.734C546.663 427.557 544.36 431.38 541.857 435.478Z" fill="#2B2A49"/>
<path d="M441 321.908C429.507 321.901 418.513 321.924 407.521 321.865C405.132 321.852 401.958 322.482 401.973 318.672C401.987 315.053 405.02 315.241 407.492 315.277C416.446 315.408 425.399 315.787 434.352 315.821C456.463 315.903 478.575 315.867 500.686 315.82C503.504 315.815 506.394 315.008 509.111 315.444C510.795 315.715 512.216 317.632 513.755 318.81C512.155 319.84 510.564 321.751 508.955 321.765C486.471 321.964 463.985 321.904 441 321.908Z" fill="#F6F8FD"/>
<path d="M394.21 456.814C395.551 455.242 396.988 453.071 398.44 453.06C426.38 452.859 454.323 452.859 482.263 453.05C483.799 453.06 485.322 455.091 486.85 456.181C485.219 457.126 483.594 458.88 481.955 458.893C461.333 459.063 440.709 458.977 420.085 458.964C413.266 458.96 406.443 459.099 399.63 458.906C397.843 458.855 396.085 457.809 394.21 456.814Z" fill="#F6F8FD"/>
<path d="M410 362.906C402.506 362.911 395.5 363.143 388.526 362.77C386.72 362.673 385.016 360.681 383.266 359.56C385.008 358.417 386.732 356.314 388.494 356.282C402.811 356.02 417.135 356.153 431.456 356.147C434.173 356.145 437.009 356.672 436.554 359.915C436.384 361.127 433.297 362.689 431.477 362.776C424.498 363.109 417.494 362.908 410 362.906Z" fill="#EDF0F8"/>
<path d="M398.09 427.856C395.612 427.853 393.5 428.257 391.661 427.723C390.031 427.249 388.703 425.732 387.242 424.676C388.743 423.484 390.19 421.353 391.753 421.264C398.374 420.886 405.03 421.121 411.674 421.12C418.649 421.12 425.637 420.882 432.592 421.256C434.354 421.351 436.012 423.38 437.717 424.521C435.964 425.632 434.234 427.658 432.453 427.704C421.166 427.999 409.869 427.855 398.09 427.856Z" fill="#EDF0F8"/>
<path d="M417.963 377.991C421.117 377.991 423.842 377.648 426.41 378.134C427.771 378.392 428.859 380.094 430.07 381.143C428.936 382.081 427.815 383.816 426.668 383.834C413.37 384.042 400.067 384.074 386.77 383.871C385.552 383.852 384.363 381.894 383.161 380.837C384.455 379.871 385.732 378.094 387.047 378.066C397.184 377.851 407.328 377.974 417.963 377.991Z" fill="#F6F8FD"/>
<path d="M419.562 401.878C408.989 401.885 398.862 402.041 388.746 401.757C386.906 401.705 385.115 399.856 383.302 398.837C384.99 397.65 386.649 395.488 388.373 395.435C398.79 395.113 409.226 395.112 419.643 395.432C421.403 395.486 423.099 397.619 424.824 398.791C423.22 399.82 421.615 400.848 419.562 401.878Z" fill="#F6F8FD"/>
<path d="M377.221 320.957C374.879 317.397 376.374 315.56 379.684 315.237C383.141 314.9 386.701 314.857 390.126 315.334C391.469 315.522 392.566 317.47 393.776 318.617C392.493 319.69 391.255 321.608 389.919 321.678C385.821 321.895 381.686 321.403 377.221 320.957Z" fill="#EDF0F8"/>
<path d="M489.052 410.876C492.282 416.748 495.146 422.847 498.077 429.286C488.501 428.021 484.09 419.382 489.052 410.876Z" fill="#B16E52"/>
<path d="M549.321 423.707C551.163 417.988 553.36 412.243 555.804 406.24C559.085 407.793 560.601 410.397 559.724 413.92C558.41 419.196 555.212 422.678 549.321 423.707Z" fill="#B16E52"/>
<path d="M376.888 336.437C376.834 333.99 376.696 331.901 377.037 329.893C377.082 329.632 380.632 329.386 380.803 329.822C381.937 332.712 382.593 335.791 383.404 338.808C381.721 339.119 380.025 339.677 378.363 339.592C377.847 339.566 377.42 337.794 376.888 336.437Z" fill="#EDF0F8"/>
<path d="M378.544 421.427C381.623 422.954 383.511 425.128 381.035 427.676C380.259 428.474 376.873 427.021 374.861 426.173C374.187 425.888 373.571 423.54 373.783 423.397C375.122 422.49 376.701 421.937 378.544 421.427Z" fill="#F6F8FD"/>
</g>
<defs>
<clipPath id="clip0_115_526">
<rect width="1024" height="1024" fill="white"/>
</clipPath>
</defs>
</svg>
