<svg width="1024" height="1024" viewBox="0 0 1024 1024" fill="none" xmlns="http://www.w3.org/2000/svg">
<g clip-path="url(#clip0_117_5)">
<path d="M0 0H1024V1024H0V0Z" fill="#FEFEFE"/>
<path d="M142 175H900L908 179L915 187L917 191V712L911 722L905 726L899 728H878V840L873 849L867 854L974 855L973 857H47V855H176L211 854L209 851V778L214 773H284L289 777V851L287 855L351 854L350 853V847L355 838L360 834L362 833H418V728H192L190 732L174 748L164 755L153 760L144 762H137L136 767H134L132 761L103 754L90 749L84 744L79 734L72 697L65 676L59 666L50 656L45 652L43 651V649L57 644H79L90 650L100 659L119 672L125 676L126 193L131 183L140 176L142 175Z" fill="#D6DAF3"/>
<path d="M142 175H900L908 179L915 187L917 191V712L911 722L905 726L899 728H878V840L873 849L867 854L974 855L973 857H47V855H176L211 854L209 851V778L214 773H284L289 777V851L287 855L351 854L350 853V847L355 838L360 834L362 833H418V728H192L190 732L174 748L164 755L153 760L144 762H137L136 767H134L132 761L103 754L90 749L84 744L79 734L72 697L65 676L59 666L50 656L45 652L43 651V649L57 644H79L90 650L100 659L119 672L125 676L126 193L131 183L140 176L142 175ZM162 214L158 218V644H717V619L718 618V598L705 597L696 593L690 588L686 582L683 573V562L687 552L692 546L702 540L705 539H720L732 545L736 549H760L768 542L775 539H790L799 543L806 549L859 550L868 554H871V219L866 214H162Z" fill="#888CB7"/>
<path d="M162 214H866L871 219V554L866 553L856 549L812 548V282L815 279V262L811 260H574L572 262V276L577 281L602 282V617H580V332H309V303L217 304L213 308L212 616L214 617H212V619H717V644H158V218L162 214Z" fill="#DDE0F7"/>
<path d="M705 538H720L732 544L736 548H760L768 541L775 538H790L799 542L806 548L859 549L869 554L874 559L878 566V840L873 849L867 854L974 855L973 857H47V855H176L211 854L209 851V778L214 773H284L289 777V851L287 855L351 854L350 853V847L355 838L360 834L362 833H419V728H602V833H655L661 837L665 842L667 848V853L666 854H729L724 849L720 844L718 840V619H212V618H718V598H705L696 594L689 588L685 582L682 573V562L686 552L692 545L702 539L705 538Z" fill="#41476E"/>
<path d="M574 259H811L816 262V279L813 282L812 548H856V549H806L798 542L790 539H775L765 544L760 549H736L729 543L720 539H705L695 544L689 549L684 559L683 562V573L687 584L693 591L702 596L705 597L718 598V618H212V617H602V282H577L572 278L571 276V262L574 259Z" fill="#C8CCE7"/>
<path d="M250 444H550L552 445V447H554L555 449V589L551 594L548 595H251L246 590V448L250 444Z" fill="#FEFEFE"/>
<path d="M728 607H868V804H728V607Z" fill="#CBD0EB"/>
<path d="M602 400H811V525H602V400Z" fill="#8985DB"/>
<path d="M580 282H602V617H580V332H309V305L313 303H573L580 304V282Z" fill="#F1F3FD"/>
<path d="M419 728H602V833H420V737L425 738L441 746L452 751L479 759L496 763L502 764H525L552 757L567 752L582 745L598 738H601V729H419V728Z" fill="#4F547F"/>
<path d="M308 349H439L443 352V410L440 414L307 415L306 416H237L233 412V354L236 351L307 350L308 349Z" fill="#8985DB"/>
<path d="M602 728H718L719 840L724 848L726 852L731 854V855H665L666 848L663 840L657 835L655 834L602 833V728Z" fill="#FEFEFE"/>
<path d="M391 472H513V575H391V472Z" fill="#E0E1F7"/>
<path d="M419 729H601V738L589 743L568 752L560 755L545 760L525 765H502L486 762L462 755L452 752L437 745L420 737V833H655L661 837L665 842L667 848V853L665 856H353V854L350 853V847L355 838L360 834L362 833H419V729Z" fill="#424870"/>
<path d="M602 525H812V548H856V549H806L798 542L790 539H775L765 544L760 549H736L729 543L720 539H705L695 544L689 549L684 559L683 562V573L687 584L693 591L702 596L705 597L718 598V618H212V617H602V525Z" fill="#C9CEEA"/>
<path d="M760 641H837V770H759V744L760 641Z" fill="#DDE0F7"/>
<path d="M283 472H370L372 474V570L370 572H283L281 570V474L283 472Z" fill="#DDDFF8"/>
<path d="M133 764L134 767H188L190 769V779L187 795L182 830L178 852L176 856H105L101 853L96 818L92 793L90 782V769L91 767H133V764Z" fill="#DCDFF7"/>
<path d="M214 773H284L289 777V851L288 856H208L211 854L209 851V778L214 773Z" fill="#41476F"/>
<path d="M574 259H811L816 262V279L813 282H577L572 278L571 276V262L574 259Z" fill="#7072A2"/>
<path d="M236 351H308L309 354V413L306 416H237L233 412V354L236 351Z" fill="#41476F"/>
<path d="M57 644H79L90 650L100 659L116 670L117 673L115 674L111 691L108 697L103 692L92 681L95 686L86 685L98 688L108 699L113 707L118 711L124 702L129 691L130 694L126 703L120 712L119 715L122 724L130 748L132 756V760L125 759L103 754L90 749L84 744L79 734L72 697L65 676L59 666L50 656L45 652L43 651V649L57 644Z" fill="#8986D0"/>
<path d="M194 653H216L225 656L226 664L223 672L219 684H217L216 691L212 699L208 701L195 697H182L173 700L163 710L167 708L165 713L154 725L148 734L146 738L156 736H167L171 737V739H155L145 743L142 744L145 734L151 724L158 715H156L155 711L154 696L153 690H152L150 674L147 676L149 672L158 664L172 657L184 654L194 653Z" fill="#8D8BD0"/>
<path d="M629 538H643L653 542L661 549L666 559V575L662 584L655 592L649 596L641 598H629L615 591L609 583L605 573V563L608 555L612 549L620 542L629 538Z" fill="#42476F"/>
<path d="M391 472H513V575H391V472ZM397 478V569H507V478H397Z" fill="#C0BEE8"/>
<path d="M230 792H270L273 794V835L271 837H230L227 834V794L230 792Z" fill="#8785D7"/>
<path d="M651 325H791V381H779V335H651V325Z" fill="#7073A4"/>
<path d="M760 745H837V769H760V745Z" fill="#FEFEFE"/>
<path d="M250 366H289L291 371L290 397L288 398H254L253 394L249 393V367L250 366Z" fill="#FAFAFC"/>
<path d="M352 854L353 856L665 855L732 854V856L863 855L866 854L974 855L973 857H47V855H288L352 854Z" fill="#636989"/>
<path d="M322 374H430L432 376V383L431 384H322L321 383V376L322 374Z" fill="#A2A1E9"/>
<path d="M631 492H778V499H631V492Z" fill="#C8C6F7"/>
<path d="M602 400H610V525H602V400Z" fill="#6B6C9F"/>
<path d="M211 308H212V615L210 620H209V309L211 308Z" fill="#ECEEFD"/>
<path d="M631 425H662L663 426V452L662 453H631L630 452V426L631 425Z" fill="#BEBFF4"/>
<path d="M631 477H745V484H631V477Z" fill="#C8CAF9"/>
<path d="M782 697H813L817 699V715L814 717H782L780 715V699L782 697Z" fill="#8C89DC"/>
<path d="M621 551H649V575L648 576H622L621 575V551Z" fill="#CBCCEF"/>
<path d="M295 515H357V526H295V515Z" fill="#9E9FE2"/>
<path d="M699 551H727L726 555L721 561L718 568L717 575H699L698 574V552L699 551Z" fill="#CCCDF0"/>
<path d="M414 496H423L429 501L431 505L430 514L426 519L423 521H415L410 518L407 513V504L411 498L414 496Z" fill="#A9A9E6"/>
<path d="M321 366H414V371H322L321 366Z" fill="#A3A2EA"/>
<path d="M296 500H357V507H296V500Z" fill="#A09FE2"/>
<path d="M405 547H474V553H405V547Z" fill="#BEBDEA"/>
<path d="M405 535H484V540H405V535Z" fill="#BDBBE8"/>
<path d="M295 543H357V549H295V543Z" fill="#9E9DDF"/>
<path d="M775 538H790L799 542L805 547L804 549H760L765 543L775 538Z" fill="#505682"/>
<path d="M784 569H810L813 572V577L811 579H784L782 577V571L784 569Z" fill="#F3F4F6"/>
<path d="M236 798H263L266 800V806L265 807H237L235 805V799L236 798Z" fill="#B9B8F4"/>
<path d="M289 367L291 371L290 397L288 398H254L253 394L250 393L286 394V370H288L289 367Z" fill="#B1B3D2"/>
<path d="M236 820H264L266 822V827L265 828H235L234 827V821L236 820Z" fill="#B6B4F2"/>
<path d="M510 662L517 663L521 667V674L516 679H509L505 675L504 668L508 663L510 662Z" fill="#F7F7FB"/>
<path d="M864 854L974 855L973 857H864V854Z" fill="#6A7190"/>
<path d="M236 809H265V815L264 816H236L235 815V810L236 809Z" fill="#B7B5F2"/>
<path d="M792 826H800L804 830V836L799 841L792 840L789 836V830L792 826Z" fill="#F5F6F8"/>
<path d="M250 393L286 394L284 397H281L280 396L278 398H254L253 394L250 393Z" fill="#B9BCD8"/>
<path d="M114 676H115L114 687L110 697L111 701L114 706L113 708L105 697L98 689L86 686L85 684L94 685L91 682L92 680L105 693L107 696L110 691L114 676Z" fill="#7776BE"/>
<path d="M151 724H153L151 729L146 738L156 736H167L171 737V739H155L145 743L142 744L145 734L151 724Z" fill="#9593DA"/>
<path d="M129 691L130 694L126 703L120 712L119 717L117 716V714L106 713L100 711L103 710L115 712L114 708L118 711L124 702L129 691Z" fill="#7C7BC2"/>
<path d="M140 747L141 749L136 767H134L130 752L131 748L133 757L137 758L138 751L140 747Z" fill="#6967AD"/>
<path d="M184 693H193V695L184 696L174 699L169 704L167 703L171 697L178 694L184 693Z" fill="#9897DD"/>
<path d="M166 708V711L159 720L153 725L152 723L161 711L166 708Z" fill="#8687C9"/>
<path d="M194 713H202L198 715L181 719L179 720H173L175 718L194 713Z" fill="#908ED5"/>
<path d="M131 735H132L134 753L135 757H133L129 744L130 737L131 735Z" fill="#8A88D1"/>
<path d="M151 724H153L151 729L146 738L148 739L147 742L142 744L145 734L151 724Z" fill="#908FD3"/>
<path d="M285 367L289 368L288 370H286V394H285V367Z" fill="#E7E9F5"/>
<path d="M267 394H286L284 397H281L280 396V397H274V395H267V394Z" fill="#BFC1DA"/>
<path d="M172 700V703L168 710H165H162L172 700Z" fill="#6A6AAB"/>
<path d="M864 854L869 855L884 856V857H864V854Z" fill="#6C7494"/>
<path d="M133 759H136L137 764L136 767H134L132 760L133 759Z" fill="#8685BC"/>
<path d="M289 367L291 371L290 372L289 384H288L287 370L289 367Z" fill="#C5C6E0"/>
<path d="M160 720L161 722H169L165 724H157L160 720Z" fill="#7979BF"/>
<path d="M146 722L149 723L148 728L147 730H145L146 722Z" fill="#9897D9"/>
<path d="M132 745H133L134 753L135 757H133L132 755V745Z" fill="#8D8BD4"/>
<path d="M178 717H183L179 720H173L175 718L178 717Z" fill="#9593DA"/>
<path d="M136 179V182L132 186L130 185L134 180L136 179Z" fill="#9498B8"/>
</g>
<defs>
<clipPath id="clip0_117_5">
<rect width="1024" height="1024" fill="white"/>
</clipPath>
</defs>
</svg>
