<svg width="1024" height="1024" viewBox="0 0 1024 1024" fill="none" xmlns="http://www.w3.org/2000/svg">
<g clip-path="url(#clip0_115_624)">
<path d="M543 1025C362 1025 181.5 1025 1 1025C1 683.667 1 342.333 1 1C342.333 1 683.667 1 1025 1C1025 342.333 1025 683.667 1025 1025C864.5 1025 704 1025 543 1025ZM349.933 820.004C354.232 820.07 358.531 820.137 362.738 820.942C355.668 848.558 348.599 876.174 341.354 904.473C357.712 904.767 373.946 905.06 390.994 905.642C405.808 906.016 420.62 906.556 435.436 906.737C530.018 907.892 624.592 907.707 719.148 904.844C720.385 904.807 721.614 904.525 723.268 904.3C718.534 869.904 711.339 836.437 704.158 802.586C704.158 802.586 704.201 802.138 704.818 801.882C706.187 800.946 707.656 800.128 708.907 799.056C716.568 792.487 721.919 784.874 720.005 773.211C720.144 769.99 720.996 766.607 720.306 763.576C716.08 745.011 711.505 726.527 707.969 707.879C709.969 707.851 711.968 707.798 713.967 707.798C772.961 707.803 831.954 707.829 890.948 707.814C909.269 707.81 923.685 695.597 924.606 677.718C925.477 660.78 924.687 643.756 924.792 625.876C924.806 490.742 924.679 355.608 924.969 220.475C925.019 197.402 908.51 181.509 885.971 181.574C715.513 182.072 545.054 181.856 374.595 181.863C304.445 181.866 234.296 181.898 164.146 181.826C156.42 181.818 149.281 183.317 142.911 187.818C131.711 195.731 127.536 206.879 127.539 220.21C127.565 354.01 127.518 487.811 127.514 621.611C127.514 623.426 127.795 625.24 127.753 627.969C127.769 643.455 127.762 658.942 127.827 674.428C127.836 676.577 127.962 678.777 128.434 680.863C132.166 697.373 145.117 707.767 162.193 707.781C216.48 707.827 270.766 707.78 325.053 707.793C330.708 707.794 336.363 707.954 341.974 708.857C340.929 714.878 340.01 720.925 338.813 726.916C336.616 737.904 334.254 748.858 331.275 759.983C328.302 762.094 325.208 764.055 322.384 766.35C316.923 770.787 312.965 776.334 312.259 783.488C311.574 790.417 311.257 797.401 311.168 804.367C311.062 812.682 317.779 819.77 326.112 820.025C333.739 820.259 341.382 819.938 349.933 820.004Z" fill="white"/>
<path d="M703.982 802.999C711.339 836.437 718.534 869.904 723.267 904.3C721.614 904.525 720.384 904.807 719.148 904.844C624.592 907.707 530.018 907.892 435.436 906.737C420.62 906.556 405.808 906.016 390.337 905.158C382.002 902.936 381.907 902.935 382.02 894.526C382.295 873.91 382.322 853.282 383.149 832.686C383.545 822.832 384.527 812.782 386.994 803.276C393.023 780.049 398.633 756.773 402.177 733.024C404.735 715.873 407.556 698.759 409.931 681.583C410.908 674.515 413.21 668.486 420.281 665.969C426.272 663.837 432.581 661.258 438.764 661.216C493.238 660.846 547.716 661 602.193 660.998C603.692 660.998 605.198 661.07 606.689 660.958C619.011 660.029 631.251 658.384 643.682 660.819C649.919 662.041 654.938 664.829 657.717 669.926C661.498 676.86 664.35 684.385 666.861 691.903C669.688 700.368 671.837 709.07 674.025 717.734C677.788 732.638 681.273 747.611 685.028 762.517C687.616 772.792 690.208 783.081 693.303 793.209C694.84 798.24 697.821 802.584 703.982 802.999Z" fill="#444660"/>
<path d="M127.944 627.054C127.795 625.24 127.514 623.426 127.514 621.611C127.518 487.811 127.565 354.01 127.539 220.21C127.536 206.879 131.711 195.731 142.911 187.818C149.281 183.317 156.42 181.818 164.146 181.826C234.296 181.898 304.445 181.866 374.595 181.863C545.054 181.856 715.513 182.072 885.97 181.574C908.51 181.509 925.019 197.402 924.969 220.475C924.679 355.608 924.806 490.742 924.267 626.344C843.174 626.829 762.607 626.846 681.827 626.582C679.105 618.87 676.596 611.438 674.32 604.026C674.552 604.044 675.019 604.035 675.481 604.051C680.902 604.361 685.863 604.93 690.821 604.908C744.208 604.674 797.594 604.346 851.425 604.053C861.977 604.102 872.084 604.093 882.189 604.205C886.268 604.25 887.114 602.075 887.078 598.477C886.944 584.979 887.02 571.479 887.018 557.981C887 451.656 886.983 345.332 886.991 238.542C887.025 236.078 887.04 234.079 887.041 232.079C887.048 223.918 887.046 223.924 878.812 223.924C768.721 223.924 658.631 223.923 548.541 223.923C449.8 223.923 351.059 223.965 252.317 223.885C234.354 223.87 216.391 223.162 198.427 223.133C184.296 223.11 170.164 223.735 156.032 223.86C152.228 223.894 151.023 225.668 151.032 229.042C151.085 250.367 151.125 271.692 151.122 293.482C151.111 301.959 151.147 309.97 151.128 318.435C151.11 321.932 151.145 324.975 151.138 328.484C151.08 417.643 151.06 506.336 151.087 595.03C151.087 596.993 151.233 599.134 152.029 600.862C152.644 602.196 154.353 603.875 155.631 603.923C167.403 604.363 179.187 604.481 191.432 604.778C248.387 604.879 304.876 604.895 361.314 605.338C359.542 612.792 357.822 619.819 355.628 626.834C323.693 626.841 292.232 626.85 260.772 626.884C216.496 626.931 172.22 626.997 127.944 627.054ZM526.714 206.358C530.183 211.521 533.367 212.765 537.71 210.653C542.204 208.468 544.982 203.575 543.808 199.916C542.239 195.023 537.537 192.165 532.541 193.068C527.351 194.005 525.441 197.891 526.714 206.358Z" fill="#2B2D49"/>
<path d="M682.039 626.863C762.606 626.846 843.174 626.829 924.184 626.791C924.686 643.756 925.477 660.78 924.605 677.718C923.685 695.597 909.268 707.81 890.948 707.814C831.954 707.829 772.96 707.803 713.966 707.798C711.967 707.798 709.968 707.851 707.434 707.572C700.607 686.56 694.344 665.848 688.005 645.159C686.126 639.027 684.034 632.96 682.039 626.863Z" fill="#8889A7"/>
<path d="M127.849 627.511C172.22 626.997 216.496 626.931 260.772 626.884C292.232 626.85 323.693 626.841 355.614 627.287C354.387 637.485 352.713 647.22 351.007 656.949C348.021 673.981 345.015 691.01 342.017 708.04C336.362 707.954 330.708 707.794 325.053 707.793C270.766 707.78 216.48 707.827 162.193 707.781C145.117 707.766 132.166 697.373 128.434 680.863C127.962 678.777 127.836 676.576 127.827 674.428C127.762 658.942 127.769 643.455 127.849 627.511Z" fill="#898AA8"/>
<path d="M704.071 802.792C697.821 802.584 694.841 798.24 693.303 793.209C690.209 783.081 687.617 772.792 685.028 762.517C681.273 747.611 677.788 732.638 674.025 717.734C671.838 709.07 669.689 700.367 666.862 691.903C664.35 684.385 661.499 676.86 657.718 669.926C654.939 664.829 649.92 662.04 643.683 660.819C631.252 658.384 619.012 660.029 606.69 660.958C605.199 661.07 603.693 660.998 602.194 660.998C547.717 661 493.239 660.846 438.765 661.216C432.581 661.258 426.273 663.837 420.282 665.969C413.211 668.486 410.909 674.515 409.931 681.583C407.557 698.759 404.736 715.873 402.177 733.024C398.634 756.773 393.023 780.049 386.995 803.276C384.527 812.782 383.546 822.832 383.15 832.686C382.323 853.281 382.296 873.91 382.02 894.526C381.908 902.935 382.003 902.936 389.93 905.013C373.946 905.06 357.712 904.767 341.354 904.473C348.599 876.174 355.669 848.558 362.898 820.185C364.348 814.003 365.637 808.579 367.01 802.769C367.648 800.643 368.351 798.934 368.736 797.156C376.518 761.162 384.481 725.204 391.92 689.139C395.283 672.832 398.622 656.806 413.275 645.862C420.356 643.027 426.881 639.235 433.894 637.751C466.659 630.82 499.84 626.874 533.344 626.111C567.588 625.331 601.332 630.105 635.354 635.894C637.016 636.363 638.292 636.748 639.592 637.012C661.171 641.394 673.713 654.059 677.951 675.692C684.307 708.136 690.627 740.587 697.123 773.002C698.316 778.955 700.275 784.754 701.876 790.998C702.647 794.961 703.424 798.55 704.201 802.139C704.201 802.139 704.158 802.586 704.071 802.792Z" fill="#3C3E57"/>
<path d="M412.943 645.968C398.622 656.806 395.283 672.832 391.92 689.139C384.481 725.204 376.518 761.162 368.736 797.156C368.351 798.934 367.648 800.643 366.618 802.731C363.78 802.418 361.166 802.199 359.1 801.019C351.012 796.398 343.097 791.474 335.048 786.333C334.256 784.895 333.729 783.57 332.78 782.712C328.372 778.728 328.767 774.144 330.416 769.051C331.365 766.116 331.475 762.91 331.962 759.826C334.255 748.858 336.616 737.904 338.813 726.916C340.011 720.925 340.929 714.879 341.996 708.448C345.015 691.01 348.021 673.981 351.008 656.949C352.713 647.22 354.388 637.485 356.09 627.3C357.823 619.819 359.542 612.792 361.517 605.049C362.183 601.782 362.594 599.23 363.185 596.382C364.534 592.371 365.702 588.656 367.337 584.958C382.916 584.306 395.801 589.133 402.667 603.062C406.892 611.634 408.557 621.527 410.899 630.945C412.112 635.82 412.295 640.952 412.943 645.968Z" fill="#6B55E6"/>
<path d="M701.88 790.623C700.274 784.753 698.315 778.955 697.122 773.002C690.626 740.587 684.306 708.136 677.95 675.692C673.713 654.059 661.17 641.394 639.591 637.012C638.291 636.747 637.015 636.362 635.358 635.471C635.326 631.624 635.698 628.344 635.993 625.056C637.275 610.801 640.43 597.037 646.379 583.947C649.978 576.026 653.319 567.989 656.919 560.344C660.041 567.453 663.02 574.222 665.997 581.375C668.015 586.629 670.035 591.498 672.023 596.747C672.689 599.421 673.388 601.714 674.087 604.007C676.596 611.438 679.105 618.87 681.826 626.582C684.034 632.96 686.126 639.026 688.005 645.159C694.344 665.848 700.607 686.56 706.972 707.639C711.504 726.526 716.08 745.011 720.306 763.575C720.996 766.607 720.144 769.99 719.658 773.799C713.501 779.799 707.69 785.211 701.88 790.623Z" fill="#6B57E6"/>
<path d="M331.618 759.904C331.474 762.91 331.365 766.116 330.415 769.051C328.767 774.144 328.372 778.728 332.779 782.712C333.728 783.57 334.256 784.894 334.765 786.683C334.497 792.122 333.91 796.949 334.502 801.627C335.62 810.451 341.924 815.569 349.019 819.862C341.383 819.938 333.739 820.259 326.112 820.025C317.78 819.77 311.062 812.682 311.168 804.367C311.257 797.401 311.574 790.417 312.259 783.488C312.965 776.334 316.923 770.787 322.384 766.35C325.208 764.055 328.303 762.094 331.618 759.904Z" fill="#8282A1"/>
<path d="M349.476 819.933C341.924 815.569 335.62 810.451 334.502 801.627C333.91 796.949 334.497 792.122 334.835 787.012C343.097 791.474 351.011 796.398 359.1 801.019C361.165 802.199 363.78 802.418 366.535 803.117C365.637 808.579 364.347 814.003 362.944 819.815C358.531 820.137 354.232 820.07 349.476 819.933Z" fill="#9B6E60"/>
<path d="M701.875 790.998C707.69 785.211 713.501 779.799 719.582 774.211C721.919 784.874 716.568 792.487 708.906 799.056C707.655 800.128 706.186 800.946 704.509 802.01C703.423 798.55 702.647 794.961 701.875 790.998Z" fill="#9B6E60"/>
<path d="M151.169 293.017C151.124 271.692 151.085 250.367 151.031 229.042C151.023 225.668 152.228 223.894 156.031 223.86C170.164 223.735 184.295 223.11 198.426 223.133C216.39 223.162 234.353 223.87 252.317 223.885C351.058 223.965 449.799 223.922 548.54 223.923C658.631 223.923 768.721 223.924 878.812 223.924C887.046 223.924 887.048 223.918 887.041 232.079C887.039 234.078 887.024 236.078 886.633 238.583C884.857 241.577 882.591 243.953 882.251 246.578C881.502 252.351 880.637 257.88 877.648 263.054C876.495 265.048 876.083 267.857 876.326 270.191C876.871 275.422 878.273 280.561 878.891 285.789C879.602 291.795 877.492 297.143 873.99 301.53C873.852 285.029 873.758 268.995 873.75 252.526C874.1 240.171 873.99 240.076 862.175 240.076C635.471 240.065 408.768 240.052 182.064 240.03C169.514 240.029 169.331 240.189 169.929 253.471C169.758 271.622 169.637 289.307 169.158 306.981C165.732 306.487 166.057 304.541 166.309 302.146C166.464 300.673 165.806 298.53 164.728 297.668C163.499 296.684 160.621 295.928 159.856 296.619C158.664 297.696 158.465 300.05 158.203 301.913C158.047 303.023 158.575 304.229 158.795 305.391C158.161 305.564 157.527 305.736 156.893 305.909C156.262 303.492 155.438 301.105 155.052 298.649C154.645 296.056 155.145 293.064 151.169 293.017Z" fill="#575874"/>
<path d="M151.122 293.482C155.145 293.064 154.645 296.056 155.052 298.649C155.438 301.105 156.262 303.492 156.893 305.909C157.527 305.736 158.162 305.564 158.796 305.391C158.575 304.229 158.047 303.023 158.203 301.913C158.465 300.05 158.664 297.696 159.857 296.619C160.622 295.928 163.499 296.684 164.728 297.668C165.806 298.53 166.465 300.673 166.31 302.146C166.058 304.541 165.732 306.487 169.271 307.433C169.642 311.601 169.542 315.305 169.098 319.012C167.861 319.814 166.968 320.615 166.075 321.416C167.202 322.273 168.328 323.131 169.581 324.44C169.751 325.555 169.835 326.219 169.835 326.882C169.835 382.292 169.832 437.702 169.807 493.112C169.806 494.429 169.557 495.746 169.104 497.195C169.001 500.197 169.216 503.067 169.559 506.391C169.689 536.238 169.69 565.629 169.362 595.099C166.327 598.055 165.811 600.531 170.686 601.034C176.059 601.588 181.477 601.708 186.876 601.995C188.786 602.096 191.123 601.487 190.968 604.693C179.187 604.481 167.403 604.363 155.631 603.923C154.353 603.875 152.644 602.196 152.029 600.862C151.233 599.134 151.087 596.993 151.087 595.03C151.06 506.336 151.081 417.643 151.507 328.479C156.704 328.653 159.659 326.765 160.82 321.855C161.675 318.242 160.419 315.476 157.396 314.478C154.911 315.879 153.047 316.93 151.183 317.981C151.147 309.97 151.111 301.959 151.122 293.482Z" fill="#5B5C78"/>
<path d="M874.034 301.997C877.492 297.143 879.602 291.795 878.891 285.789C878.272 280.561 876.871 275.422 876.326 270.191C876.083 267.857 876.495 265.048 877.648 263.054C880.637 257.88 881.501 252.351 882.251 246.578C882.591 243.953 884.857 241.577 886.607 239.048C886.983 345.332 887 451.656 887.017 557.981C887.02 571.479 886.944 584.979 887.078 598.477C887.114 602.075 886.267 604.25 882.188 604.205C872.083 604.093 861.977 604.102 851.519 603.652C855.291 602.828 859.413 602.373 863.543 602.011C867.182 601.692 870.52 601.057 871.347 596.311C872.435 593.195 873.784 590.265 873.792 587.331C873.932 537.193 873.894 487.054 873.919 436.915C873.942 391.943 873.995 346.97 874.034 301.997Z" fill="#5C5D7A"/>
<path d="M870.985 596.496C870.52 601.057 867.182 601.692 863.544 602.011C859.414 602.373 855.292 602.828 851.073 603.643C797.594 604.346 744.208 604.674 690.822 604.908C685.863 604.93 680.902 604.361 675.433 603.668C674.622 601.016 674.319 598.76 674.477 596.419C717.676 596.301 760.414 596.236 803.152 596.252C825.763 596.261 848.374 596.41 870.985 596.496Z" fill="#53536F"/>
<path d="M191.433 604.778C191.124 601.487 188.786 602.096 186.877 601.995C181.477 601.708 176.059 601.589 170.686 601.034C165.811 600.531 166.327 598.055 169.685 595.413C172.463 595.837 174.586 596.152 176.714 596.191C187.147 596.38 197.581 596.497 208.042 596.983C208.6 597.864 209.078 598.804 209.666 598.879C218.355 599.987 227.036 601.343 235.766 601.871C241.515 602.219 247.336 601.124 253.13 601.045C264.294 600.891 275.464 601.127 286.628 600.959C295.421 600.828 304.208 600.087 312.999 600.073C320.956 600.061 328.91 600.787 336.871 600.956C341.787 601.06 346.824 601.308 351.595 600.39C354.748 599.783 359.362 601.906 361.343 596.867C362.117 596.771 362.561 596.725 363.004 596.678C362.594 599.23 362.183 601.782 361.569 604.622C304.877 604.895 248.387 604.879 191.433 604.778Z" fill="#575874"/>
<path d="M526.541 205.995C525.442 197.891 527.351 194.005 532.541 193.068C537.537 192.165 542.239 195.023 543.808 199.916C544.982 203.575 542.204 208.468 537.711 210.653C533.368 212.765 530.183 211.521 526.541 205.995ZM533.726 207.041C537.274 207.226 539.892 205.577 539.601 202.063C539.443 200.155 537.344 197.33 535.649 196.933C533.989 196.544 530.917 198.216 529.91 199.866C528.052 202.912 529.676 205.512 533.726 207.041Z" fill="#2D2D42"/>
<path d="M151.129 318.435C153.047 316.93 154.912 315.879 157.396 314.478C160.42 315.476 161.675 318.242 160.821 321.855C159.66 326.765 156.705 328.653 151.55 328.014C151.146 324.975 151.11 321.932 151.129 318.435Z" fill="#575874"/>
<path d="M674.016 596.505C674.319 598.76 674.622 601.016 674.972 603.653C675.02 604.035 674.553 604.044 674.32 604.026C673.389 601.714 672.69 599.421 672.354 596.696C673.15 596.344 673.583 596.424 674.016 596.505Z" fill="#5C5D7A"/>
<path d="M656.777 560.004C653.32 567.989 649.979 576.026 646.38 583.947C640.431 597.037 637.275 610.801 635.994 625.056C635.699 628.344 635.327 631.624 634.985 635.331C601.332 630.105 567.588 625.331 533.344 626.111C499.84 626.874 466.659 630.82 433.894 637.751C426.881 639.235 420.356 643.027 413.275 645.861C412.295 640.952 412.112 635.82 410.9 630.945C408.558 621.527 406.892 611.634 402.667 603.062C395.801 589.133 382.916 584.306 367.362 584.568C366.965 583.116 367.01 582.071 367.301 580.768C370.03 573.82 372.16 566.973 375.061 560.47C385.658 536.716 402.353 519.444 427.88 511.796C444.26 506.889 460.611 501.888 477.307 497.06C481.621 498.806 485.498 500.798 489.608 501.965C505.054 506.349 520.927 505.821 536.598 504.364C545.861 503.503 554.894 500.178 564.373 498.09C583.442 505.822 602.436 512.836 620.816 521.2C637.924 528.985 649.957 542.28 656.777 560.004Z" fill="#715DF2"/>
<path d="M367.053 581.026C367.009 582.071 366.964 583.116 366.894 584.551C365.701 588.656 364.533 592.371 363.184 596.382C362.56 596.725 362.117 596.771 360.899 596.829C355.98 596.641 351.836 596.272 347.691 596.268C303.112 596.222 258.532 596.229 213.952 596.248C211.973 596.248 209.993 596.503 208.014 596.639C197.58 596.497 187.146 596.38 176.714 596.191C174.585 596.152 172.462 595.837 170.014 595.335C169.69 565.629 169.688 536.238 169.695 505.965C169.61 502.41 169.516 499.737 169.423 497.063C169.556 495.746 169.806 494.429 169.806 493.112C169.831 437.702 169.835 382.292 169.835 326.882C169.834 326.219 169.751 325.555 169.709 324.037C169.622 321.791 169.532 320.401 169.441 319.01C169.542 315.305 169.642 311.601 169.629 307.444C169.637 289.307 169.758 271.622 170.399 253.469C248.225 253 325.53 253.003 402.835 252.998C559.778 252.988 716.721 252.973 873.664 252.961C873.758 268.995 873.852 285.029 873.99 301.53C873.995 346.97 873.942 391.943 873.919 436.915C873.894 487.054 873.932 537.193 873.792 587.331C873.784 590.265 872.435 593.195 871.347 596.311C848.373 596.41 825.763 596.261 803.152 596.252C760.413 596.236 717.675 596.301 674.476 596.419C673.582 596.424 673.149 596.344 672.386 596.316C670.036 591.498 668.015 586.629 666.462 581.352C707.173 580.585 747.417 580.227 787.669 579.868C787.669 476.955 787.669 374.777 787.669 272.627C786.872 272.374 786.411 272.1 785.95 272.1C779.291 272.099 772.631 272.134 765.507 272.115C627.433 272.062 489.824 272.055 352.214 272.062C350.62 272.062 349.027 272.248 347.055 272.37C347.055 274.7 347.055 276.507 347.055 278.314C347.058 360.28 347.06 442.246 347.063 524.212C347.064 540.705 347.065 557.198 347.073 573.692C347.076 580.938 347.084 580.925 354.561 580.935C358.725 580.94 362.889 580.994 367.053 581.026ZM825.988 450.997C825.988 450.997 825.933 451.033 826.058 451.663C827.258 452.817 828.458 453.97 829.951 455.758C831.651 457.912 834.249 459.821 834.913 462.257C842.626 490.555 854.423 517.824 856.347 547.596C858.177 526.381 854.737 506.046 847.79 486.053C841.701 468.528 839.96 471.292 854.093 457.413C861.462 450.177 864.78 441.188 865.134 430.194C865.119 426.425 863.104 425.157 860.021 426.977C857.405 428.521 855.294 430.921 852.574 433.234C852.329 433.455 852.151 433.721 851.387 434.238C845.15 441.738 841.025 449.992 841.813 460.733C838.945 463.206 839.375 460 839.118 458.962C837.198 451.215 837.055 443.395 839.553 435.781C843.156 424.795 843.63 413.578 842.972 401.243C842.93 387.785 842.81 374.333 839.783 360.792C837.606 362.708 835.805 364.721 835.263 367.029C832.656 378.135 830.108 389.272 828.142 400.504C827.386 404.824 828.23 409.424 828.259 414.622C828.35 415.34 828.441 416.059 828.26 417.345C828.623 418.019 828.986 418.693 829.496 420.092C829.674 421.064 829.852 422.036 829.533 423.364C829.92 424.324 830.308 425.285 830.802 426.977C831.204 428.65 831.606 430.323 831.492 432.426C832.051 433.913 832.611 435.4 832.965 437.68C832.646 443.187 832.327 448.693 831.42 454.063C830.932 453.715 830.443 453.367 830.005 452.099C829.798 429.636 816.987 400.91 805.952 399.455C805.648 414.782 809.886 428.536 818.936 441.53C819.291 441.705 819.645 441.88 819.995 441.992C819.995 441.992 819.934 442.007 819.796 442.731C821.518 444.841 823.241 446.951 824.997 449.006C824.997 449.006 824.934 449.016 824.704 449.642C825.126 450.115 825.547 450.587 825.988 450.997ZM822.874 281.915C822.338 289.097 826.967 294.009 835.818 296.145C840.266 297.219 843.053 295.573 844.362 291.552C845.003 289.58 844.703 287.302 844.893 284.441C842.962 279.095 839.177 275.641 833.874 273.831C827.458 271.642 823.967 274.017 822.874 281.915ZM242.5 532.033C234.682 532.046 226.863 531.993 219.048 532.155C218.067 532.176 217.11 533.333 216.142 533.963C217.084 534.621 217.971 535.392 218.991 535.891C219.529 536.154 220.3 535.944 220.965 535.944C245.083 535.943 269.202 535.943 293.321 535.936C294.483 535.935 295.728 536.116 296.779 535.757C297.516 535.506 298.208 534.552 298.469 533.763C298.571 533.453 297.518 532.416 296.868 532.273C295.591 531.993 294.228 532.067 292.901 532.066C276.434 532.047 259.967 532.041 242.5 532.033ZM218.103 286.014C215.259 286.985 215.683 288.358 217.819 289.589C218.598 290.038 219.759 289.905 220.746 289.906C245.198 289.926 269.649 289.929 294.1 289.935C294.266 289.935 294.474 289.998 294.593 289.923C295.665 289.242 296.723 288.538 297.785 287.84C296.802 287.232 295.887 286.387 294.817 286.084C293.739 285.778 292.508 286.006 291.343 286.005C267.225 285.998 243.106 285.992 218.103 286.014ZM287.277 346.919C264.89 346.916 242.502 346.881 220.114 346.99C218.84 346.996 217.571 348.17 216.299 348.801C217.583 349.521 218.864 350.862 220.152 350.869C243.089 350.996 266.027 350.997 288.964 350.876C290.344 350.869 291.717 349.615 293.093 348.941C292.893 348.378 292.693 347.815 292.493 347.251C291.064 347.141 289.635 347.031 287.277 346.919ZM242.5 435.997C255.814 435.993 269.129 436.046 282.442 435.902C283.884 435.886 285.314 434.726 286.749 434.096C285.245 433.432 283.755 432.228 282.237 432.192C273.92 431.99 265.596 432.068 257.274 432.064C245.291 432.059 233.307 431.99 221.326 432.156C219.635 432.18 217.961 433.378 216.279 434.032C217.862 434.689 219.429 435.862 221.031 435.912C227.849 436.121 234.676 435.998 242.5 435.997ZM261.5 413.031C248.016 413.039 234.531 412.982 221.048 413.138C219.336 413.158 217.637 414.293 215.932 414.911C216.109 415.418 216.287 415.925 216.464 416.432C217.073 416.614 217.681 416.954 218.29 416.955C239.265 416.977 260.24 416.999 281.214 416.873C282.327 416.867 283.432 415.577 284.541 414.885C283.353 414.271 282.18 413.162 280.975 413.126C274.821 412.941 268.659 413.034 261.5 413.031ZM259.5 473.908C266.325 473.909 273.152 473.984 279.974 473.827C280.975 473.804 281.95 472.678 282.938 472.063C282.022 471.384 281.166 470.589 280.165 470.074C279.637 469.802 278.858 470.015 278.192 470.014C259.048 469.999 239.904 469.973 220.76 469.99C219.242 469.991 217.725 470.293 216.208 470.455C216.098 471.114 215.988 471.774 215.878 472.433C217.6 472.915 219.318 473.796 221.044 473.814C233.528 473.943 246.014 473.898 259.5 473.908ZM241.559 554.117C247.212 554.115 252.864 554.112 258.516 554.11C264.335 554.108 270.153 554.105 275.972 554.107C289.886 554.114 289.886 554.115 292.215 551.607C266.54 551.607 241.422 551.607 215.939 551.607C216.877 556.069 220.077 554.816 222.339 554.797C228.422 554.745 234.502 554.366 241.559 554.117ZM271.499 369.095C277.962 369.095 284.426 369.095 290.889 369.095C290.955 368.388 291.022 367.681 291.089 366.974C290.06 366.617 289.033 365.953 288.004 365.949C265.06 365.879 242.115 365.861 219.171 365.933C218.125 365.936 217.081 366.872 216.036 367.373C216.167 367.947 216.299 368.521 216.43 369.095C234.453 369.095 252.476 369.095 271.499 369.095ZM261.447 491.918C262.941 491.918 264.484 492.153 265.917 491.856C267.617 491.503 269.221 490.691 270.866 490.078C269.298 489.384 267.735 488.103 266.159 488.087C251.217 487.934 236.272 487.927 221.33 488.087C219.593 488.106 217.869 489.392 216.139 490.091C217.963 490.698 219.781 491.81 221.612 491.832C234.561 491.987 247.513 491.917 261.447 491.918ZM227.524 454.063C246.496 454.063 265.468 454.063 285.477 454.063C281.729 450.202 219.566 449.933 216.142 454.063C219.606 454.063 223.071 454.063 227.524 454.063ZM266.499 326.041C272.588 325.494 278.902 327.156 284.835 325.079C284.805 324.599 284.774 324.119 284.744 323.639C262.219 323.639 239.694 323.639 217.169 323.639C217.148 324.428 217.128 325.218 217.108 326.007C233.237 326.069 249.369 326.01 266.499 326.041ZM196.289 291.999C193.17 292.12 189.312 291.196 187.175 292.706C185.578 293.836 186.221 298.108 185.825 300.976C185.673 302.07 185.405 303.147 185.034 305.021C187.389 305.021 189.316 305.081 191.238 305.006C194.108 304.894 198.832 305.6 199.456 304.33C200.771 301.656 200.141 297.907 199.855 294.639C199.772 293.692 198.142 292.882 196.289 291.999ZM225.585 304.052C222.483 304.882 218.104 302.077 215.87 307.236C217.065 307.614 217.668 307.97 218.272 307.972C232.253 308.008 246.235 308.054 260.215 307.921C261.336 307.911 262.445 306.621 263.559 305.925C262.379 305.305 261.206 304.16 260.018 304.145C248.868 304.004 237.716 304.056 225.585 304.052ZM199.999 376.624C199.704 375.222 199.519 372.641 199.096 372.601C195.182 372.233 191.179 371.976 187.326 372.539C186.601 372.645 186.126 376.522 186.087 378.67C186.05 380.677 186.519 384.352 187.158 384.44C191.036 384.974 195.097 385.067 198.921 384.359C199.674 384.219 199.659 379.936 199.999 376.624ZM804.771 273.882C799.371 273.644 795.778 276.053 794.264 280.926C792.615 286.236 794.481 292.21 798.561 294.683C802.196 296.886 806.463 296.075 809.255 292.651C814.181 286.608 812.465 278.148 804.771 273.882ZM254.133 385.095C242.653 385.085 231.173 385.024 219.695 385.143C218.513 385.155 217.343 386.239 216.167 386.826C217.361 387.567 218.544 388.928 219.752 388.951C229.398 389.135 239.049 389.067 248.698 389.074C251.967 389.077 255.235 389.075 258.503 389.075C258.714 388.427 258.926 387.779 259.137 387.132C257.771 386.453 256.404 385.775 254.133 385.095ZM255.111 395.005C243.291 395 231.47 394.946 219.652 395.072C218.521 395.084 217.401 396.222 216.277 396.837C217.243 397.538 218.202 398.839 219.175 398.849C231.493 398.978 243.813 398.96 256.131 398.831C256.992 398.822 257.84 397.647 258.694 397.014C257.797 396.346 256.9 395.678 255.111 395.005ZM199.002 523.579C198.546 521.786 198.09 519.993 197.634 518.2C196.257 519.538 194.88 520.876 193.431 522.284C193.117 521.065 192.763 519.688 192.413 518.327C188.986 517.813 185.577 517.398 186.13 522.097C186.47 524.981 183.195 529.984 190.062 530.053C198.882 530.141 198.881 530.314 199.002 523.579ZM232.501 520.046C228.195 520.051 223.883 519.93 219.588 520.146C218.407 520.205 217.277 521.272 216.124 521.877C217.19 522.576 218.246 523.865 219.323 523.883C228.76 524.042 238.202 524.041 247.639 523.884C248.712 523.867 249.765 522.596 250.828 521.906C249.689 521.294 248.571 520.206 247.407 520.153C242.779 519.942 238.137 520.055 232.501 520.046ZM191.472 339.1C189.897 338.789 188.321 338.479 186.756 338.17C184.506 348.036 185.154 349.007 193.69 349.003C200.048 349 201.181 347.689 199.898 341.434C199.718 340.554 198.626 339.192 198.012 339.222C196.999 339.27 195.523 340.051 195.148 340.916C194.326 342.814 194.071 344.957 193.489 347.404C193.026 344.435 192.634 341.921 191.472 339.1ZM230.461 502.043C226.485 502.051 222.503 501.954 218.536 502.152C217.723 502.192 216.964 503.333 216.18 503.966C216.937 504.633 217.682 505.861 218.454 505.878C225.409 506.038 232.37 506.044 239.327 505.917C240.14 505.902 240.935 504.814 241.738 504.223C240.956 503.522 240.229 502.308 239.381 502.215C236.759 501.929 234.091 502.07 230.461 502.043ZM223.624 275.06C221.961 275.102 220.257 274.948 218.655 275.281C218.009 275.415 217.314 276.563 217.167 277.348C217.087 277.774 218.107 278.867 218.643 278.875C225.658 278.98 232.676 278.945 239.694 278.945C239.838 278.268 239.983 277.59 240.128 276.912C238.78 276.302 237.461 275.256 236.08 275.166C232.265 274.917 228.423 275.067 223.624 275.06ZM240.581 513.341C240.236 512.588 239.884 511.174 239.547 511.178C231.847 511.256 224.149 511.486 216.452 511.732C216.381 511.734 216.329 512.329 216.038 513.85C224.111 513.85 231.989 513.85 240.581 513.341ZM189.638 440.671C193.629 438.533 193.498 434.669 192.555 431.356C192.172 430.01 188.9 429.488 186.124 428.215C186.394 433.527 184.23 437.747 189.638 440.671ZM218.946 269.062C225.939 268.711 233.05 269.966 240.17 268.32C239.786 267.213 239.689 266.644 239.574 266.641C232.539 266.414 225.503 266.219 218.467 266.167C218.34 266.167 218.201 267.944 218.946 269.062ZM187.12 267.949C189.91 267.947 192.71 268.083 195.481 267.858C196.331 267.789 197.1 266.731 197.906 266.126C197.185 265.44 196.5 264.215 195.736 264.163C192.635 263.955 189.422 263.661 186.418 264.252C183.416 264.843 183.464 266.542 187.12 267.949ZM290.56 416.298C292.98 416.507 295.401 416.851 297.82 416.838C298.494 416.834 299.318 415.872 299.761 415.156C299.954 414.844 299.518 413.867 299.099 413.5C297.411 412.023 291.794 413.371 290.56 416.298ZM297.844 326.032C300.885 325.929 303.925 325.826 306.966 325.723C306.956 324.859 306.946 323.995 306.936 323.131C303.354 323.131 299.773 323.131 296.191 323.131C296.447 324.087 296.703 325.043 297.844 326.032ZM289.501 453.275C293.025 454.411 296.456 454.572 299.691 452.325C296.177 451.125 292.686 449.336 289.501 453.275Z" fill="#A7A8C6"/>
<path d="M765.972 272.161C772.632 272.134 779.291 272.099 785.951 272.1C786.412 272.1 786.873 272.374 787.67 272.627C787.67 374.777 787.67 476.955 787.67 579.868C747.418 580.227 707.174 580.585 666.464 580.967C663.021 574.222 660.042 567.453 656.92 560.345C649.957 542.28 637.924 528.985 620.816 521.2C602.436 512.836 583.442 505.822 564.214 497.765C562.227 497.128 560.719 496.684 559.263 496.817C556.167 497.101 553.098 497.684 549.968 497.734C549.345 489.577 548.772 481.83 548.65 474.066C559.267 474.044 569.432 474.035 579.597 474.032C589.595 474.029 599.594 474.032 609.592 474.031C619.757 474.031 629.922 474.06 640.087 474.02C649.988 473.982 659.906 474.199 669.794 473.885C669.775 472.96 669.755 472.035 669.735 471.11C632.483 471.044 595.231 470.978 557.985 470.538C558.627 468.936 558.941 467.195 559.95 466.564C569.2 460.779 576.374 452.736 583.583 444.802C590.019 437.72 595.841 430.082 602.117 422.849C607.951 416.127 614.026 409.615 620.465 403.004C636.39 402.997 651.846 403.059 667.301 402.9C668.835 402.884 670.355 401.517 671.881 400.777C670.376 400.186 668.876 399.099 667.364 399.081C654.237 398.925 641.107 398.962 628.022 398.598C629.385 396.832 630.45 394.93 632.068 394.067C639.294 390.213 646.678 386.655 654.473 382.984C660.453 382.978 665.966 382.978 671.745 382.978C671.849 380.905 671.921 379.468 672.051 377.675C674.26 376.208 676.309 374.792 678.578 374.032C697.968 367.532 717.228 360.873 733.011 347.037C744.002 337.402 753.429 326.674 759.146 313.008C764.626 299.911 766.571 286.257 765.972 272.161Z" fill="#D8DDF0"/>
<path d="M873.751 252.526C716.722 252.973 559.779 252.988 402.836 252.998C325.531 253.003 248.226 253 170.45 253.003C169.331 240.189 169.515 240.029 182.065 240.031C408.768 240.052 635.472 240.065 862.176 240.076C873.991 240.076 874.101 240.171 873.751 252.526ZM248.117 247.961C249.607 247.318 251.097 246.674 252.587 246.03C251.968 245.373 251.367 244.167 250.727 244.146C245.92 243.986 241.104 244.059 236.292 244.059C236.138 244.724 235.983 245.39 235.829 246.056C237.15 246.694 238.423 247.717 239.801 247.886C242.24 248.186 244.744 247.967 248.117 247.961ZM177.617 246.92C178.781 247.357 180.175 248.393 181.042 248.059C181.866 247.741 182.708 245.865 182.493 244.909C182.284 243.98 180.745 243.35 179.79 242.588C178.983 243.814 178.175 245.04 177.617 246.92ZM201.852 248.519C203.07 247.277 204.287 246.036 205.505 244.795C204.31 244.253 203.116 243.711 201.921 243.169C201.717 244.801 201.512 246.432 201.852 248.519ZM214.529 246.83C213.895 245.588 213.34 244.29 212.53 243.176C212.428 243.035 210.384 243.759 210.299 244.26C210.098 245.454 210.532 246.754 210.709 248.011C211.836 247.82 212.964 247.628 214.529 246.83Z" fill="#B3B5D0"/>
<path d="M169.099 319.012C169.532 320.401 169.622 321.791 169.584 323.585C168.328 323.131 167.202 322.273 166.075 321.416C166.968 320.615 167.862 319.814 169.099 319.012Z" fill="#575874"/>
<path d="M169.104 497.195C169.517 499.737 169.61 502.41 169.567 505.51C169.215 503.067 169 500.197 169.104 497.195Z" fill="#575874"/>
<path d="M208.042 596.982C209.994 596.503 211.973 596.248 213.952 596.248C258.532 596.229 303.112 596.222 347.691 596.268C351.836 596.272 355.981 596.641 360.568 596.878C359.362 601.906 354.748 599.783 351.595 600.39C346.824 601.308 341.787 601.06 336.87 600.956C328.91 600.787 320.955 600.061 312.999 600.073C304.208 600.087 295.421 600.828 286.627 600.959C275.463 601.127 264.294 600.891 253.129 601.045C247.336 601.124 241.515 602.219 235.766 601.871C227.036 601.343 218.355 599.987 209.666 598.879C209.077 598.804 208.599 597.864 208.042 596.982Z" fill="#53536F"/>
<path d="M533.337 206.972C529.675 205.512 528.051 202.912 529.91 199.866C530.916 198.216 533.988 196.544 535.648 196.933C537.343 197.33 539.442 200.155 539.601 202.063C539.892 205.577 537.273 207.226 533.337 206.972Z" fill="#8282A1"/>
<path d="M765.507 272.115C766.57 286.257 764.625 299.911 759.146 313.008C753.428 326.674 744.002 337.402 733.011 347.037C717.228 360.873 697.968 367.532 678.578 374.032C676.309 374.792 674.259 376.208 671.623 377.671C668.683 378.344 666.23 378.944 663.775 378.949C637.631 379.003 611.488 378.963 585.271 378.489C585.276 372.716 585.353 367.402 585.87 362.066C593.476 362.03 600.642 362.01 607.808 362.002C614.974 361.994 622.141 361.997 629.307 361.997C636.64 361.996 643.98 362.19 651.304 361.94C658.112 361.707 665.079 363.036 671.756 361.138C671.737 360.418 671.717 359.698 671.697 358.978C643.062 358.978 614.427 358.978 585.703 358.518C585.674 352.381 585.734 346.704 586.276 341.003C613.062 340.981 639.367 340.983 665.672 340.984C666.837 340.984 668.091 341.249 669.142 340.901C670.164 340.563 670.976 339.595 671.88 338.904C670.904 338.28 669.999 337.413 668.931 337.102C667.856 336.789 666.62 337.026 665.455 337.026C638.651 337.013 611.847 337.001 584.882 336.659C580.224 320.496 569.221 310.892 554.153 306.082C537.232 300.68 520.133 300.959 502.962 307.515C499.523 299.878 494.455 293.586 487.052 289.599C465.719 278.109 430.212 282.397 419.141 316.121C417.134 322.236 416.32 328.743 414.549 335.033C402.401 333.982 396.624 336.801 393.32 345.645C390.517 353.148 390.376 360.871 392.693 368.554C394.248 373.711 397.422 377.225 403.047 378.3C402.728 379.649 402.42 380.598 402.15 381.558C395.308 405.863 397.992 428.332 414.908 448.096C415.86 449.208 416.444 450.636 417.132 452.281C418.257 454.768 418.957 457.516 420.724 458.912C429.952 466.202 439.391 473.23 448.93 480.109C450.102 480.954 452.896 481.124 453.94 480.317C461.101 474.777 467.996 468.893 475.312 463.007C481.029 459.091 486.411 455.287 492.092 451.822C493.626 467.529 493.061 482.634 485.498 496.787C483.617 496.265 482.114 495.345 480.589 495.308C479.398 495.279 478.181 496.347 476.975 496.928C460.611 501.888 444.259 506.889 427.879 511.796C402.352 519.444 385.658 536.716 375.06 560.47C372.159 566.973 370.03 573.82 367.3 580.768C362.89 580.994 358.726 580.94 354.562 580.935C347.085 580.925 347.077 580.938 347.073 573.692C347.066 557.198 347.064 540.705 347.064 524.212C347.06 442.246 347.058 360.28 347.056 278.314C347.056 276.507 347.056 274.7 347.056 272.37C349.027 272.248 350.621 272.062 352.215 272.062C489.824 272.055 627.434 272.062 765.507 272.115Z" fill="#E2E6F6"/>
<path d="M477.306 497.06C478.18 496.347 479.398 495.279 480.589 495.308C482.114 495.345 483.617 496.265 485.722 497.102C501.071 502.49 516.331 502.63 531.608 501.52C537.794 501.07 543.884 499.308 550.018 498.144C553.097 497.684 556.166 497.101 559.262 496.817C560.718 496.684 562.226 497.128 563.871 497.635C554.893 500.178 545.86 503.503 536.597 504.364C520.926 505.821 505.053 506.349 489.607 501.965C485.497 500.798 481.62 498.806 477.306 497.06Z" fill="#3C3E57"/>
<path d="M852.04 434.031C852.151 433.721 852.33 433.455 853.04 433.354C852.792 439.748 852.078 446.022 851.243 453.359C857.761 446.309 862.047 439.053 865.025 430.968C864.781 441.188 861.463 450.177 854.093 457.413C839.96 471.292 841.702 468.528 847.791 486.053C854.738 506.046 858.177 526.382 856.348 547.596C854.424 517.824 842.627 490.555 834.914 462.257C834.25 459.821 831.652 457.912 830.133 455.399C830.879 454.759 831.444 454.479 832.009 454.199C832.328 448.693 832.647 443.187 833.233 436.99C835.657 430.25 838.146 424.294 839.866 418.124C841.31 412.945 841.859 407.517 842.804 402.2C843.631 413.578 843.157 424.795 839.553 435.781C837.056 443.395 837.199 451.215 839.119 458.962C839.376 460 838.946 463.207 842.344 460.402C844.83 458.506 848.052 457.243 848.514 455.318C850.19 448.343 850.94 441.145 852.04 434.031Z" fill="#26245F"/>
<path d="M842.888 401.721C841.859 407.517 841.31 412.945 839.866 418.124C838.145 424.294 835.657 430.25 833.336 436.593C832.611 435.4 832.052 433.913 832.029 431.908C832.696 429.087 833.21 426.729 832.889 424.491C831.176 412.549 831.867 400.713 834.003 388.91C834.725 384.92 835.527 380.943 836.292 376.961C834.432 379.517 833.523 382.309 833.031 385.173C831.389 394.734 829.895 404.32 828.345 413.896C828.23 409.424 827.386 404.824 828.142 400.504C830.108 389.272 832.656 378.135 835.264 367.029C835.806 364.721 837.606 362.708 839.784 360.792C842.81 374.333 842.931 387.785 842.888 401.721Z" fill="#5C589C"/>
<path d="M818.572 441.003C809.886 428.536 805.648 414.782 805.952 399.455C816.987 400.91 829.798 429.636 829.681 452.418C828.215 452.168 827.074 451.6 825.933 451.033C825.933 451.033 825.988 450.997 826.007 450.71C825.662 449.954 825.298 449.485 824.934 449.016C824.934 449.016 824.997 449.006 824.964 448.67C824.285 446.553 823.64 444.773 823.265 443.102C824.026 443.803 824.518 444.394 825.073 445.094C825.138 445.203 825.412 445.235 825.412 445.235C825.412 445.235 824.985 445.01 824.971 444.609C821.559 434.879 818.16 425.55 814.762 416.221C814.188 416.428 813.614 416.635 813.039 416.842C813.424 418.033 813.752 419.247 814.203 420.413C817.122 427.95 820.069 435.477 822.676 443.034C821.542 442.71 820.738 442.359 819.934 442.007C819.934 442.007 819.995 441.992 819.843 441.755C819.318 441.346 818.945 441.174 818.572 441.003Z" fill="#5C589C"/>
<path d="M243 532.032C259.967 532.041 276.434 532.047 292.901 532.066C294.228 532.067 295.591 531.993 296.868 532.273C297.518 532.416 298.571 533.453 298.469 533.763C298.208 534.552 297.516 535.506 296.779 535.757C295.728 536.116 294.483 535.935 293.321 535.936C269.202 535.943 245.083 535.943 220.965 535.944C220.3 535.944 219.529 536.154 218.991 535.891C217.971 535.392 217.084 534.621 216.142 533.963C217.11 533.333 218.067 532.176 219.048 532.155C226.863 531.993 234.682 532.046 243 532.032Z" fill="#DEE1F4"/>
<path d="M218.546 285.999C243.107 285.992 267.225 285.998 291.344 286.005C292.508 286.006 293.739 285.778 294.818 286.084C295.887 286.387 296.802 287.232 297.785 287.84C296.723 288.538 295.666 289.242 294.593 289.923C294.474 289.998 294.267 289.935 294.1 289.935C269.649 289.929 245.198 289.926 220.747 289.906C219.76 289.905 218.599 290.038 217.819 289.589C215.683 288.358 215.259 286.985 218.546 285.999Z" fill="#DEE1F4"/>
<path d="M287.742 346.92C289.636 347.031 291.065 347.141 292.494 347.251C292.694 347.815 292.894 348.378 293.094 348.941C291.718 349.615 290.344 350.869 288.965 350.876C266.028 350.997 243.089 350.996 220.152 350.869C218.864 350.862 217.584 349.521 216.3 348.801C217.571 348.17 218.84 346.996 220.115 346.99C242.502 346.881 264.89 346.916 287.742 346.92Z" fill="#E2E6F6"/>
<path d="M242 435.997C234.677 435.998 227.849 436.121 221.032 435.912C219.43 435.863 217.863 434.689 216.279 434.032C217.961 433.378 219.636 432.18 221.327 432.156C233.308 431.99 245.292 432.059 257.275 432.064C265.596 432.068 273.92 431.991 282.237 432.192C283.756 432.228 285.246 433.432 286.749 434.096C285.314 434.726 283.885 435.886 282.443 435.902C269.13 436.046 255.815 435.993 242 435.997Z" fill="#DEE1F4"/>
<path d="M262 413.03C268.659 413.034 274.821 412.941 280.975 413.126C282.18 413.162 283.353 414.271 284.541 414.885C283.432 415.577 282.327 416.867 281.215 416.873C260.24 416.999 239.265 416.977 218.29 416.955C217.681 416.954 217.073 416.614 216.464 416.432C216.287 415.925 216.109 415.418 215.932 414.911C217.637 414.292 219.336 413.158 221.049 413.138C234.531 412.982 248.016 413.039 262 413.03Z" fill="#DEE1F4"/>
<path d="M259 473.908C246.015 473.898 233.529 473.943 221.045 473.814C219.318 473.796 217.601 472.915 215.879 472.433C215.989 471.774 216.099 471.114 216.208 470.455C217.726 470.293 219.243 469.991 220.761 469.99C239.905 469.973 259.049 469.999 278.193 470.014C278.859 470.015 279.638 469.802 280.166 470.074C281.166 470.589 282.023 471.384 282.939 472.063C281.951 472.678 280.975 473.804 279.974 473.827C273.153 473.984 266.326 473.909 259 473.908Z" fill="#DEE1F4"/>
<path d="M823.069 281.076C823.968 274.017 827.459 271.642 833.874 273.831C839.178 275.641 842.963 279.095 844.611 285.039C843.515 289.053 842.437 291.66 837.833 291.153C833.052 290.627 834.323 287.334 833.892 284.607C833.59 282.698 833.041 280.828 832.601 278.941C832.384 278.959 832.167 278.978 831.95 278.997C832.09 282.177 832.23 285.357 832.371 288.537C832.052 288.828 831.733 289.118 831.414 289.408C828.633 286.631 825.851 283.853 823.069 281.076Z" fill="#5C589C"/>
<path d="M241.072 554.117C234.502 554.366 228.422 554.745 222.34 554.797C220.078 554.816 216.878 556.069 215.939 551.607C241.422 551.607 266.541 551.607 292.215 551.607C289.887 554.115 289.887 554.114 275.972 554.107C270.154 554.105 264.335 554.108 258.517 554.11C252.864 554.112 247.212 554.115 241.072 554.117Z" fill="#E3E6F8"/>
<path d="M271 369.095C252.477 369.095 234.454 369.095 216.431 369.095C216.299 368.521 216.168 367.947 216.036 367.373C217.081 366.871 218.125 365.936 219.172 365.933C242.116 365.861 265.06 365.879 288.004 365.949C289.034 365.953 290.061 366.617 291.089 366.974C291.023 367.681 290.956 368.388 290.889 369.095C284.426 369.095 277.963 369.095 271 369.095Z" fill="#E3E6F8"/>
<path d="M260.956 491.919C247.514 491.917 234.562 491.987 221.613 491.832C219.782 491.81 217.964 490.698 216.14 490.091C217.87 489.392 219.594 488.106 221.331 488.087C236.273 487.927 251.218 487.933 266.16 488.087C267.736 488.103 269.298 489.384 270.867 490.078C269.222 490.691 267.617 491.503 265.918 491.856C264.485 492.153 262.942 491.918 260.956 491.919Z" fill="#DEE1F4"/>
<path d="M227.03 454.063C223.071 454.063 219.607 454.063 216.143 454.063C219.566 449.933 281.729 450.202 285.477 454.063C265.469 454.063 246.497 454.063 227.03 454.063Z" fill="#E3E6F8"/>
<path d="M265.999 326.041C249.37 326.01 233.237 326.069 217.108 326.007C217.129 325.218 217.149 324.428 217.169 323.639C239.694 323.639 262.219 323.639 284.744 323.639C284.775 324.119 284.805 324.599 284.836 325.079C278.902 327.156 272.588 325.494 265.999 326.041Z" fill="#E3E6F8"/>
<path d="M196.755 292.004C198.142 292.882 199.772 293.692 199.855 294.639C200.142 297.907 200.771 301.656 199.456 304.33C198.832 305.6 194.108 304.894 191.238 305.006C189.317 305.081 187.389 305.021 185.034 305.021C185.405 303.147 185.673 302.069 185.825 300.976C186.221 298.108 185.578 293.836 187.175 292.706C189.312 291.196 193.17 292.12 196.755 292.004Z" fill="#999BB9"/>
<path d="M226.075 304.052C237.716 304.055 248.869 304.004 260.019 304.145C261.207 304.16 262.38 305.305 263.56 305.925C262.445 306.621 261.337 307.911 260.215 307.921C246.236 308.054 232.254 308.008 218.273 307.972C217.669 307.97 217.066 307.614 215.871 307.236C218.105 302.077 222.483 304.882 226.075 304.052Z" fill="#DEE1F4"/>
<path d="M865.079 430.581C862.046 439.053 857.76 446.309 851.242 453.359C852.077 446.022 852.791 439.748 853.233 433.208C855.294 430.921 857.406 428.521 860.021 426.977C863.104 425.157 865.119 426.425 865.079 430.581Z" fill="#5C589C"/>
<path d="M199.999 377.094C199.66 379.936 199.674 384.219 198.921 384.359C195.097 385.067 191.037 384.974 187.158 384.44C186.519 384.352 186.051 380.677 186.087 378.67C186.126 376.522 186.601 372.645 187.326 372.539C191.179 371.976 195.182 372.233 199.096 372.601C199.519 372.641 199.704 375.222 199.999 377.094Z" fill="#999BB9"/>
<path d="M805.124 273.956C812.465 278.148 814.181 286.608 809.255 292.651C806.463 296.075 802.196 296.886 798.561 294.683C794.481 292.21 792.615 286.236 794.264 280.926C795.777 276.053 799.371 273.644 805.124 273.956ZM803.335 277.293C802.087 277.665 800.592 277.719 799.637 278.466C796.391 281.003 795.323 284.725 797.261 288.124C798.38 290.087 801.857 292.336 803.618 291.887C805.805 291.329 808.206 288.381 808.915 285.991C810.062 282.126 808.05 278.965 803.335 277.293Z" fill="#2A286B"/>
<path d="M254.586 385.096C256.405 385.775 257.771 386.453 259.138 387.132C258.926 387.779 258.715 388.427 258.504 389.075C255.236 389.075 251.967 389.077 248.699 389.074C239.049 389.067 229.398 389.135 219.752 388.951C218.544 388.928 217.362 387.567 216.168 386.826C217.344 386.239 218.514 385.155 219.696 385.143C231.174 385.024 242.654 385.085 254.586 385.096Z" fill="#E2E6F6"/>
<path d="M255.557 395.007C256.9 395.678 257.798 396.346 258.695 397.014C257.841 397.647 256.992 398.822 256.131 398.831C243.814 398.96 231.494 398.978 219.176 398.849C218.203 398.839 217.243 397.538 216.277 396.837C217.402 396.222 218.521 395.084 219.652 395.072C231.471 394.946 243.292 395 255.557 395.007Z" fill="#DEE1F4"/>
<path d="M822.972 281.495C825.85 283.853 828.632 286.631 831.413 289.408C831.732 289.118 832.051 288.828 832.37 288.537C832.23 285.357 832.09 282.177 831.949 278.997C832.167 278.978 832.384 278.959 832.601 278.941C833.04 280.828 833.59 282.698 833.891 284.607C834.322 287.334 833.051 290.627 837.832 291.153C842.436 291.66 843.514 289.053 844.579 285.4C844.704 287.302 845.003 289.58 844.362 291.552C843.053 295.573 840.266 297.219 835.818 296.145C826.967 294.009 822.338 289.097 822.972 281.495Z" fill="#2A286B"/>
<path d="M199.003 524.036C198.881 530.314 198.883 530.141 190.063 530.053C183.196 529.984 186.47 524.981 186.131 522.097C185.577 517.398 188.987 517.813 192.413 518.327C192.764 519.688 193.118 521.065 193.431 522.284C194.881 520.876 196.258 519.538 197.635 518.2C198.091 519.993 198.547 521.786 199.003 524.036ZM193.18 526.03C193.274 526.436 193.368 526.842 193.462 527.248C193.581 527.159 193.812 527.054 193.802 526.982C193.747 526.57 193.634 526.166 193.18 526.03Z" fill="#999BB9"/>
<path d="M233.001 520.047C238.137 520.055 242.78 519.942 247.407 520.153C248.572 520.206 249.69 521.294 250.829 521.906C249.766 522.596 248.713 523.867 247.639 523.884C238.202 524.041 228.761 524.042 219.324 523.883C218.247 523.865 217.191 522.576 216.125 521.877C217.278 521.272 218.408 520.205 219.588 520.146C223.884 519.93 228.196 520.051 233.001 520.047Z" fill="#DEE1F4"/>
<path d="M851.714 434.134C850.94 441.145 850.19 448.343 848.514 455.318C848.052 457.243 844.83 458.506 842.512 460.096C841.025 449.992 845.15 441.738 851.714 434.134Z" fill="#5C589C"/>
<path d="M191.857 339.253C192.634 341.921 193.026 344.435 193.489 347.404C194.071 344.957 194.326 342.814 195.148 340.916C195.523 340.051 196.999 339.27 198.012 339.222C198.626 339.192 199.718 340.554 199.898 341.434C201.181 347.689 200.048 349 193.69 349.003C185.154 349.007 184.506 348.036 186.756 338.17C188.321 338.478 189.897 338.789 191.857 339.253Z" fill="#999BB9"/>
<path d="M828.303 414.259C829.896 404.32 831.389 394.734 833.032 385.173C833.524 382.309 834.433 379.517 836.293 376.96C835.527 380.943 834.725 384.92 834.003 388.91C831.867 400.713 831.177 412.549 832.89 424.491C833.211 426.729 832.696 429.087 832.288 431.693C831.607 430.323 831.205 428.65 830.847 426.263C830.605 424.702 830.318 423.855 830.031 423.007C829.853 422.036 829.675 421.064 829.576 419.436C829.281 418.113 828.907 417.445 828.532 416.777C828.442 416.059 828.351 415.34 828.303 414.259Z" fill="#2A286B"/>
<path d="M230.951 502.044C234.091 502.07 236.759 501.929 239.381 502.215C240.23 502.308 240.956 503.522 241.738 504.223C240.935 504.814 240.141 505.902 239.327 505.917C232.371 506.044 225.41 506.038 218.454 505.878C217.682 505.861 216.938 504.633 216.181 503.966C216.964 503.333 217.723 502.192 218.536 502.152C222.504 501.954 226.485 502.051 230.951 502.044Z" fill="#DEE1F4"/>
<path d="M224.109 275.06C228.424 275.067 232.265 274.917 236.081 275.166C237.462 275.256 238.781 276.302 240.128 276.912C239.984 277.59 239.839 278.268 239.694 278.945C232.677 278.945 225.659 278.981 218.643 278.875C218.108 278.867 217.088 277.774 217.167 277.348C217.314 276.563 218.01 275.415 218.656 275.281C220.258 274.948 221.961 275.102 224.109 275.06Z" fill="#DEE1F4"/>
<path d="M240.224 513.596C231.989 513.85 224.111 513.85 216.038 513.85C216.329 512.329 216.381 511.734 216.452 511.732C224.149 511.486 231.847 511.256 239.547 511.178C239.884 511.174 240.236 512.588 240.224 513.596Z" fill="#E3E6F8"/>
<path d="M189.296 440.507C184.231 437.747 186.395 433.527 186.124 428.215C188.901 429.488 192.172 430.01 192.556 431.356C193.499 434.669 193.629 438.533 189.296 440.507Z" fill="#999BB9"/>
<path d="M218.508 268.977C218.202 267.944 218.341 266.167 218.467 266.167C225.504 266.219 232.54 266.414 239.574 266.641C239.69 266.644 239.787 267.213 240.17 268.32C233.05 269.966 225.939 268.711 218.508 268.977Z" fill="#E3E6F8"/>
<path d="M186.698 267.917C183.464 266.542 183.416 264.843 186.418 264.252C189.422 263.661 192.635 263.955 195.737 264.163C196.5 264.215 197.185 265.44 197.906 266.126C197.1 266.731 196.331 267.789 195.482 267.858C192.71 268.083 189.91 267.947 186.698 267.917Z" fill="#DEE1F4"/>
<path d="M290.411 415.919C291.795 413.371 297.412 412.023 299.099 413.5C299.519 413.867 299.954 414.844 299.761 415.156C299.318 415.872 298.495 416.834 297.821 416.838C295.402 416.851 292.981 416.507 290.411 415.919Z" fill="#DEE1F4"/>
<path d="M297.402 326.016C296.704 325.043 296.448 324.087 296.191 323.131C299.773 323.131 303.355 323.131 306.936 323.131C306.946 323.995 306.956 324.859 306.966 325.723C303.926 325.826 300.885 325.929 297.402 326.016Z" fill="#E3E6F8"/>
<path d="M289.388 452.876C292.687 449.336 296.178 451.125 299.692 452.325C296.457 454.572 293.025 454.411 289.388 452.876Z" fill="#E2E6F6"/>
<path d="M819.865 442.369C820.738 442.359 821.542 442.71 822.673 443.031C823 443 822.994 442.992 822.994 442.992C823.64 444.773 824.286 446.553 824.948 448.697C823.241 446.951 821.519 444.841 819.865 442.369Z" fill="#2A286B"/>
<path d="M825.996 451.348C827.074 451.6 828.215 452.168 829.656 452.878C830.444 453.367 830.932 453.715 831.715 454.131C831.444 454.479 830.878 454.759 829.986 455.081C828.458 453.97 827.258 452.817 825.996 451.348Z" fill="#2A286B"/>
<path d="M829.782 423.185C830.318 423.855 830.605 424.702 830.793 425.898C830.308 425.285 829.921 424.324 829.782 423.185Z" fill="#5C589C"/>
<path d="M828.396 417.061C828.907 417.445 829.281 418.113 829.503 419.074C828.987 418.693 828.624 418.019 828.396 417.061Z" fill="#5C589C"/>
<path d="M824.819 449.329C825.298 449.485 825.662 449.954 825.998 450.741C825.548 450.587 825.126 450.115 824.819 449.329Z" fill="#2A286B"/>
<path d="M818.754 441.266C818.945 441.174 819.318 441.346 819.846 441.786C819.646 441.88 819.291 441.705 818.754 441.266Z" fill="#2A286B"/>
<path d="M549.967 497.734C543.884 499.309 537.794 501.07 531.608 501.52C516.331 502.631 501.071 502.49 486.09 497.084C493.061 482.634 493.626 467.529 492.203 451.513C494.023 447.334 496.031 443.804 498.183 440.02C502.141 442.893 505.918 445.873 509.964 448.427C511.166 449.187 513.603 449.467 514.659 448.756C525.819 441.247 536.915 433.632 547.805 425.738C552.272 422.499 556.197 418.513 560.695 414.583C563.505 421.898 564.981 429.629 574.078 431.294C568.5 440.629 562.189 448.817 551.319 451.979C550.406 452.245 549.3 453.67 549.21 454.641C548.712 460.053 548.499 465.491 548.113 471.312C548.09 472.497 548.144 473.29 548.198 474.083C548.771 481.83 549.344 489.577 549.967 497.734Z" fill="#9B6E60"/>
<path d="M548.189 470.92C548.5 465.491 548.713 460.053 549.211 454.641C549.301 453.67 550.407 452.245 551.32 451.979C562.19 448.817 568.5 440.629 574.254 431.032C575.273 429.908 576.179 429.404 577.363 428.731C583.504 421.003 587.815 412.82 588.409 402.95C599.253 402.969 609.624 402.99 619.995 403.011C614.026 409.615 607.95 416.127 602.117 422.849C595.841 430.082 590.019 437.72 583.583 444.802C576.373 452.736 569.2 460.779 559.95 466.564C558.941 467.195 558.627 468.936 557.537 470.564C554.119 470.951 551.154 470.935 548.189 470.92Z" fill="#E2E6F6"/>
<path d="M654.005 382.99C646.678 386.655 639.294 390.213 632.068 394.067C630.45 394.931 629.385 396.832 627.556 398.615C613.96 399.032 600.875 399.089 587.6 398.82C586.575 394.964 585.739 391.433 584.949 387.499C585.104 385.748 585.213 384.401 585.769 383.032C608.813 383.003 631.409 382.996 654.005 382.99Z" fill="#E3E6F8"/>
<path d="M548.113 471.312C551.154 470.935 554.119 470.95 557.531 470.939C595.231 470.978 632.483 471.044 669.735 471.11C669.755 472.035 669.774 472.96 669.794 473.885C659.906 474.199 649.988 473.982 640.087 474.02C629.922 474.06 619.757 474.031 609.592 474.031C599.594 474.032 589.595 474.028 579.597 474.032C569.432 474.035 559.267 474.044 548.65 474.066C548.145 473.29 548.091 472.497 548.113 471.312Z" fill="#B3B5D0"/>
<path d="M654.473 382.984C631.409 382.996 608.813 383.002 585.7 382.624C585.236 381.142 585.29 380.045 585.344 378.948C611.488 378.963 637.632 379.003 663.775 378.949C666.23 378.944 668.683 378.344 671.565 378.025C671.921 379.467 671.849 380.905 671.745 382.978C665.966 382.978 660.453 382.978 654.473 382.984Z" fill="#C0C0D9"/>
<path d="M587.789 399.145C600.875 399.088 613.96 399.032 627.512 398.958C641.107 398.962 654.236 398.925 667.363 399.081C668.876 399.098 670.375 400.185 671.881 400.777C670.354 401.517 668.834 402.884 667.3 402.9C651.846 403.059 636.39 402.997 620.464 403.004C609.624 402.99 599.252 402.969 588.377 402.569C587.846 401.176 587.817 400.161 587.789 399.145Z" fill="#C0C0D9"/>
<path d="M247.669 247.963C244.744 247.967 242.24 248.186 239.801 247.886C238.423 247.717 237.149 246.694 235.829 246.056C235.983 245.39 236.137 244.724 236.292 244.059C241.104 244.059 245.919 243.985 250.727 244.146C251.367 244.167 251.968 245.373 252.587 246.03C251.097 246.674 249.607 247.318 247.669 247.963Z" fill="#E2E6F6"/>
<path d="M177.492 246.592C178.175 245.04 178.982 243.814 179.789 242.588C180.744 243.35 182.284 243.98 182.493 244.909C182.707 245.865 181.866 247.74 181.041 248.058C180.175 248.392 178.78 247.357 177.492 246.592Z" fill="#5C5D7A"/>
<path d="M201.58 248.291C201.512 246.432 201.716 244.801 201.921 243.169C203.115 243.711 204.31 244.253 205.504 244.795C204.287 246.036 203.069 247.277 201.58 248.291Z" fill="#5C5D7A"/>
<path d="M214.31 247.133C212.964 247.628 211.836 247.82 210.709 248.011C210.532 246.754 210.098 245.454 210.299 244.26C210.384 243.759 212.428 243.035 212.53 243.176C213.34 244.29 213.895 245.588 214.31 247.133Z" fill="#E3E6F8"/>
<path d="M585.271 378.489C585.29 380.045 585.236 381.142 585.252 382.647C585.212 384.401 585.104 385.748 584.678 387.284C583.057 383.61 581.753 379.746 580.189 375.11C578.94 380.602 577.025 384.806 570.896 385.261C569.431 385.37 567.899 387.75 566.821 389.367C557.763 402.958 562.71 421.854 577.086 428.901C576.179 429.404 575.272 429.908 574.191 430.673C564.982 429.629 563.505 421.898 560.696 414.583C556.198 418.513 552.273 422.499 547.805 425.738C536.915 433.632 525.819 441.247 514.659 448.756C513.603 449.467 511.167 449.187 509.965 448.427C505.919 445.873 502.142 442.893 498.184 440.02C496.032 443.804 494.024 447.334 491.904 451.174C486.41 455.287 481.029 459.091 474.925 462.991C469.644 463.931 465.113 465.23 460.519 465.524C450.368 466.173 440.276 465.456 431.07 460.567C426.269 458.017 421.812 454.822 417.199 451.918C416.444 450.637 415.86 449.208 414.908 448.096C397.992 428.332 395.308 405.863 402.15 381.558C402.42 380.598 402.728 379.649 403.292 378.071C404.314 375.781 404.987 374.078 405.821 372.456C411.853 360.72 414.75 348.225 414.955 335.068C416.32 328.743 417.134 322.236 419.141 316.121C430.212 282.397 465.719 278.109 487.052 289.599C494.455 293.586 499.523 299.878 502.962 307.515C520.133 300.959 537.232 300.68 554.153 306.082C569.221 310.892 580.224 320.496 584.845 337.008C585.245 338.801 585.519 339.914 585.794 341.027C585.734 346.704 585.674 352.381 585.522 358.787C585.43 360.373 585.43 361.231 585.429 362.089C585.353 367.403 585.276 372.716 585.271 378.489ZM507.327 350.76C516.593 336.706 515.768 320.724 504.909 314.556C509.397 330.884 505.682 345.538 497.114 359.391C498.516 359.046 499.463 358.647 500.162 357.985C502.451 355.816 504.649 353.552 507.327 350.76Z" fill="#2D2D42"/>
<path d="M414.549 335.033C414.751 348.225 411.853 360.72 405.821 372.456C404.988 374.078 404.315 375.781 403.322 377.676C397.422 377.225 394.248 373.711 392.693 368.554C390.377 360.871 390.518 353.148 393.32 345.645C396.624 336.801 402.401 333.982 414.549 335.033Z" fill="#7D6FDB"/>
<path d="M417.132 452.281C421.812 454.822 426.269 458.017 431.07 460.567C440.276 465.456 450.368 466.173 460.519 465.524C465.113 465.23 469.644 463.931 474.59 463.103C467.996 468.893 461.101 474.777 453.94 480.317C452.896 481.125 450.102 480.954 448.93 480.109C439.391 473.23 429.952 466.202 420.724 458.912C418.957 457.516 418.257 454.768 417.132 452.281Z" fill="#7D6FDB"/>
<path d="M586.276 341.003C585.519 339.914 585.245 338.801 585.007 337.338C611.847 337.001 638.651 337.013 665.455 337.026C666.62 337.026 667.856 336.789 668.931 337.102C669.999 337.413 670.904 338.28 671.88 338.904C670.976 339.595 670.164 340.563 669.143 340.901C668.092 341.249 666.837 340.984 665.672 340.984C639.367 340.983 613.062 340.982 586.276 341.003Z" fill="#C0C0D9"/>
<path d="M585.87 362.066C585.43 361.231 585.43 360.373 585.611 359.247C614.427 358.978 643.062 358.978 671.697 358.978C671.717 359.698 671.737 360.418 671.757 361.138C665.079 363.036 658.112 361.707 651.304 361.94C643.98 362.19 636.64 361.996 629.307 361.997C622.141 361.997 614.974 361.994 607.808 362.001C600.642 362.009 593.476 362.029 585.87 362.066Z" fill="#C0C0D9"/>
<path d="M825.009 444.985C824.517 444.394 824.026 443.803 823.264 443.102C822.994 442.992 823 443 823.003 443.003C820.068 435.477 817.122 427.95 814.203 420.413C813.751 419.247 813.424 418.033 813.039 416.842C813.613 416.635 814.188 416.428 814.762 416.221C818.16 425.55 821.558 434.879 824.978 444.604C825 445 825.009 444.985 825.009 444.985Z" fill="#2A286B"/>
<path d="M812.523 414.557C812.48 414.583 812.566 414.531 812.523 414.557V414.557Z" fill="#2A286B"/>
<path d="M824.992 445.005C824.985 445.01 825.412 445.235 825.412 445.235C825.412 445.235 825.137 445.203 825.073 445.094C825.009 444.985 825 445 824.992 445.005Z" fill="#2A286B"/>
<path d="M803.698 277.375C808.05 278.965 810.062 282.126 808.915 285.991C808.206 288.381 805.805 291.329 803.618 291.887C801.857 292.336 798.38 290.087 797.261 288.124C795.323 284.725 796.391 281.003 799.637 278.466C800.592 277.719 802.087 277.665 803.698 277.375Z" fill="#A7A8C6"/>
<path d="M193.36 525.895C193.634 526.166 193.747 526.57 193.803 526.982C193.812 527.054 193.582 527.159 193.462 527.248C193.368 526.842 193.274 526.436 193.36 525.895Z" fill="#A7A8C6"/>
<path d="M577.362 428.731C562.709 421.854 557.763 402.958 566.821 389.367C567.898 387.75 569.431 385.37 570.895 385.261C577.025 384.806 578.94 380.602 580.189 375.11C581.753 379.746 583.057 383.61 584.631 387.688C585.738 391.433 586.574 394.964 587.6 398.82C587.817 400.161 587.845 401.176 587.904 402.572C587.815 412.82 583.504 421.003 577.362 428.731Z" fill="#9F7162"/>
<path d="M507.104 351.042C504.649 353.552 502.45 355.816 500.161 357.985C499.463 358.647 498.516 359.046 497.113 359.391C505.682 345.538 509.397 330.884 504.908 314.556C515.768 320.724 516.593 336.706 507.104 351.042Z" fill="#6B57E6"/>
</g>
<defs>
<clipPath id="clip0_115_624">
<rect width="1024" height="1024" fill="white"/>
</clipPath>
</defs>
</svg>
