<svg width="1024" height="1024" viewBox="0 0 1024 1024" fill="none" xmlns="http://www.w3.org/2000/svg">
<g clip-path="url(#clip0_115_457)">
<path d="M473 1025C315.333 1025 158.167 1025 1 1025C1 683.667 1 342.333 1 1C342.333 1 683.667 1 1025 1C1025 342.333 1025 683.667 1025 1025C841.167 1025 657.333 1025 473 1025ZM26.6851 738.762C27.0097 739.526 27.3343 740.291 27.6841 741.798C30.3776 748.958 36.0516 753.426 43.1194 753.63C49.7416 753.82 56.4429 751.267 63.0527 750.945C63.0273 751.627 63.0019 752.309 62.1472 752.994C49.8878 756.43 37.5253 759.552 25.4384 763.514C22.2388 764.563 19.8878 768.201 17.1471 770.65C20.1125 772.814 22.8025 776.16 26.0936 776.927C37.0204 779.473 48.1003 781.62 59.2373 782.952C79.1158 785.33 99.0575 787.263 119.013 788.888C136.03 790.273 153.097 791.087 170.153 791.928C186.898 792.753 203.655 793.374 220.412 793.936C234.034 794.393 247.664 794.942 261.288 794.915C375.221 794.69 489.153 794.394 603.085 793.995C635.041 793.883 666.995 793.41 698.949 792.999C714.076 792.804 729.2 792.367 744.325 792.03C759.117 791.701 773.91 791.386 788.701 791.014C800.162 790.727 811.623 790.42 823.08 790.017C840.668 789.399 858.259 788.813 875.838 787.987C893.727 787.147 911.62 786.281 929.479 784.973C948.465 783.583 967.443 781.94 986.36 779.828C993.37 779.046 1000.36 777.107 1007.06 774.795C1012.98 772.749 1013.41 769.348 1008.77 765.359C1006.56 763.466 1003.71 762.308 1001.1 760.906C997.433 758.934 993.722 757.045 990.888 755.071C1002.4 754.946 1009.36 748.038 1008.19 737.271C1007.43 735.854 1006.68 734.436 1005.84 732.346C1003.53 730.213 1001.43 727.76 998.859 726.002C984.619 716.263 970.264 706.693 956.044 696.364C956.571 695.535 957.015 694.638 957.636 693.887C968.289 680.991 976.974 666.944 983.076 651.31C990.538 632.189 995.302 612.485 997.118 592.01C998.695 574.232 999.347 556.386 995.631 538.941C990.205 513.469 978.298 491.471 957.98 474.321C937.333 456.894 913.386 448.488 886.822 447.138C877.244 446.651 867.587 447.713 857.45 447.639C851.643 439.422 845.835 431.206 840.02 422.234C839.304 420.388 838.788 418.432 837.842 416.711C823.507 390.636 809.558 364.335 794.602 338.621C782.238 317.364 767.996 297.248 751.368 279.058C735.519 261.72 718.058 246.229 697.878 233.818C665.108 213.663 629.433 203.615 591.265 202.177C581.381 201.805 571.289 202.504 561.536 204.151C545.736 206.818 529.747 209.452 514.536 214.295C485.796 223.447 459.853 238.492 435.899 256.726C419.143 269.48 402.847 282.844 386.519 296.15C381.052 300.605 376.123 305.72 370.139 310.719C362.513 311.549 356.489 314.763 352.473 322.112C347.675 324.405 342.956 326.887 338.057 328.938C332.71 331.178 327.301 333.391 321.735 334.963C305.231 339.624 288.237 340.908 271.199 342.155C249.749 343.724 228.333 345.837 206.935 348.033C189.363 349.837 172.146 353.253 156.394 361.828C133.187 374.46 118.033 393.485 110.817 418.946C105.612 437.309 106.876 455.623 110.512 473.991C113.591 489.549 116.78 504.989 116.212 521.107C115.532 540.413 109.152 557.749 100.634 574.598C94.7885 586.162 88.0512 597.343 83.083 609.267C74.1723 630.652 72.493 652.667 81.101 674.738C83.1403 679.967 85.7239 684.983 87.6173 690.62C69.7517 702.041 51.7857 713.311 34.1172 725.029C31.0905 727.036 29.3334 730.958 26.5902 734.482C26.6459 735.697 26.7016 736.912 26.6851 738.762Z" fill="white"/>
<path d="M370.948 310.533C376.123 305.72 381.052 300.605 386.519 296.15C402.847 282.844 419.143 269.479 435.899 256.725C459.854 238.492 485.796 223.447 514.536 214.295C529.747 209.451 545.736 206.818 561.537 204.151C571.29 202.504 581.382 201.804 591.265 202.177C629.433 203.615 665.109 213.662 697.879 233.817C718.058 246.229 735.519 261.72 751.368 279.057C767.996 297.248 782.239 317.364 794.602 338.621C809.558 364.335 823.508 390.636 837.842 416.711C838.788 418.431 839.304 420.387 839.718 422.475C829.816 414.08 820.654 404.883 810.507 396.944C796.976 386.359 781.576 378.679 765.276 373.381C751.473 368.894 737.381 364.936 723.13 362.293C711.019 360.048 698.496 360.035 686.16 358.972C684.705 358.846 683.284 358.324 682.014 357.669C688.654 348.836 686.756 339.85 676.776 336.173C671.935 334.389 665.899 333.783 660.902 334.89C647.592 337.839 644.421 348.603 652.65 358.965C647.145 359.643 642.073 360.23 637.024 360.969C604.817 365.676 574.869 376.528 547.425 394.103C545.111 395.585 543.068 397.49 540.596 399.049C516.665 375.62 489.008 358.907 457.708 348.075C435.097 340.25 411.811 335.826 388.05 333.682C388.092 333.464 388.044 333.024 388.261 332.739C392.859 325.17 391.3 317.893 383.731 314.031C379.878 312.065 375.234 311.649 370.948 310.533Z" fill="#D6D9F9"/>
<path d="M990.029 755.121C993.722 757.045 997.434 758.934 1001.1 760.906C1003.71 762.308 1006.56 763.466 1008.77 765.359C1013.41 769.348 1012.98 772.749 1007.06 774.796C1000.36 777.107 993.37 779.046 986.361 779.828C967.443 781.94 948.465 783.583 929.479 784.973C911.621 786.281 893.727 787.147 875.838 787.987C858.259 788.813 840.668 789.399 823.08 790.017C811.623 790.42 800.162 790.727 788.702 791.014C773.91 791.386 759.118 791.701 744.325 792.03C729.2 792.367 714.076 792.804 698.949 792.999C666.996 793.41 635.041 793.883 603.086 793.995C489.154 794.394 375.221 794.69 261.289 794.916C247.664 794.943 234.034 794.393 220.413 793.936C203.656 793.374 186.899 792.753 170.153 791.928C153.097 791.087 136.03 790.273 119.013 788.888C99.0578 787.263 79.1161 785.33 59.2376 782.952C48.1006 781.62 37.0207 779.474 26.0939 776.927C22.8028 776.16 20.1128 772.814 17.1475 770.65C19.8881 768.201 22.2391 764.563 25.4387 763.514C37.5256 759.552 49.8881 756.43 62.9148 752.991C64.4551 752.345 65.2279 751.702 66.3422 751.035C67.1402 751.013 67.597 751.014 68.4824 751.01C74.275 750.246 79.6437 749.516 84.9928 748.663C85.3997 748.598 85.6663 747.654 86.4219 747.012C100.115 745.94 113.371 744.692 126.656 744.056C178.189 741.588 228.874 748.01 279.253 758.366C296.308 761.872 313.737 763.559 331.376 766.245C334.947 766.409 338.137 766.405 341.382 766.745C342.296 767.23 343.155 767.371 344.467 767.636C381.067 770.728 415.264 764.153 446.82 746.016C464.41 735.907 481.28 724.538 498.937 714.556C508.104 709.372 518.277 705.968 528.125 702.104C534.406 705.339 540.826 707.774 546.657 711.21C563.821 721.324 580.657 731.994 597.8 742.144C612.682 750.954 628.057 758.792 645.211 763.442C680.797 774.524 716.324 772.372 752.372 765.475C765.355 763.082 778.011 761.174 790.417 758.218C819.101 751.383 848.009 746.263 877.565 746.143C896.842 746.066 916.193 745.878 935.379 747.401C953.685 748.854 971.819 752.461 990.029 755.121Z" fill="#D6D9F9"/>
<path d="M26.9902 733.996C29.3338 730.959 31.0909 727.037 34.1177 725.029C51.7862 713.311 69.7522 702.041 88.188 690.303C109.114 680.607 129.47 671.228 150.275 661.892C159.47 661.307 168.216 660.15 176.961 660.153C203.67 660.165 230.38 660.623 257.458 660.972C258.575 661.034 259.322 661.03 260.447 661.197C272.408 661.91 283.993 662.433 295.576 663.001C308.487 663.635 321.396 664.301 334.306 664.968C353.671 665.97 373.035 666.98 392.399 667.997C404.809 668.648 417.215 669.418 429.63 669.956C447.699 670.74 465.776 671.362 484.098 672.29C485.468 672.615 486.59 672.703 488.207 672.861C493.162 672.956 497.638 672.755 502.078 673.062C508.397 673.498 514.689 674.306 520.991 675.33C520.061 676.932 519.387 678.597 518.16 679.312C511.72 683.065 505.254 686.808 498.587 690.132C471.498 703.637 444.457 717.248 417.151 730.301C400.097 738.452 381.984 742.781 362.908 743.069C339.121 743.429 315.672 740.431 292.216 737.089C269.648 733.873 247.065 730.736 224.438 727.973C208.039 725.97 191.579 723.556 175.109 723.238C144.913 722.655 114.614 721.635 84.5572 726.025C67.074 728.579 49.6652 731.639 32.2064 734.366C30.5279 734.628 28.7317 734.137 26.9902 733.996ZM343.482 708.097C347.961 703.041 352.44 697.984 356.919 692.928C356.538 692.488 356.156 692.048 355.775 691.608C352.55 693.917 349.125 695.997 346.15 698.593C342.472 701.803 339.12 705.612 340.101 710.987C341.034 716.102 345.015 718.463 349.664 720.086C360.564 723.892 371.667 723.433 382.314 720.184C398.136 715.356 413.662 709.53 429.215 703.86C445.239 698.019 461.158 691.886 477.092 685.802C479.895 684.731 482.549 683.273 485.273 681.993C485.017 681.352 484.761 680.71 484.505 680.069C482.841 680.377 481.093 680.456 479.528 681.031C470.653 684.291 461.82 687.665 452.976 691.009C429.87 699.744 406.853 708.728 383.62 717.11C373.339 720.819 362.555 721.834 351.944 717.821C347.72 716.223 343.543 714.271 343.482 708.097Z" fill="#393E64"/>
<path d="M857.966 448.068C867.587 447.713 877.244 446.651 886.822 447.138C913.386 448.488 937.333 456.895 957.98 474.321C978.299 491.471 990.205 513.469 995.631 538.942C999.347 556.386 998.695 574.232 997.118 592.01C995.302 612.485 990.538 632.19 983.076 651.31C976.974 666.944 968.289 680.991 957.636 693.887C957.015 694.639 956.571 695.535 955.667 696.6C939.416 689.161 923.615 681.329 907.638 673.876C899.226 669.952 890.506 666.688 881.998 662.701C882.377 660.657 882.964 659.034 882.947 657.418C882.683 632.641 882.625 607.857 881.925 583.092C881.368 563.383 880.238 543.681 878.902 524.007C878.232 514.138 876.989 504.256 875.204 494.528C872.186 478.086 865.69 462.823 857.966 448.068Z" fill="#D6D9F9"/>
<path d="M881.925 663.126C890.506 666.688 899.226 669.952 907.638 673.876C923.615 681.329 939.416 689.161 955.619 696.95C970.264 706.693 984.619 716.263 998.858 726.002C1001.43 727.76 1003.52 730.213 1005.43 732.673C1002.23 732.785 999.395 732.773 996.636 732.315C988.659 730.989 980.765 728.935 972.742 728.162C955.11 726.463 937.429 724.448 919.75 724.269C895.853 724.027 871.821 724.148 848.068 726.422C825.914 728.543 803.967 733.275 782.079 737.614C760.76 741.84 739.319 745.449 717.651 745.656C703.702 745.79 689.565 743.774 675.797 741.201C657.107 737.707 639.745 729.871 622.612 721.775C610.881 716.23 599.24 710.49 587.634 704.686C577.997 699.867 568.471 694.827 559.172 689.652C563.956 688.209 568.465 686.999 573.154 686.109C578.879 688.611 584.386 690.892 589.973 692.958C614.397 701.988 638.803 711.067 663.302 719.89C673.067 723.407 683.276 724.857 693.67 723.948C703.338 723.104 713.451 715.725 707.591 706.824C704.617 702.308 699.414 699.24 695.117 695.639C694.544 695.159 693.373 695.392 692.48 695.295C695.088 698.955 698.262 701.682 701.526 704.296C708.118 709.577 707.266 716.83 699.363 719.611C695.532 720.959 691.143 722.163 687.26 721.622C678.453 720.395 669.534 718.835 661.143 715.989C643.083 709.864 625.308 702.892 607.453 696.169C596.925 692.205 586.468 688.055 576.309 683.827C580.206 682.44 583.987 681.62 587.281 679.88C590.925 677.955 594.123 675.186 597.906 672.797C616.541 671.579 634.776 670.193 653.03 669.161C675.616 667.884 698.221 666.941 720.814 665.767C728.59 665.362 736.352 664.697 744.579 664.149C772.554 663.405 800.07 662.617 827.589 661.951C836.052 661.746 844.524 661.876 853.457 661.908C863.256 662.351 872.591 662.739 881.925 663.126Z" fill="#7D80C0"/>
<path d="M149.825 661.85C129.469 671.228 109.114 680.606 88.4074 690.041C85.7239 684.983 83.1402 679.967 81.101 674.738C72.493 652.667 74.1723 630.652 83.0829 609.267C88.0512 597.343 94.7885 586.162 100.634 574.598C109.152 557.749 115.532 540.413 116.212 521.107C116.78 504.989 113.591 489.549 110.512 473.991C106.876 455.623 105.612 437.309 110.817 418.946C118.033 393.485 133.186 374.46 156.394 361.828C172.146 353.253 189.363 349.837 206.935 348.033C228.333 345.837 249.749 343.724 271.199 342.155C288.237 340.908 305.231 339.624 321.735 334.963C327.301 333.391 332.71 331.178 338.057 328.938C342.956 326.887 347.675 324.405 352.873 322.497C354.24 326.243 355.208 329.605 355.851 333.232C351.396 333.949 347.266 334.396 343.137 334.855C306.613 338.917 272.106 349.332 240.299 367.961C190.276 397.259 161.848 441.022 155.317 498.393C152.102 526.629 150.335 555.093 149.381 583.504C148.505 609.585 149.599 635.732 149.825 661.85Z" fill="#D6D9F9"/>
<path d="M881.998 662.701C872.591 662.739 863.256 662.351 853.451 661.528C852.422 657.897 851.355 654.691 851.425 651.509C851.53 646.747 852.94 641.999 852.911 637.25C852.788 617.141 852.88 597.006 851.842 576.935C850.938 559.463 849.329 541.957 846.741 524.66C843.817 505.108 838.028 486.164 829.073 468.46C823.619 457.678 816.959 447.513 811.022 436.969C805.325 426.849 797.914 418.101 788.814 411.105C782.164 405.993 774.587 402.046 767.262 397.863C755.177 390.962 743.474 383.312 729.728 379.728C720.221 377.25 711.458 372.097 701.08 372.678C698.14 372.843 694.544 372.237 692.714 368.473C691.975 366.952 689.656 366.199 687.621 364.798C687.347 366.262 687.176 367.171 686.657 368.033C683.543 365.59 680.778 363.191 678.147 360.524C679.47 359.499 680.659 358.743 681.847 357.986C683.284 358.324 684.705 358.846 686.16 358.972C698.496 360.035 711.019 360.048 723.13 362.294C737.381 364.936 751.473 368.895 765.276 373.381C781.576 378.68 796.976 386.359 810.507 396.945C820.654 404.883 829.816 414.08 839.722 422.853C845.835 431.206 851.643 439.423 857.708 447.854C865.69 462.823 872.186 478.086 875.204 494.528C876.989 504.256 878.232 514.138 878.902 524.007C880.238 543.681 881.368 563.383 881.925 583.092C882.625 607.857 882.683 632.641 882.947 657.418C882.964 659.034 882.377 660.656 881.998 662.701Z" fill="#C2C3F2"/>
<path d="M990.458 755.096C971.819 752.461 953.684 748.854 935.378 747.401C916.192 745.878 896.841 746.066 877.564 746.143C848.008 746.263 819.1 751.383 790.416 758.218C778.01 761.174 765.354 763.082 752.414 765.077C752.969 763.031 753.922 761.374 755.372 758.851C753.525 757.544 751.659 756.224 749.731 754.859C751.074 753.12 752.102 751.789 753.035 750.581C751.449 749.178 750.223 748.092 749.426 747.004C760.223 745.055 770.585 743.071 780.962 741.173C799.952 737.701 818.892 733.886 837.968 730.973C850.999 728.983 864.207 727.541 877.371 727.189C893.943 726.745 910.572 727.265 927.139 728.106C943.129 728.917 959.117 730.274 975.019 732.134C986.125 733.434 997.085 735.985 1008.11 737.977C1009.36 748.038 1002.4 754.946 990.458 755.096Z" fill="#6668AD"/>
<path d="M330.994 766.078C313.736 763.559 296.307 761.871 279.252 758.366C228.873 748.01 178.189 741.588 126.656 744.056C113.37 744.692 100.114 745.939 85.979 746.958C79.4036 747.723 73.6942 748.435 67.6344 749.118C66.1478 749.33 65.0116 749.572 63.7481 749.722C63.3816 749.607 63.2111 749.704 63.1092 749.921C56.4427 751.267 49.7414 753.82 43.1192 753.63C36.0514 753.426 30.3774 748.958 28.0967 741.413C43.2898 738.301 57.9868 734.926 72.8718 733.015C90.889 730.702 109.038 729.039 127.181 728.208C141.079 727.57 155.068 728.407 168.995 729.048C184.2 729.749 199.428 730.526 214.558 732.109C229.33 733.653 243.997 736.217 258.699 738.404C277.808 741.246 296.907 744.159 316.001 747.412C315.414 749.649 314.835 751.514 313.966 754.315C316.969 755.191 319.894 756.83 322.757 756.729C330.332 756.459 332.84 758.972 330.994 766.078Z" fill="#393D64"/>
<path d="M1008.15 737.624C997.086 735.985 986.126 733.434 975.019 732.135C959.117 730.274 943.129 728.917 927.139 728.106C910.572 727.266 893.943 726.746 877.371 727.189C864.207 727.542 850.999 728.983 837.968 730.973C818.892 733.887 799.952 737.701 780.962 741.174C770.585 743.071 760.223 745.056 748.992 747.003C743.341 747.356 738.534 747.545 733.766 748.087C716.829 750.014 700.004 749.347 683.259 746.234C673.84 744.482 664.418 742.746 654.661 740.855C647.001 738.039 639.443 735.878 632.396 732.613C606.773 720.74 581.313 708.517 555.824 696.355C554.07 695.518 552.591 694.105 551.2 692.684C553.91 691.568 556.403 690.726 558.896 689.885C568.471 694.827 577.997 699.867 587.634 704.686C599.24 710.49 610.881 716.23 622.613 721.775C639.745 729.871 657.107 737.707 675.798 741.201C689.566 743.774 703.702 745.79 717.651 745.657C739.319 745.449 760.76 741.84 782.079 737.614C803.967 733.275 825.914 728.544 848.068 726.422C871.821 724.148 895.853 724.027 919.75 724.269C937.429 724.448 955.11 726.464 972.742 728.162C980.765 728.935 988.659 730.989 996.636 732.315C999.395 732.773 1002.23 732.785 1005.47 733.01C1006.68 734.436 1007.43 735.854 1008.15 737.624Z" fill="#5C5DA3"/>
<path d="M26.7897 734.239C28.7311 734.137 30.5272 734.628 32.2057 734.366C49.6645 731.639 67.0733 728.578 84.5565 726.025C114.613 721.635 144.912 722.655 175.108 723.238C191.578 723.556 208.038 725.97 224.438 727.972C247.064 730.735 269.647 733.873 292.215 737.089C315.672 740.431 339.12 743.429 362.907 743.069C381.984 742.781 400.096 738.452 417.15 730.3C444.457 717.248 471.498 703.637 498.586 690.131C505.253 686.807 511.719 683.064 518.16 679.312C519.387 678.597 520.06 676.931 521.442 675.339C524.607 674.957 527.318 674.94 529.991 675.279C528.565 676.961 527.38 678.646 525.76 679.554C515.058 685.557 504.436 691.74 493.463 697.213C468.384 709.721 443.283 722.214 417.846 733.967C407.717 738.648 396.677 741.36 385.611 744.974C384.336 744.994 383.475 744.877 382.674 745.044C365.156 748.694 347.619 746.647 330.158 744.848C316.015 743.39 301.967 741.005 287.874 739.055C267.88 736.288 247.92 733.225 227.876 730.875C207.993 728.544 188.054 725.851 168.085 725.306C145.702 724.695 123.247 726.072 100.844 727.072C90.1111 727.552 79.3594 728.717 68.7391 730.364C54.682 732.545 40.7454 735.503 26.7571 738.126C26.7014 736.912 26.6457 735.697 26.7897 734.239Z" fill="#2C3158"/>
<path d="M26.7207 738.444C40.7452 735.503 54.6817 732.545 68.7388 730.364C79.3592 728.717 90.1108 727.552 100.844 727.072C123.246 726.072 145.702 724.695 168.085 725.306C188.054 725.851 207.993 728.544 227.876 730.875C247.919 733.225 267.88 736.288 287.874 739.055C301.967 741.005 316.014 743.391 330.158 744.848C347.619 746.647 365.156 748.694 382.674 745.044C383.475 744.877 384.336 744.994 385.437 745.298C384.869 746.105 384.089 746.79 383.187 747.053C364.893 752.381 346.444 749.795 327.596 748.048C325.784 748.019 324.391 748.014 322.603 747.996C320.142 747.669 318.076 747.355 316.01 747.041C296.907 744.159 277.808 741.246 258.699 738.404C243.997 736.217 229.33 733.653 214.558 732.109C199.428 730.526 184.2 729.749 168.994 729.048C155.067 728.407 141.079 727.57 127.181 728.208C109.038 729.039 90.8887 730.702 72.8715 733.015C57.9865 734.926 43.2895 738.301 28.0838 741.042C27.3338 740.291 27.0092 739.526 26.7207 738.444Z" fill="#4E5178"/>
<path d="M356.176 332.967C355.208 329.605 354.24 326.243 353.246 322.481C356.488 314.763 362.513 311.549 370.543 310.626C375.234 311.649 379.878 312.065 383.73 314.031C391.3 317.893 392.859 325.17 387.982 332.902C386.279 334.563 385.073 335.776 383.478 337C375.8 339.99 368.514 339.338 360.994 336.692C359.543 336.119 358.327 335.844 357.106 335.272C356.792 334.306 356.484 333.636 356.176 332.967Z" fill="#43486E"/>
<path d="M63.0811 750.433C63.2114 749.704 63.3819 749.607 63.9177 750.003C64.8097 750.603 65.4052 750.83 66.0006 751.058C65.2277 751.702 64.4548 752.345 63.3293 752.99C63.002 752.309 63.0274 751.627 63.0811 750.433Z" fill="#D6D9F9"/>
<path d="M678.013 360.793C680.777 363.191 683.542 365.59 686.938 368.187C689.071 369.918 690.573 371.451 692.206 373.286C710.085 392.118 720.888 414.191 724.977 439.398C727.753 456.507 729.674 473.755 731.519 491.036C707.811 491.172 684.562 491.192 661.314 491.279C659.201 491.287 657.089 491.716 654.603 491.924C651.101 493.905 647.972 495.91 644.527 498.072C642.818 502.881 640.326 507.51 640.225 512.19C639.79 532.312 640.029 552.448 640.08 572.58C640.115 586.049 640.246 599.519 640.237 613.43C639.807 632.76 646.005 639.048 664.967 639.089C691.287 639.145 717.606 639.212 743.952 639.725C744.025 648.168 744.073 656.159 744.121 664.151C736.352 664.697 728.589 665.363 720.813 665.767C698.221 666.941 675.616 667.884 653.03 669.161C634.775 670.193 616.541 671.579 597.879 672.583C597.461 672.359 597.252 671.984 597.428 671.62C598.095 645.503 599.974 619.683 598.726 594.015C597.162 561.84 593.849 529.682 589.647 497.733C587.698 482.914 581.864 468.605 578.134 453.916C579.097 452.637 579.929 451.574 580.31 450.368C588.548 424.336 600.632 400.635 621.341 382.094C621.992 381.51 622.242 380.479 622.679 379.656C597.882 397.889 584.381 423.124 576.392 451.669C567.405 431.954 555.599 414.599 540.898 399.199C543.067 397.49 545.111 395.585 547.425 394.103C574.868 376.528 604.816 365.676 637.023 360.969C642.073 360.231 647.144 359.644 652.985 359.1C661.584 363.758 669.798 362.283 678.013 360.793ZM638.501 368.994C638.778 368.867 639.055 368.739 639.332 368.612C639.242 368.487 639.079 368.248 639.07 368.254C638.7 368.485 638.343 368.738 637.697 369.104C637.802 369.074 637.907 369.045 638.501 368.994ZM629.663 374.974C630.455 374.327 631.247 373.679 632.326 372.901C632.206 372.92 632.086 372.94 631.266 372.976C630.499 373.638 629.731 374.301 628.376 375.013C627.906 375.327 627.436 375.641 626.316 376.041C625.609 376.706 624.902 377.371 624.195 378.036C624.605 378.348 625.015 378.659 625.424 378.971C625.968 377.999 626.511 377.028 627.64 376.001C628.101 375.678 628.562 375.355 629.663 374.974ZM635.574 371.296C635.362 371.009 635.149 370.722 634.936 370.435C634.75 370.613 634.563 370.79 634.377 370.968C634.655 371.192 634.934 371.416 635.574 371.296Z" fill="#EFF1FE"/>
<path d="M540.595 399.05C555.599 414.599 567.405 431.954 576.401 451.919C577.03 452.997 577.411 453.531 577.792 454.065C581.864 468.605 587.698 482.914 589.647 497.733C593.849 529.682 597.162 561.84 598.726 594.015C599.974 619.683 598.095 645.503 596.948 671.623C580.86 672.658 565.427 673.327 550.005 673.604C558.734 645.917 560.215 617.629 560.827 589.335C561.138 574.954 559.927 560.518 558.943 546.138C557.927 531.303 557.044 516.405 554.877 501.715C550.47 471.847 540.867 443.846 523.055 418.984C503.433 391.593 478.337 371.063 447.409 357.81C435.82 352.843 423.894 348.66 410.636 348.898C404.621 345.118 398.899 341.508 393.233 337.811C391.414 336.624 389.745 335.21 388.008 333.899C411.81 335.827 435.096 340.25 457.707 348.075C489.007 358.907 516.665 375.62 540.595 399.05Z" fill="#3C4066"/>
<path d="M388.05 333.682C389.746 335.209 391.415 336.624 393.233 337.81C398.899 341.508 404.622 345.118 410.794 349.195C427.217 362.783 441.738 377.245 453.297 394.544C470.212 419.86 481.178 447.612 488.242 477.114C494.204 502.011 497.839 527.253 498.718 552.76C499.369 571.668 498.434 590.643 497.808 609.576C497.569 616.828 496.529 624.094 495.322 631.264C492.985 645.14 490.27 658.952 487.712 672.791C486.59 672.702 485.468 672.614 484.151 671.876C484.12 670.245 484.289 669.264 484.447 668.283C487.949 646.554 493.263 624.931 494.535 603.072C496.542 568.605 495.549 534.046 489.192 499.809C483.297 468.06 474.406 437.478 458.167 409.351C446.078 388.413 430.879 370.027 411.711 355.267C402.939 348.513 393.178 343.042 383.866 336.989C385.073 335.776 386.28 334.563 387.765 333.187C388.043 333.024 388.092 333.464 388.05 333.682Z" fill="#7A7EA5"/>
<path d="M678.147 360.524C669.798 362.283 661.585 363.758 653.429 359.078C644.42 348.603 647.592 337.84 660.901 334.89C665.899 333.783 671.935 334.39 676.776 336.173C686.756 339.85 688.654 348.836 682.013 357.669C680.658 358.742 679.47 359.499 678.147 360.524Z" fill="#878ACA"/>
<path d="M549.996 673.995C565.428 673.327 580.861 672.658 596.773 671.987C597.252 671.984 597.462 672.359 597.489 672.572C594.124 675.186 590.926 677.955 587.282 679.88C583.988 681.62 580.207 682.44 575.998 683.836C574.562 684.601 573.768 685.195 572.974 685.789C568.465 686.999 563.957 688.209 559.173 689.652C556.404 690.726 553.911 691.567 550.801 692.682C542.789 695.89 535.393 698.825 527.996 701.76C518.277 705.968 508.104 709.372 498.937 714.556C481.28 724.538 464.41 735.907 446.821 746.016C415.264 764.153 381.067 770.728 344.404 767.368C343.035 766.785 342.181 766.593 341.328 766.402C338.137 766.405 334.947 766.409 331.376 766.245C332.84 758.973 330.333 756.459 322.758 756.729C319.895 756.831 316.969 755.191 313.967 754.315C314.836 751.514 315.414 749.649 316.002 747.412C318.077 747.355 320.143 747.669 322.644 748.349C325.209 752.224 326.82 751.747 328.014 748.073C346.445 749.795 364.894 752.381 383.188 747.053C384.09 746.79 384.87 746.105 385.88 745.293C396.678 741.36 407.717 738.648 417.847 733.967C443.283 722.214 468.384 709.722 493.464 697.213C504.437 691.74 515.059 685.557 525.76 679.555C527.381 678.646 528.566 676.961 530.372 675.124C537.194 674.407 543.595 674.201 549.996 673.995Z" fill="#34385F"/>
<path d="M528.125 702.103C535.392 698.825 542.789 695.89 550.584 692.957C552.591 694.105 554.07 695.518 555.824 696.355C581.313 708.516 606.773 720.74 632.396 732.613C639.443 735.878 647.001 738.038 654.624 741.205C654.596 742.267 654.399 743.15 653.923 743.342C649.178 745.254 647.232 747.834 649.693 753.241C651.032 756.184 650.495 759.934 646.117 761.244C645.573 761.407 645.317 762.535 644.928 763.215C628.057 758.792 612.682 750.953 597.8 742.143C580.656 731.994 563.821 721.324 546.657 711.21C540.826 707.774 534.405 705.339 528.125 702.103Z" fill="#6F71B6"/>
<path d="M645.21 763.442C645.317 762.535 645.572 761.407 646.117 761.245C650.495 759.935 651.032 756.184 649.692 753.241C647.232 747.835 649.177 745.254 653.923 743.342C654.399 743.151 654.596 742.267 654.96 741.354C664.418 742.746 673.84 744.482 683.259 746.234C700.004 749.347 716.829 750.013 733.766 748.087C738.533 747.544 743.341 747.356 748.563 747.006C750.223 748.093 751.449 749.178 753.035 750.582C752.102 751.789 751.074 753.121 749.731 754.86C751.659 756.224 753.525 757.544 755.372 758.852C753.922 761.374 752.969 763.031 751.973 765.086C716.323 772.372 680.797 774.524 645.21 763.442Z" fill="#6A6CB1"/>
<path d="M67.9854 749.147C73.6947 748.435 79.4041 747.723 85.5558 747.064C85.6663 747.654 85.3997 748.598 84.9928 748.663C79.6438 749.516 74.275 750.246 68.4706 750.699C68.0151 749.977 68.0002 749.562 67.9854 749.147Z" fill="#D6D9F9"/>
<path d="M67.6346 749.118C68 749.562 68.0148 749.977 68.0416 750.703C67.5967 751.014 67.14 751.013 66.3419 751.035C65.4051 750.83 64.8097 750.603 64.0449 750.094C65.0118 749.572 66.148 749.331 67.6346 749.118Z" fill="white"/>
<path d="M341.382 766.745C342.181 766.593 343.035 766.785 343.952 767.244C343.155 767.371 342.296 767.23 341.382 766.745Z" fill="#393D64"/>
<path d="M383.479 337C393.179 343.042 402.939 348.513 411.711 355.267C430.879 370.027 446.078 388.413 458.167 409.351C474.407 437.478 483.297 468.06 489.192 499.809C495.549 534.046 496.542 568.605 494.535 603.072C493.263 624.931 487.949 646.554 484.447 668.283C484.289 669.264 484.12 670.245 483.902 671.639C465.776 671.362 447.699 670.739 429.63 669.956C417.214 669.418 404.809 668.648 392.399 667.996C373.035 666.98 353.67 665.97 334.306 664.968C321.396 664.3 308.487 663.635 295.576 663.001C283.993 662.433 272.408 661.91 260.48 660.727C260.056 648.408 259.976 636.729 260.371 625.029C310.848 625.006 360.851 624.685 410.845 625.216C423.852 625.355 432.762 613.286 432.861 602.876C433.212 565.879 433.054 528.877 432.871 491.878C432.859 489.574 430.977 487.279 429.929 484.6C427.787 472.745 420.023 464.651 405.701 464.783C361.125 465.194 316.542 464.922 271.995 464.512C273.369 456.752 274.292 449.288 276.122 442.054C286.553 400.802 307.9 367.326 345.619 345.722C350.793 342.759 356.025 339.898 361.23 336.99C368.514 339.338 375.801 339.99 383.479 337Z" fill="#494E74"/>
<path d="M355.85 333.232C356.484 333.637 356.792 334.306 356.783 335.474C323.276 351.366 298.728 375.39 283.669 408.884C275.766 426.461 271.186 444.966 267.832 463.972C251.669 464 236.004 463.941 220.34 464.035C207.404 464.112 198.059 472.935 198.035 485.242C197.961 524.07 197.978 562.897 198.03 601.725C198.043 611.733 206.301 620.879 216.321 622.615C218.942 623.633 221.526 624.827 224.141 624.902C235.163 625.22 246.194 625.204 257.197 625.759C257.144 637.774 257.117 649.341 257.089 660.907C230.379 660.623 203.67 660.165 176.96 660.153C168.215 660.15 159.469 661.307 150.274 661.892C149.599 635.732 148.504 609.585 149.381 583.504C150.335 555.094 152.102 526.629 155.316 498.393C161.848 441.022 190.276 397.26 240.299 367.961C272.106 349.332 306.613 338.917 343.137 334.855C347.265 334.396 351.396 333.949 355.85 333.232Z" fill="#7277A1"/>
<path d="M550.005 673.603C543.594 674.201 537.193 674.407 530.411 674.769C527.318 674.94 524.607 674.957 521.444 674.964C514.689 674.306 508.396 673.497 502.077 673.061C497.637 672.755 493.161 672.956 488.206 672.86C490.27 658.952 492.984 645.14 495.321 631.264C496.529 624.094 497.568 616.828 497.808 609.576C498.433 590.643 499.368 571.668 498.717 552.76C497.839 527.253 494.204 502.011 488.242 477.113C481.178 447.612 470.212 419.86 453.296 394.544C441.737 377.245 427.216 362.783 411.107 349.329C423.894 348.66 435.82 352.843 447.409 357.809C478.337 371.063 503.433 391.593 523.055 418.983C540.867 443.845 550.47 471.846 554.877 501.714C557.044 516.404 557.927 531.303 558.943 546.138C559.927 560.518 561.138 574.954 560.827 589.335C560.215 617.629 558.734 645.916 550.005 673.603Z" fill="#4A4E74"/>
<path d="M343.344 708.436C343.542 714.271 347.719 716.222 351.943 717.82C362.554 721.834 373.338 720.819 383.619 717.11C406.853 708.728 429.869 699.744 452.976 691.008C461.819 687.665 470.652 684.291 479.527 681.031C481.093 680.456 482.841 680.377 484.504 680.068C484.76 680.71 485.016 681.351 485.272 681.993C482.549 683.272 479.894 684.731 477.091 685.801C461.157 691.886 445.238 698.018 429.214 703.86C413.661 709.53 398.135 715.355 382.313 720.184C371.666 723.433 360.563 723.891 349.663 720.086C345.014 718.462 341.033 716.102 340.1 710.986C339.119 705.611 342.471 701.803 346.15 698.592C349.124 695.997 352.549 693.917 355.774 691.608C356.156 692.048 356.537 692.488 356.918 692.928C352.439 697.984 347.96 703.04 343.344 708.436Z" fill="#2C3158"/>
<path d="M257.458 660.972C257.117 649.341 257.144 637.774 257.526 625.694C258.552 625.137 259.223 625.093 259.894 625.05C259.975 636.729 260.056 648.408 260.103 660.557C259.322 661.031 258.574 661.034 257.458 660.972Z" fill="#BFC2E2"/>
<path d="M744.579 664.148C744.073 656.159 744.026 648.167 744.419 639.635C756.861 638.935 768.862 638.776 781.214 638.772C783.708 638.914 785.852 638.9 788.445 638.95C792.596 638.677 796.298 638.34 800.348 637.951C809.334 633.722 812.941 626.647 812.924 617.26C812.859 582.807 812.9 548.354 812.874 513.901C812.863 499.17 804.792 491.201 789.923 491.156C771.949 491.101 753.976 491.052 736.005 490.544C735.01 479.749 733.998 469.413 733.016 459.074C731.386 441.903 728.521 424.983 721.427 409.126C719.204 404.157 715.839 399.698 712.998 395.003C713 395 712.995 395.001 713 394.639C712.002 392.519 710.999 390.762 709.998 389.002C710 389 709.995 389.003 709.969 388.673C708.96 387.228 707.977 386.113 706.997 384.999C707 385 707 385.007 706.958 384.68C706.258 383.902 705.599 383.45 704.667 382.864C703.597 381.829 702.8 380.929 701.997 379.794C701.659 379.372 701.326 379.186 700.692 378.854C697.62 376.799 694.847 374.891 692.075 372.983C690.573 371.45 689.072 369.918 687.288 368.232C687.176 367.17 687.346 366.262 687.621 364.798C689.656 366.199 691.975 366.952 692.714 368.473C694.544 372.237 698.139 372.843 701.079 372.678C711.458 372.097 720.221 377.249 729.727 379.728C743.474 383.312 755.177 390.962 767.262 397.863C774.587 402.046 782.164 405.993 788.814 411.105C797.914 418.1 805.325 426.849 811.022 436.969C816.958 447.513 823.619 457.678 829.072 468.459C838.028 486.164 843.816 505.108 846.741 524.659C849.329 541.957 850.938 559.463 851.842 576.935C852.88 597.006 852.787 617.141 852.911 637.25C852.94 641.998 851.53 646.746 851.425 651.509C851.355 654.691 852.422 657.897 852.987 661.472C844.525 661.876 836.053 661.746 827.589 661.951C800.07 662.616 772.554 663.405 744.579 664.148Z" fill="#C5C6F4"/>
<path d="M573.154 686.109C573.767 685.195 574.562 684.601 575.667 683.997C586.468 688.055 596.925 692.205 607.453 696.169C625.308 702.892 643.083 709.864 661.143 715.989C669.535 718.835 678.453 720.394 687.26 721.622C691.144 722.163 695.533 720.959 699.363 719.611C707.266 716.83 708.118 709.576 701.527 704.296C698.263 701.681 695.088 698.955 692.48 695.295C693.374 695.392 694.544 695.159 695.117 695.639C699.414 699.24 704.618 702.308 707.591 706.824C713.452 715.725 703.338 723.103 693.671 723.948C683.276 724.856 673.068 723.407 663.302 719.89C638.803 711.067 614.397 701.988 589.974 692.958C584.386 690.892 578.879 688.611 573.154 686.109Z" fill="#5C5DA3"/>
<path d="M327.596 748.048C326.819 751.747 325.208 752.224 323.038 748.362C324.391 748.014 325.785 748.019 327.596 748.048Z" fill="#393D64"/>
<path d="M268.332 463.951C271.186 444.966 275.766 426.461 283.669 408.883C298.728 375.39 323.276 351.366 356.789 335.771C358.328 335.844 359.543 336.119 360.994 336.692C356.024 339.898 350.792 342.759 345.619 345.722C307.899 367.326 286.553 400.802 276.121 442.054C274.292 449.288 273.369 456.752 271.671 464.493C270.32 464.568 269.326 464.26 268.332 463.951Z" fill="#BFC2E2"/>
<path d="M736.002 491.001C753.975 491.052 771.949 491.101 789.922 491.156C804.792 491.201 812.863 499.17 812.874 513.901C812.9 548.354 812.858 582.807 812.923 617.26C812.941 626.647 809.334 633.722 800.347 637.562C798.376 633.714 797.01 630.05 795.052 626.736C793.326 623.815 791.2 621.469 786.884 621.763C784.075 621.955 780.476 621.065 780.366 616.768C792.61 614.834 793.946 613.248 793.948 600.996C793.953 574.869 793.972 548.742 793.963 522.615C793.96 512.898 790.132 509.098 780.319 509.095C744.706 509.086 709.094 509.106 673.482 509.108C661.408 509.108 659.597 510.76 657.991 522.941C656.09 523.867 654.621 524.771 653.152 525.676C654.721 526.128 656.287 526.595 657.864 527.019C658.17 527.102 658.521 527.016 658.906 527.473C658.936 540.29 658.912 552.642 658.499 564.997C650.252 566.263 649.349 567.599 650.693 575.531C651.214 578.609 650.397 580.852 647.054 582.156C645.705 582.683 644.213 584.823 644.139 586.297C643.815 592.682 644.182 599.1 643.897 605.489C643.772 608.287 644.586 611.968 640.335 612.988C640.247 599.518 640.115 586.049 640.081 572.579C640.029 552.448 639.79 532.311 640.225 512.19C640.326 507.509 642.818 502.881 644.84 498.22C646.93 499.449 648.391 500.686 649.889 501.954C654.03 499.628 655.062 496.071 654.977 491.949C657.09 491.715 659.201 491.286 661.314 491.278C684.562 491.192 707.811 491.171 731.776 491.086C732.664 491.009 732.836 490.978 733.378 491.024C734.5 491.067 735.251 491.034 736.002 491.001ZM653.158 544.32C652.19 543.473 651.222 542.625 650.048 541.596C648.782 544.262 647.375 546.116 647.107 548.123C646.866 549.924 647.39 552.3 648.512 553.64C649.232 554.501 651.842 554.465 653.259 553.925C656.771 552.584 656.765 549.846 653.158 544.32Z" fill="#5E5DA9"/>
<path d="M779.995 616.898C780.476 621.065 784.075 621.955 786.884 621.763C791.2 621.469 793.326 623.815 795.052 626.737C797.01 630.05 798.376 633.714 799.999 637.614C796.298 638.34 792.596 638.677 788.43 638.557C785.297 634.942 782.955 635.112 780.862 638.616C768.861 638.776 756.86 638.935 744.393 639.184C717.606 639.212 691.287 639.145 664.967 639.088C646.005 639.048 639.807 632.759 640.238 613.43C644.586 611.968 643.772 608.287 643.897 605.489C644.182 599.1 643.815 592.682 644.139 586.297C644.213 584.823 645.705 582.683 647.054 582.156C650.397 580.852 651.214 578.609 650.693 575.531C649.349 567.599 650.252 566.263 658.555 565.463C659.02 577.918 659.04 589.909 659.06 601.899C659.08 613.414 662.428 616.907 673.86 616.819C688.124 616.709 702.385 616.271 716.649 616.187C735.8 616.074 754.952 616.143 774.104 616.199C776.068 616.205 778.031 616.654 779.995 616.898Z" fill="#6160AD"/>
<path d="M733.008 490.947C732.836 490.978 732.664 491.009 732.235 490.99C729.675 473.754 727.754 456.507 724.978 439.398C720.888 414.19 710.086 392.118 692.206 373.285C694.847 374.891 697.62 376.799 700.806 379.074C701.423 379.714 701.684 379.91 702.002 380.03C702.8 380.929 703.597 381.829 704.729 383.184C705.708 384.095 706.354 384.551 707 385.007C707 385.007 707 385 706.998 385.364C707.995 386.819 708.995 387.911 709.995 389.003C709.995 389.003 710 389 709.994 389.364C710.99 391.485 711.992 393.243 712.995 395.001C712.995 395.001 713 395 713.034 395.363C716.464 403.293 720.575 410.627 723.121 418.47C730.757 441.983 733 466.337 733.008 490.947Z" fill="#C2C3F2"/>
<path d="M578.134 453.916C577.412 453.531 577.031 452.997 576.642 452.212C584.382 423.123 597.883 397.889 622.68 379.656C622.243 380.479 621.993 381.51 621.341 382.094C600.633 400.635 588.548 424.336 580.311 450.368C579.929 451.574 579.098 452.637 578.134 453.916Z" fill="#D6D9F9"/>
<path d="M654.604 491.924C655.062 496.072 654.03 499.628 649.889 501.955C648.391 500.686 646.93 499.449 645.156 498.064C647.972 495.91 651.101 493.905 654.604 491.924Z" fill="#6160AD"/>
<path d="M627.055 376.056C626.512 377.028 625.969 377.999 625.425 378.971C625.016 378.659 624.606 378.348 624.196 378.036C624.903 377.371 625.61 376.706 626.663 376.024C627.009 376.007 627.055 376.056 627.055 376.056Z" fill="#D6D9F9"/>
<path d="M628.965 374.964C629.732 374.301 630.5 373.638 631.634 372.986C632.001 372.997 632.039 373.031 632.039 373.031C631.248 373.679 630.456 374.326 629.33 374.985C628.996 374.996 628.965 374.964 628.965 374.964Z" fill="#D6D9F9"/>
<path d="M635.393 371.468C634.934 371.416 634.656 371.192 634.377 370.968C634.564 370.79 634.75 370.613 634.937 370.435C635.149 370.722 635.362 371.009 635.393 371.468Z" fill="#D6D9F9"/>
<path d="M626.988 375.981C627.437 375.64 627.907 375.327 628.671 374.988C628.965 374.964 628.996 374.996 629.01 375.014C628.563 375.355 628.102 375.678 627.348 376.028C627.055 376.056 627.009 376.007 626.988 375.981Z" fill="#D6D9F9"/>
<path d="M637.985 368.989C638.344 368.738 638.7 368.485 639.071 368.254C639.08 368.248 639.242 368.487 639.333 368.612C639.056 368.739 638.778 368.866 638.251 368.997C638 369 637.985 368.989 637.985 368.989Z" fill="#D6D9F9"/>
<path d="M631.983 372.979C632.086 372.94 632.206 372.92 632.182 372.966C632.038 373.032 632 372.998 631.983 372.979Z" fill="#D6D9F9"/>
<path d="M638.006 369.008C637.907 369.045 637.802 369.074 637.841 369.046C637.985 368.988 638 369 638.006 369.008Z" fill="#D6D9F9"/>
<path d="M267.832 463.972C269.326 464.26 270.32 464.568 271.638 464.896C316.542 464.922 361.124 465.194 405.701 464.783C420.022 464.652 427.787 472.745 429.9 485.07C429.916 523.554 429.936 561.188 429.93 598.821C429.927 614.782 421.927 622.875 406.042 622.888C344.929 622.939 283.816 622.957 222.704 622.946C220.569 622.946 218.434 622.509 216.299 622.275C206.3 620.879 198.043 611.733 198.03 601.725C197.978 562.897 197.961 524.069 198.035 485.242C198.059 472.935 207.404 464.112 220.34 464.035C236.004 463.941 251.668 464 267.832 463.972ZM285.5 507.984C318.476 507.991 351.453 508.032 384.43 507.986C396.518 507.969 394.897 509.399 394.982 497.291C395.032 490.151 394.983 490.142 387.721 490.142C338.089 490.141 288.457 490.143 238.826 490.145C224.623 490.146 227.431 489.44 226.917 501.759C226.72 506.46 228.09 508.172 233.037 508.094C250.188 507.821 267.345 507.986 285.5 507.984ZM239.527 566.941C227.026 566.949 227.275 566.957 226.905 578.151C226.743 583.068 228.366 584.211 233.073 584.197C283.014 584.041 332.956 584.102 382.898 584.11C394.014 584.112 393.76 584.116 394.117 573.263C394.28 568.322 393.081 566.77 387.845 566.793C338.737 567.016 289.627 566.934 239.527 566.941ZM308.5 528.338C284.692 528.329 260.885 528.289 237.078 528.326C226.416 528.343 228.354 526.938 228.009 537.751C227.917 540.613 228.625 541.974 231.836 541.97C275.954 541.909 320.072 541.949 364.19 541.926C365.293 541.925 367.323 541.567 367.355 541.227C367.709 537.473 368.037 533.659 367.631 529.941C367.553 529.23 364.257 528.429 362.441 528.417C344.794 528.3 327.147 528.342 308.5 528.338ZM309.468 605.948C311.96 605.947 314.52 606.294 316.922 605.829C318.642 605.496 320.151 604.076 321.755 603.141C320.186 602.077 318.645 600.143 317.043 600.092C307.914 599.801 298.766 599.811 289.637 600.106C288.083 600.156 286.59 602.085 285.069 603.145C286.558 604.075 288.012 605.733 289.543 605.808C295.842 606.117 302.165 605.944 309.468 605.948ZM334.868 600.956C333.207 604.401 335.292 605.757 338.109 605.823C346.879 606.03 355.659 606.028 364.428 605.815C365.578 605.788 366.687 604.066 367.816 603.128C366.624 602.084 365.442 600.15 364.239 600.136C354.662 600.025 345.08 600.279 334.868 600.956ZM249.183 605.917C254.976 605.921 260.779 606.12 266.554 605.795C268.029 605.713 269.41 603.975 270.835 602.997C269.434 601.991 268.081 600.206 266.623 600.116C261.016 599.768 255.372 599.835 249.753 600.047C248.361 600.099 247.012 601.278 245.644 601.938C246.542 603.241 247.441 604.543 249.183 605.917ZM305.497 519.978C309.496 519.981 313.504 520.124 317.491 519.9C318.679 519.834 319.809 518.74 320.966 518.118C319.925 517.388 318.894 516.044 317.84 516.026C308.344 515.865 298.843 515.885 289.345 516.016C288.312 516.03 287.292 517.082 286.267 517.652C287.345 518.42 288.392 519.794 289.506 519.85C294.493 520.097 299.5 519.968 305.497 519.978ZM308.485 551.911C302.167 551.918 295.846 551.841 289.533 552.017C288.507 552.046 287.512 553.192 286.503 553.821C287.445 554.524 288.377 555.822 289.33 555.838C298.971 555.997 308.616 556.003 318.258 555.859C319.152 555.846 320.027 554.509 320.912 553.787C319.926 553.167 318.981 552.106 317.948 552.013C315.144 551.759 312.303 551.916 308.485 551.911ZM267.369 555.935C268.035 555.936 268.779 556.13 269.351 555.9C270.926 555.266 272.43 554.454 273.962 553.713C272.441 553.12 270.934 552.062 269.398 552.017C262.913 551.824 256.417 551.851 249.931 552.005C248.694 552.035 247.479 553.006 246.254 553.542C247.477 554.336 248.671 555.757 249.928 555.815C255.408 556.071 260.906 555.932 267.369 555.935ZM260.473 515.941C256.644 515.945 252.811 515.853 248.99 516.02C248.047 516.062 247.142 516.949 246.219 517.447C247.07 518.275 247.9 519.794 248.775 519.82C255.426 520.02 262.089 519.994 268.742 519.834C269.481 519.816 270.19 518.513 270.912 517.806C270.09 517.199 269.315 516.166 268.436 516.067C266.133 515.808 263.784 515.956 260.473 515.941Z" fill="#7877C9"/>
<path d="M216.321 622.614C218.434 622.509 220.569 622.945 222.704 622.946C283.817 622.957 344.929 622.938 406.042 622.888C421.927 622.875 429.927 614.782 429.93 598.821C429.936 561.187 429.916 523.554 429.936 485.45C430.976 487.279 432.859 489.574 432.87 491.878C433.053 528.877 433.211 565.879 432.861 602.876C432.762 613.286 423.851 625.354 410.845 625.216C360.85 624.685 310.847 625.006 260.371 625.029C259.223 625.093 258.552 625.136 257.551 625.245C246.194 625.204 235.163 625.22 224.141 624.902C221.526 624.826 218.942 623.633 216.321 622.614Z" fill="#3E406E"/>
<path d="M733.378 491.024C733 466.337 730.757 441.983 723.121 418.47C720.574 410.627 716.464 403.293 713.032 395.366C715.839 399.698 719.204 404.156 721.427 409.126C728.521 424.983 731.385 441.903 733.016 459.074C733.998 469.413 735.009 479.749 736.005 490.544C735.251 491.034 734.5 491.067 733.378 491.024Z" fill="#D6D9F9"/>
<path d="M781.214 638.772C782.956 635.112 785.298 634.942 787.981 638.493C785.852 638.9 783.708 638.914 781.214 638.772Z" fill="#5E5DA9"/>
<path d="M713 394.639C711.992 393.244 710.99 391.486 709.992 389.366C710.999 390.762 712.002 392.519 713 394.639Z" fill="#D6D9F9"/>
<path d="M709.969 388.673C708.995 387.912 707.995 386.82 706.994 385.363C707.976 386.114 708.96 387.228 709.969 388.673Z" fill="#D6D9F9"/>
<path d="M706.958 384.68C706.354 384.551 705.708 384.095 705.001 383.319C705.599 383.45 706.258 383.902 706.958 384.68Z" fill="#D6D9F9"/>
<path d="M701.997 379.794C701.683 379.91 701.422 379.714 701.105 379.221C701.325 379.187 701.658 379.372 701.997 379.794Z" fill="#D6D9F9"/>
<path d="M780.366 616.768C778.031 616.655 776.068 616.205 774.104 616.199C754.952 616.143 735.8 616.074 716.649 616.187C702.385 616.271 688.124 616.709 673.861 616.819C662.428 616.907 659.081 613.414 659.061 601.9C659.04 589.909 659.02 577.919 658.944 565.462C658.912 552.643 658.937 540.29 658.966 527.119C658.788 525.174 658.605 524.048 658.423 522.921C659.598 510.76 661.409 509.108 673.482 509.108C709.094 509.106 744.707 509.087 780.319 509.096C790.132 509.098 793.96 512.898 793.963 522.615C793.972 548.742 793.953 574.869 793.949 600.996C793.947 613.248 792.611 614.834 780.366 616.768ZM722.933 579.544C725.907 582.1 728.881 584.656 731.814 587.177C735.351 584.166 738.545 581.766 741.353 578.978C745.223 575.136 749.302 571.346 752.37 566.898C755.782 561.952 754.132 556.194 749.402 552.897C745.468 550.156 740.012 551.336 736.18 555.762C734.911 557.227 733.652 558.7 731.677 560.998C729.235 558.246 727.38 555.671 725.056 553.633C719.575 548.826 712.204 550.808 710.792 557.881C710.122 561.237 710.915 565.624 712.687 568.55C715.11 572.55 719.097 575.602 722.933 579.544Z" fill="#A9ACEB"/>
<path d="M653.361 544.638C656.766 549.846 656.771 552.584 653.259 553.925C651.842 554.466 649.232 554.501 648.512 553.641C647.391 552.3 646.867 549.924 647.107 548.123C647.376 546.116 648.783 544.262 650.048 541.596C651.223 542.625 652.19 543.473 653.361 544.638Z" fill="#6160AD"/>
<path d="M657.992 522.941C658.606 524.047 658.788 525.174 658.912 526.654C658.522 527.016 658.171 527.102 657.864 527.019C656.287 526.595 654.722 526.128 653.152 525.676C654.622 524.771 656.091 523.867 657.992 522.941Z" fill="#6160AD"/>
<path d="M285 507.984C267.346 507.986 250.189 507.821 233.038 508.093C228.091 508.172 226.721 506.46 226.917 501.759C227.432 489.44 224.624 490.146 238.827 490.145C288.458 490.143 338.09 490.141 387.722 490.142C394.984 490.142 395.032 490.151 394.982 497.291C394.898 509.399 396.519 507.969 384.431 507.986C351.454 508.032 318.477 507.991 285 507.984Z" fill="#C1C5F3"/>
<path d="M240.022 566.94C289.627 566.933 338.737 567.015 387.845 566.793C393.082 566.77 394.28 568.322 394.117 573.263C393.76 584.116 394.015 584.112 382.898 584.11C332.956 584.101 283.015 584.04 233.073 584.196C228.367 584.211 226.743 583.068 226.905 578.151C227.275 566.957 227.027 566.949 240.022 566.94Z" fill="#C3C7F3"/>
<path d="M309 528.338C327.148 528.342 344.795 528.3 362.441 528.417C364.258 528.429 367.554 529.23 367.632 529.941C368.038 533.659 367.71 537.473 367.356 541.227C367.324 541.567 365.293 541.925 364.191 541.926C320.073 541.949 275.955 541.908 231.837 541.97C228.625 541.974 227.918 540.613 228.009 537.751C228.355 526.937 226.416 528.343 237.079 528.326C260.886 528.289 284.693 528.329 309 528.338Z" fill="#FBFBFE"/>
<path d="M308.974 605.948C302.165 605.944 295.843 606.117 289.544 605.808C288.012 605.733 286.559 604.075 285.069 603.145C286.591 602.085 288.084 600.156 289.637 600.106C298.767 599.811 307.915 599.801 317.044 600.092C318.645 600.143 320.186 602.077 321.755 603.141C320.152 604.076 318.643 605.496 316.923 605.829C314.52 606.294 311.961 605.947 308.974 605.948Z" fill="#CACDF7"/>
<path d="M335.184 600.689C345.08 600.279 354.662 600.025 364.239 600.136C365.443 600.15 366.624 602.084 367.816 603.128C366.688 604.066 365.578 605.788 364.428 605.815C355.659 606.028 346.879 606.03 338.109 605.823C335.292 605.757 333.207 604.401 335.184 600.689Z" fill="#CACDF7"/>
<path d="M248.762 605.881C247.441 604.543 246.543 603.241 245.645 601.938C247.013 601.278 248.362 600.099 249.753 600.047C255.372 599.835 261.017 599.768 266.623 600.116C268.081 600.206 269.434 601.991 270.836 602.997C269.411 603.975 268.029 605.713 266.554 605.796C260.78 606.12 254.976 605.921 248.762 605.881Z" fill="#CACDF7"/>
<path d="M304.999 519.976C299.501 519.967 294.494 520.096 289.506 519.849C288.393 519.794 287.345 518.419 286.268 517.652C287.293 517.082 288.312 516.03 289.346 516.016C298.843 515.884 308.345 515.865 317.841 516.026C318.895 516.043 319.925 517.388 320.967 518.117C319.81 518.74 318.68 519.833 317.492 519.9C313.505 520.123 309.497 519.98 304.999 519.976Z" fill="#CACDF7"/>
<path d="M308.981 551.911C312.303 551.916 315.145 551.759 317.949 552.013C318.982 552.106 319.927 553.167 320.912 553.787C320.028 554.509 319.153 555.846 318.258 555.859C308.617 556.003 298.972 555.997 289.331 555.838C288.378 555.822 287.446 554.524 286.504 553.821C287.513 553.192 288.508 552.046 289.533 552.017C295.847 551.841 302.168 551.918 308.981 551.911Z" fill="#CACDF7"/>
<path d="M266.884 555.936C260.907 555.932 255.408 556.072 249.928 555.815C248.671 555.757 247.478 554.336 246.255 553.542C247.48 553.006 248.694 552.035 249.931 552.005C256.418 551.851 262.913 551.824 269.398 552.017C270.935 552.062 272.442 553.12 273.962 553.713C272.43 554.454 270.927 555.266 269.352 555.9C268.779 556.13 268.035 555.936 266.884 555.936Z" fill="#CACDF7"/>
<path d="M260.964 515.941C263.785 515.956 266.133 515.808 268.436 516.067C269.316 516.166 270.09 517.198 270.912 517.805C270.19 518.512 269.482 519.816 268.743 519.833C262.089 519.994 255.427 520.02 248.775 519.82C247.9 519.794 247.07 518.275 246.22 517.447C247.142 516.949 248.048 516.062 248.99 516.02C252.812 515.852 256.644 515.944 260.964 515.941Z" fill="#CACDF7"/>
<path d="M722.674 579.302C719.097 575.602 715.11 572.55 712.687 568.55C710.915 565.625 710.122 561.237 710.792 557.881C712.205 550.808 719.575 548.826 725.056 553.633C727.381 555.671 729.235 558.246 731.677 560.998C733.653 558.7 734.911 557.227 736.18 555.762C740.012 551.336 745.468 550.156 749.402 552.897C754.133 556.194 755.782 561.952 752.37 566.898C749.302 571.346 745.223 575.136 741.353 578.978C738.546 581.767 735.351 584.166 731.814 587.177C728.881 584.656 725.907 582.1 722.674 579.302Z" fill="#FDFDFE"/>
</g>
<defs>
<clipPath id="clip0_115_457">
<rect width="1024" height="1024" fill="white"/>
</clipPath>
</defs>
</svg>
